<svg height="99" viewBox="0 0 83 99" width="83" xmlns="http://www.w3.org/2000/svg" xmlns:xlink="http://www.w3.org/1999/xlink"><mask id="a" fill="#fff"><path d="m0 0h70v84h-70z" fill="#fff" fill-rule="evenodd"/></mask><g fill="none" fill-rule="evenodd"><path d="m66.5404654 72.8299962c-.5641124.4579472-1.1039096.9700603-1.7215154 1.3438043-.9871966.5958238-2.0278867 1.1079369-3.0491246 1.6446708-.4911668.2614731-1.0017858.4830605-1.4978156.7386246-.248015.1285206-.5008929.2314357-.763497.3249948-.257741.0940515-.525208.1826865-.7878121.2663973-1.6631589.5559381-3.3700851.9547954-5.0478331 1.4526283-1.7652827.521469-3.5305654 1.033582-5.3493415 1.3147518-1.7798718.2801849-3.4916611.8174112-5.2326286 1.2458135-.6224688.1521567-1.2546637.2954498-1.8868586.3441991-2.5579579.2018907-5.1256418.2663972-7.6690105.571203-2.8108358.3348431-5.6168086.2018907-8.3498358.2265115-.3793169.0054166-.7586338.0152649-1.1330877.0246208-2.5093275-.0443174-4.9019421-.0837108-7.2896936-.1280282-.131302-.0044318-.262604 0-.38418-.0196967-2.2126821-.3638957-4.4545425-.5367339-6.6574986-.9498712-.31609745-.0595824-.6321949-.1231041-.94342932-.1920424-.20911062-.0497341-.42308428-.0891274-.61760579-.1624974-1.36165056-.5121131-2.71843808-1.0242261-4.07036257-1.5466799-.8510316-.3249948-1.53185688-.9405153-2.2953538-1.4127427-.24801492-.152649-.31123441-.4037814-.17020632-.6751028.12157595-.2260192.25287796-.4476065.40363213-.659838.35500176-.5017723.61274276-.571203 1.01637489-.1083316.69541439.798207 1.57562422 1.1473302 2.57254695 1.31032.29178226.0541658.5932906.1275359.86075767.2560565 1.44918524.6938147 3.00049427.989757 4.57125546 1.1862311 1.1476769.1428008 2.2710386.4042739 3.3895373.6898754 1.6242546.4131374 3.2874135.521469 4.9457093.6642697.8510316.0743549 1.7069263.0743549 2.5579579.167914 1.0795944.1176875 2.1591887.1723458 3.2387831.1723458 1.1379508 0 2.2759017-.05909 3.4138525-.1723458.5981536-.0595824 1.1963073-.0694307 1.7944609-.0989757 1.9160369-.102915 3.8369368-.1969665 5.7578367-.3048057.8558946-.0492417 1.6923371-.2171557 2.5141904-.4677956.3647279-.1083316.7489079-.2171556 1.1233618-.2220798 2.1445996-.0344691 4.2502949-.4180615 6.3657163-.6795346 1.0552792-.1329525 2.0813802-.4677956 3.1123442-.7484729.7002774-.1866259 1.4054179-.3835924 2.0765171-.659838 1.6631589-.6992313 3.4381676-1.0188095 5.1305048-1.6146334.8850728-.3107147 1.7506935-.6943071 2.6552186-.9454395 2.4315188-.6746104 4.7949551-1.531415 7.100035-2.5512093.0389043-.0196967.0875347-.0339768.126439-.0290526.0778086.0142801.1799324.0196967.2285628.0684459.1021238.1083316.0583564.2565489-.0389043.3353356zm-6.2879078-37.8229959c-.1021238-.5066965-.2285628-1.0143778-.3355496-1.5210743-.1945215-.8863495-.3112344-1.7978122-.5835645-2.6595409-.6613731-2.1070498-.9677445-4.293871-1.4248701-6.4501624-.4328103-2.029248-.782949-4.0777002-1.2789789-6.0867591-.7245926-2.9348017-1.5075417-5.8592627-2.5190535-8.7157702-.3015084-.85138795-.5300711-1.73773746-.5689754-2.65412438-.0534935-1.19607942-.6710992-2.12182225-1.3616506-3.01358835-.1896585-.24620819-.4425364-.4087056-.7391817-.48749223-.6759623-.17234574-1.2546638-.55101395-1.8382283-.89570542-.8267164-.48798465-1.6874741-.82775197-2.6114512-1.04884693-1.7847349-.43381884-3.5840588-.79771456-5.412561-1.00994603-.7780861-.0930667-1.5658982-.14772492-2.3488472-.22109496-.3647279-.0300374-.7294557-.06943071-1.0941835-.11374819-1.0650053-.13246001-2.1300105-.15215667-3.1950158-.10783919-1.6193916.07337004-3.2387831.14280076-4.8581747.19154998-2.6552186.08863495-5.2569438.58646793-7.8781211.96513614-2.4850123.35995638-4.8241334 1.06361941-7.0562677 2.22621453-1.0406901.54116562-1.9549412 1.22611682-2.8691923 1.93962818-.257741.20189073-.3744539.44366718-.4084951.76373784-.1021238.86665285-.389043 1.68406407-.6710992 2.49605871-.4863038 1.38910666-.8364425 2.8220384-1.0893205 4.264326-.30637136 1.7480782-.49116679 3.5109289-.76835994 5.2644237-.40849517 2.5551487-.8510316 5.1112822-1.27897892 7.6664309-.09726076.600748-.20424759 1.1970642-.26260404 1.7978122-.04863037.4820757-.11184987.9405154-.39390605 1.3487286-.12643898.1826864-.19938455.3988572-.09726076.6105963.34527568.7243445.15075417 1.4378559.00972608 2.1572762-.46198858 2.3335613-.88507287 4.6725392-1.37623968 6.9967446-.6710992 3.1815023-.75377084 6.4408065-1.25952676 9.6415131-.19452151 1.2364575-.18479544 2.5063994-.37445391 3.742857-.43281035 2.8904842-.91425109 5.766196-1.39082878 8.6512637-.05349342.3156389-.10698683.6357095-.16048025.950856-.27233011 1.6594433-.58356453 3.3183941-.84616856 4.983254-.15561721.9799086-.26746708 1.9696655-.35013872 2.9594225-.1167129 1.3782735-.18479543 2.7619636-.27719315 4.1412219-.05835645.8617287-.16048024 1.6446708-.78781211 2.3877271-.88507286 1.0439228-.53007111 2.3586746.63219491 3.0879432.36472782.2314357.76349692.4032891 1.10390956.659838.74404477.5564305 1.54644599.9695679 2.37802544 1.3191835 1.66802194.3939332 3.31172869.7386246 4.92625721 1.039491 8.32552053 1.56096 15.91672243 1.9544007 22.69093403 1.6097093.2139736-.0290526.4328103-.0536734.646784-.0930667 1.1330878-.197459 2.2953538-.256549 3.4430307-.329919.3306865-.0251133.5543863-.0147725.7051404.0487492.7051405-.0738625 1.4005549-.1575733 2.0813802-.2462082 1.2546637-.2018907 2.5141905-.389009 3.7688542-.6056722.4473995-.07337.894799-.1472325 1.3421984-.2161708 6.3268121-1.2216851 11.5740298-2.9894599 15.6395293-4.7079931 6.3803055-2.6881012 9.8330623-5.2437423 9.9108709-5.3033246.3063714-.6155205.3160974-1.3585769.0145891-2.141519-.520345-1.3349408-.8704838-2.7082901-1.2254855-4.0924726-.7051405-2.7176461-1.4686374-5.4210121-2.1980931-8.1342265-.3598647-1.3295243-.6662361-2.6836693-1.0795943-3.9984211-.3987691-1.2807751-.8024013-2.5512094-1.0698683-3.8708853-.252878-1.2261168-.5300711-2.4517413-.9093881-3.6438814-.8024012-2.5113236-1.3276093-5.0965097-2.0084346-7.6423024-.009726-.0438251-.0243151-.0837108-.0340412-.1275359-.0437674-.1624974-.0486304-.3397673-.0437674-.512113z" fill="#fff" mask="url(#a)" opacity=".7" transform="translate(0 5)"/><path d="m42.3193738 37.4327314c-.3407843.0905504-.4645692.3577241-.3643385.7084828.1187734.4159352.3347705.6229077.7281759.6288781.9271338.0139308 1.8267041-.214933 2.7257733-.3890686.4976454-.0970183.7988386-.5199189.8664943-1.0393403.0330761-.256228.0526211-.528377.0040092-.7796297-.1598679-.8259-.0696603-1.6453321-.0030069-2.470237.0741707-.90849.0135311-1.8289206.2415559-2.6085503.0506165-.611962-.0300692-1.0642169-.4309919-1.4199509-.2270225-.2010022-.5502664-.1562245-.6249383.1338356-.2069763.7985358-.4189642 1.6015494-.3773685 2.4364049.0586349 1.182629-.2801448 2.3289384-.3142232 3.5031094-.0125288.4353389-.2585951.7333594-.6710444.8751555-.287662.099506-.5828414.1791108-.8800254.24777-.2971839.0691567-.6053933.0955258-.9000715.1731405m-14.6006032 31.7503811c-.1954498-.0885603-.4169596-.1706528-.6259406-.1676676-.438008.0044777-.8755149.065674-1.3130219.106969-.3944077.0368172-.7878131.0965208-1.182722.1084615-.2355421.0079605-.4259804-.1194072-.4229735-.3895661.0020047-.2179181.0295681-.4353388.0556281-.6522619.2004613-1.6488148.4204677-3.296137.6023864-4.9469419.3157266-2.8692561.3863892-5.7564233.6164186-8.6311522.2029672-2.5269554-.0180415-5.0753046.437507-7.5883292.0766764-.421408.0105242-.8716727-.0185427-1.3070115-.0120277-.1840862-.1518495-.3020008-.3553178-.313444-.199459-.0124383-.3322647.0990085-.4329965.2467749-.0471084.0686592-.0691592.1611998-.0811869.2457799-.1874313 1.3398486-.4645692 2.6662638-.5362341 4.0250185-.1628749 3.0986175-.3222416 6.1992251-.5668045 9.2923698-.2310317 2.9175165-.6815686 5.8151319-.8830323 8.7381212-.1027364 1.4906002-.006515 1.3766658-1.5305225 1.5100039-.6610213.0577135-1.3155277.1268702-1.9434729.3437933-.3252485.1129393-.3949089.4607129-.1824198.7522655.192944.2641885.4370058.4273784.7712751.4343438.2195052.0044778.4395115.0009951.3863892.0009951.4034285-.0532358.5377376-.0955258.6645295-.0805999.1162675.0134333.2545859.0621912.33026.1437862.1027365.1109492.0250577.2557305-.0526211.3597142-.2104844.279612-.4465276.5408153-.6489936.8254025-.2936759.4134475-.7572428.7378371-.7281759 1.3269128.6605202.24777 1.0393921-.272149 1.4904302-.5617115.2926736-.1880664.529218-.4607129.8043512-.6781335.2445629-.1945343.5081696-.0835851.5798345.2373218.0476096.2134404.0716649.4313586.1082491.6467892.0736696.4293684.1292976.8637122.2310318 1.2876079.0656511.2721489.2555882.4537474.5748229.4278759.2931747-.023384.4911303-.1801059.5883541-.4492697.1237849-.3413057.0786811-.6890792.0105242-1.0348627-.1022353-.5179288-.1623737-1.0398379-.0726672-1.5637371.0330761-.1910515.2099833-.3129464.3898973-.2263762.5527722.2656811 1.0885052.5656918 1.633259.8472938.1924429.1000036.3843846.2154305.5908598.2701588.2260202.0597037.4350012-.0417925.5858483-.2194107.1718957-.2029923.1152653-.4248907-.0410945-.5910658-.2074775-.2204058-.4440219-.4179253-.6870813-.6005188-.2094822-.1572195-.4515393-.2706564-.6660329-.4224031-.0576327-.0407975-.0836926-.1462738-.0967226-.2263762-.0290669-.1806034.1237849-.2238885.2435605-.2422971.2605998-.0378123.5257099-.0407975.7878132-.0681617.2716251-.0288567.5006522-.1562244.7021159-.3328476.2786413-.2447848.2240156-.7288816-.1167688-.8836135m3.7696759-57.1681991c.0491131-.2363268-.0756741-.4184228-.300692-.5164363-.1202768-.0527382-.2430594-.1104516-.3703524-.1343331-.7326862-.1373183-1.4623656-.3020008-2.2015669-.3905611-2.2211118-.2656811-4.4477364-.4636981-6.596181-1.17118589-.6489937-.21344041-1.3536154-.38061053-2.1975577-.34578342-.0446026.00597036-.2215098.01741355-.3898973.05920608-.1774083.04428018-.3352717.15224421-.3257497.35075873.0055126.1124418.0771776.2527453.1648794.3268773.2716252.2298589.5933656.347276.9536949.4010092 1.0885052.1602047 2.1414285.4721561 3.1778138.8298803.8780207.3024983 1.7720784.4771313 2.6992122.5438004 1.574624.1139344 3.1607745.0756245 4.7243731.3413056.0851961.0144284.1789117.0189062.2611009-.0009951.1723968-.0417925.3618328-.1084615.4009227-.2935427m4.1871367 15.7617537c.1453345-.6796261.4405138-.8502789 1.1331078-.7642062.1744014.0213938.3467982.0527382.519195.0865702.5512687.1089591.5953702.132343.6309521.652262.0275634.3935463.0626442.7791321.2034683 1.1507871.2139925.5637016.5111764.99108 1.2248189.9716763.3327658-.0089556.451038.2293614.3633362.5224066-.4079389 1.3632325-1.2443639 1.9582785-2.5979792 1.8831514-.5868507-.0328369-.9837642-.3159316-1.2558905-.8074913-.274632-.4965351-.4625645-1.2940758-.4430196-2.1045524.0516188-.3865808.0952192-.9980453.222011-1.5906037m-1.1967543.198017c-.0270623.1726429-.0836926.339813-.1157665.5114609-.2631055 1.3896016.0496142 2.6891502.6484925 3.9354632.2104845.438324.5532734.7851025.9181131 1.1050143.4600588.4039945 1.0013045.5557411 1.5936678.4293685 1.0158379-.2159281 1.9224244-.6209176 2.4897301-1.5567717.2044706-.3363303.441015-.653257.6394717-.9925726.4535438-.7741568.679564-1.6050321.5738207-2.5065566-.0405935-.347276-.0962215-.6925619-.1252884-1.0403355-.0320738-.3835957.1428287-.5880806.5101742-.6054941.4370057-.0208963.8805265.0124382 1.3110173-.0482604.4029273-.057216.6855778-.3935463.686079-.6890792.0005011-.3572266-.3317636-.7587334-.7196563-.8273926-.2134914-.0373147-.4370058-.0199012-.656511-.0258716-.4831118-.0144283-.9772491.0313444-1.447331-.0532357-2.0011055-.3607093-4.0483172-.0651764-5.7777975-.4477771-.444022 0-.620428-.0069654-.7958316.0009951-.8895473.0427876-1.7254712.3139415-2.5518732.6139521-.1618725.0582111-.274632.2129429-.2781401.4074772-.0030069.2029923.1343091.3109563.2921724.3935463.0756742.0398024.166383.0592061.2525813.0706493.5658022.0761221 1.1316044.2014997 1.6984089.2069725.9371569.0094531 1.0098241.1318455.8544666 1.1184477m20.4956706 2.3657556c-.081688.2437898-.1769071.4960375-.3262509.7030101-.6299498.8716727-2.3153287 1.3567646-3.3396862.9980454-.6209291-.2164256-.8955611-.7045027-.9817595-1.2856178-.1222815-.8194321-.1739003-1.6493123-.2495744-2.4145136.042598-.4134475.0646488-.7622162.1172699-1.1070045.0646488-.4229006.195951-.5592239.5788322-.5751448.3503062-.0149259.7076286-.0199012 1.0524221.0308469.5547768.0820924.7777901.3353352.8780208.9542627.166884 1.0308824.6675363 1.7831479 1.71194 2.1075375.1252883.0388074.2600986.0701518.3668443.140801.1528517.1005011.2520801.2691638.1919417.4477771m3.5782353-4.8688296c-2.2351442-.1825935-4.4662791-.4273783-6.7154556-.3298624-1.3636384 0-2.7282791-.0064679-4.0919175.0044777-.3493039.0029852-.7021159.0358222-1.0449048.1000036-.1673853.0308469-.2901679.1840861-.3152255.3781229-.0245565.1870713.0260599.3612068.1769071.4617079.1784106.1194072.3783708.2248836.5843449.2825971.3372762.0950283.6885848.1403035 1.0308725.2194108.4234747.0980134.6028876.2592132.5086707.6089768-.2611009.9731689.0541246 1.9060379.1287965 2.8543302.0932145 1.1781513.6560098 2.1577881 1.3621349 3.072746.2495744.3233945.5708137.5263868.9617134.6527595 1.0028079.3248871 1.9785536.2587156 2.9778535-.0592061 1.2042716-.3835957 1.9028795-1.1970575 2.2486753-2.3597853.0997295-.3348378.1378172-.6895767.2595975-1.0149614.2440617-.6502719.2235144-1.2806425-.0365842-1.9154909-.0826903-.2019972-.1583645-.4079747-.2200064-.6174349-.1368149-.4671808-.0441015-.6642027.4244769-.7681865.7291782-.1621948 1.4688807-.2781193 2.2000635-.4328512.3092116-.0656739.4109458-.3338427.2420571-.5985287-.1618726-.2537403-.303699-.5079782-.6820698-.5388251m-14.2533039 19.9569276c-.8243973-.0059704-1.5701136.0368172-2.2566937.3840932-.7141436.3607093-1.1556598.9204307-1.2002624 1.7363801-.0230531.4278759.2751332.6572373.6835732.4930523.6590167-.2651835 1.3225438-.4572301 2.0432024-.4418067.3047013.0064679.617421-.0273642.9156073-.0915456.5863495-.1273677 1.1295997-.0706492 1.6492958.2417997.1428287.0855752.3257497.1457763.4896269.1457763.1739002-.0009951.3262509-.1059739.3708535-.3084687.0496142-.2278688-.0115265-.4333487-.1167687-.6273854-.5678068-1.0473009-1.3811788-1.6811543-2.5784343-1.5318952m6.2278333.1014961c-.2626044.297523-.9612122.2751342-1.4623656-.0915455-.2796436-.2044849-.529218-.4602154-.7562405-.7234088-1.0383898-1.2065105-2.3754671-1.9065354-3.8899527-2.3284409-.653504-.1825935-1.2894677-.182096-1.9474821-.0069654-.6850767.1830911-1.3215415.4741462-1.9625167.7592309-.4550473.2029923-.7983374.5403177-1.0719671.9443122-.3432901.5059881-.6535041 1.0348626-1.0078195 1.5323927-.6905894.9706812-1.6663351 1.3154696-2.760353 1.0060059-.4079388-.1159245-.5723171-.3427983-.5748229-.7622161-.006515-.9448097.3698512-1.6916024 1.1621747-2.2199794 1.8918541-1.2622339 3.8929597-2.2080386 6.1421361-2.0980844.8168801-.0144284 1.5044625.0542308 2.1845277.289065 1.0038103.3462809 2.0702647.4025018 3.1161718.513451 1.0313737.1099542 1.8101661.6169374 2.512282 1.3060166.1237849.1213973.2405537.257223.3327659.4034969.3001909.4781264.2866597 1.1338711-.0165381 1.4766693m.2064752-3.6145562c-1.1621747-.5438004-2.3669475-.9114751-3.6534083-1.0318774-.6971043-.0651765-1.4107468-.1373183-2.0722693-.346281-.8930553-.281602-1.7795957-.4666832-2.701718-.3786204-.6294486-.0711468-1.2363454-.015921-1.8507595.0611962-1.5235063.1880664-2.8480547.8647073-4.1315086 1.6244358-1.6377693.9701837-2.4310952 2.4294395-2.5047647 4.3285119-.0320738.8283876.9346511 1.8393688 1.6583166 1.9498205 1.9780525.3039909 3.4614665-.4020043 4.3800807-2.1503251.2059741-.3915562.4069366-.7816198.7652613-1.049291 1.2238166-.9134653 2.5588892-1.3109918 4.0818944-.8492839 1.0749741.3253847 2.0206505.8413234 2.7558426 1.7030456.4871211.5711645 1.0504175 1.0512811 1.7219631 1.4015423.640474.3338427 1.2764377.3039909 1.8798264-.0636839.597876-.3646896.9156072-.9368492 1.0018056-1.6154802.1247872-.9766516-.0586349-1.9060379-.4946384-2.7931341-.1839233-.3751377-.4620634-.6159422-.8359239-.7905753m30.4014688 23.7092996c-.1017341 1.0871033-.2636067 2.1682362-.3457959 3.2563345-.1192745 1.5687125-.2345397 3.1389175-.1252883 4.7165854.081688 1.1781513.05212 2.3568001-.0636465 3.5369416-.0892053.9119726-.0766765 1.8338959-.101233 2.751839-.0962214 3.5409217-.2495744 7.0798534-.5217007 10.611322-.0972237 1.2627314-.2290271 2.5234727-.3603293 3.784214-.0571314.5532535-.2200063.6865916-.7507278.6980347-.7241666.0164185-.9862698-.1368207-1.0629463-.6920643-.1147641-.8273926-.0461061-1.6592629.0110254-2.4876506.1739002-2.5309356.5738206-5.0359997.8745126-7.5520094.088203-.7363446.1328057-1.4851274.1107549-2.2244571-.065651-2.1886349.0661523-4.3703044.1428288-6.5554567.0977249-2.7961192.1022353-5.5952235.1523506-8.3928353.0075173-.4363339.0295681-.8736629.0701615-1.3080066.0856972-.9174456.0831914-1.8309108-.0050116-2.7493514-.0586349-.6079818-.0902076-1.2219339-.0736695-1.8319058.0546257-2.006539.1528518-4.0115853.2044706-6.0186217.0641476-2.4931234-.0300692-4.9792813-.4365046-7.4470306-.0491131-.297523-.0430992-.6084793-.0185427-.9094851.0140323-.1716478.1348103-.3378229.320237-.381108.2134914-.049753.3227428.1149294.3618328.2825971.2455651 1.0627243.6439821 2.091119.7291782 3.189168.0811868 1.0487934.199459 2.0791783.6745524 3.0523471.2946782.6040016.1287965 1.2925833.133808 1.9453428.0295681.4801165.0295681.9637158.0927134 1.4393545.4104446 3.0966274.2766367 6.1917622-.01303 9.2859019m-6.5169988-19.4618851c-.1172699.1278653-.2575929.2348342-.3783708.3597143-.7371967.7652013-1.3160289 1.6115-1.5034603 2.6876576-.0887041.5104659-.2440617 1.0104836-.3903985 1.5100039-.0320738.1099541-.1553575.2791144-.2295282.2761292-.1914406-.0089556-.2666136-.1945343-.3021955-.3646896-.1262907-.6074842.0531223-1.2094957.0461061-1.8791712.0315727-.5428053.0566303-1.1502896.1052422-1.7552862.1027365-1.2796474.9196165-2.1164931 1.8517618-2.8662709.1789118-.1437862.4284862-.1029888.5823403.0980134.1573622.2059775.307207.4229006.4234746.653257.2871609.5711646.2470686.7865951-.2049717 1.2806425m-6.7284856 5.6011939c.1433299.6821138.3713547 1.3493017.6003818 2.0095241.6164187 1.7781726 1.1180732 3.5871921 1.571617 5.41263.8228939 3.3075802 1.6638293 6.6106825 2.531827 9.9068195.2996898 1.1388464.2941771 1.1667081-.7928247 1.8975798-.2505767.1681652-.5602895.2497601-.8419377.3741426-.8434411.3721526-1.7169515.6905718-2.5243096 1.1283983-1.9169118 1.0398379-4.0147399 1.5234372-6.0965312 2.0692277-1.2754354.3343402-2.5463604.6855965-3.812775 1.0497885-.3778697.1089591-.7422082.2736416-1.0990295.4413092-1.8432422.8642098-3.776692 1.4403497-5.7813056 1.7791677-.6058944.1029887-1.2263224.1184122-1.8382307.1945343-1.3536153.1671701-2.705226.3423007-4.0342848.6731582-.8093628.2024947-1.639774.2985181-2.4852198.272149-.4355023-.0134334-.8815288.0417925-1.3105161.1263726-1.3014954.2557305-2.6180254.3423007-3.9380634.397029-1.4959429.0621913-2.9913847.1189097-4.3279608.1716479-1.5661044.0845801-2.972842.16518-4.3800807.2358293-1.7655634.0885603-3.5160923-.1383134-5.2716326-.2617008-.4385093-.0308469-.8760162-.1134369-1.3145254-.1149295-1.9484844-.0049753-3.8458512-.322897-5.7387076-.767689-1.4959429-.3527488-3.0249619-.5637016-4.540951-.8298802-.7392012-.1293578-1.4563518-.3209069-2.15947-.5870855-.65701209-.248765-1.33908186-.4303635-2.00561589-.6537545-.41595732-.1393085-.85396539-.2492626-1.22932929-.462703-.79984083-.4547426-1.35110957-1.0378478-1.24135698-2.0990796.10724683-1.0383453.00902077-2.0965918.18542676-3.1374248.02856575-.1711504.04209689-.3482711.03608305-.5224066-.0365842-1.0537688.11426297-2.0871388.25909631-3.1294644.53473068-3.8528731 1.27343079-7.6709191 1.94497635-11.4999108.33026009-1.8801663.2946782-1.8110096 2.09532239-1.2358648 1.195752.3816056 2.4185663.4293685 3.6584198.3527489.6339591-.0388074 1.1897382-.3010058 1.744515-.5666868.1047411-.0502506.1754037-.1860763.2425582-.2945378.1042399-.1686628-.0726672-.4905647-.2676159-.5010129-.0866995-.0044777-.1774083-.0174135-.2611009-.0004975-1.996094.3980241-3.9370611.041295-5.86399595-.4418067-.67705824-.1701553-.7376978-.297523-.69710438-1.0318775.03157267-.5676818.04560496-1.1368563.10925144-1.7000603.06314533-.5557412.38137774-.7502754.93264648-.5721597.50165451.1621949.98727221.3726501 1.47840251.5656918.9647203.3791179 1.9625167.4641956 2.9848697.3408081.2215098-.0263691.4324954-.0815949.5893564-.2532428.1032376-.1129394.117771-.2776218-.0125289-.329365-.3232439-.1283627-.6610213-.2313515-1.0023068-.3029958-.9045818-.1900565-1.8021476-.3821031-2.6511014-.7756494-.3929043-.182096-.8424389-.2442873-1.267417-.3572266-.69910899-.1865738-.82940888-.3358329-.74170703-.9866022.081688-.6044991.19194175-1.2065105.31873356-1.8040442.06063956-.2850847.35180969-.4313586.61090597-.3293649.2846552.1129393.5497653.2751341.8344204.3890685 1.5134833.6074843 3.0615462.768684 4.6471955.3109563.2079787-.0602011.4094424-.1507516.604391-.2467749.1688887-.0835851.2706229-.248765.2465675-.4268808-.02606-.1960269-.2039694-.2612033-.3903985-.2746366-1.1852278-.0850777-2.3699544-.1860763-3.5561845-.2492626-.8193858-.0437827-1.5340306-.3348378-2.2216131-.7537581-.2981862-.1815985-.43049073-.3955365-.42748381-.7398273.006515-.7462952.03457961-1.48662.29217241-2.1990831.1292976-.3577241.3237451-.5129535.6935963-.4517573.4755946.0786098.9511892.1850812 1.4087422.3338427.718654.2333416 1.4573541.3268773 2.2000635.4204129.5402433.0681617 1.0514198-.0711468 1.5605917-.2039873.2275236-.0592061.3728581-.2447848.3422877-.4935499-.023053-.1945342-.1909394-.3199118-.3653408-.3094637-1.3997214.0815949-2.6826741-.3950389-3.9826661-.7945556-.0420969-.0134333-.0861984-.0189061-.1292975-.0283592-1.3626361-.2945378-1.3791742-.3179217-1.1240871-1.6139876.016538-.0855752.0380876-.1701553.0576326-.2557305.2525813-1.1015317.2520802-1.0970539 1.385188-.9532677 1.1411263.1447813 2.2852595.1263727 3.4273881.0069654.2114868-.0218913.4289873-.0865702.6184233-.1811009.0927134-.0462703.1809164-.2114503.1733991-.3159316-.0075173-.0995061-.1282953-.2507552-.2240156-.2726465-.2956805-.0691567-.6028875-.0965209-.9070876-.12289-.9647203-.08259-1.9304429-.1512491-2.8946621-.239312-.2144936-.0199012-.4339988-.0741319-.6324556-.1567219-.2104844-.0875653-.3493039-.2641885-.352812-.5079783-.0015034-.1303529.0085197-.2621983.0285658-.3905611.2014637-1.2915882.4014239-1.3488041 1.5194971-.9184406 1.3611326.5243967 2.7533368.9204307 4.2422635.8050037.3513086-.0273641.7051229-.0268666 1.0203484-.2179182.1949486-.1189097.3668443-.2507551.2946782-.5139486-.0526211-.1935392-.215496-.2706563-.3944078-.2950353-.1282952-.0184086-.2626043.0004975-.3939065.0079605-1.8076604.1009986-3.4870254-.3597143-5.0907163-1.147802-.5136822-.2522477-.5948691-.3990191-.5242064-.917943.023053-.172643.0646487-.3437933.1082491-.512456.1518495-.5905683.3287566-.7000249.9516903-.5567362.3427889.0786097.6780606.1885639 1.0163391.2865773 1.0804867.3119514 2.1730011.2945378 3.2710282.1189097.1297988-.0213938.2585952-.0557234.3833824-.0980134.2595975-.0895554.4881234-.2179182.483613-.5378301-.0030069-.2343366-.2535836-.4243931-.5753241-.4184228-.2631055.0044778-.5247076.0447777-.787312.0666691-1.2553892.1069689-2.4551505-.1437862-3.6213344-.5751448-.7271736-.2691638-.8294089-.4139451-.813372-1.1532748.0105242-.4791215.0285657-.9676961.1257895-1.4343793.3498051-1.6712036.5858483-3.3563381.7407047-5.0544084.0235542-.2602082.0872007-.5174313.1478403-.7721667.40844-1.702548.6504971-3.4309676.8980669-5.1628699.2600986-1.8144923.6114071-3.620029 1.0158379-5.4086497.2200064-.97366645.6189245-1.91051564.9657226-2.85283765.1668841-.45374746.3478005-.57962258.8108662-.45573758 2.1273962.5701695 4.3259562.76370871 6.4693893 1.23735737.7747831.17164789 1.5445547.32787234 2.3343725.41792529.9166096.10398379 1.8322168.24826752 2.7332907.44329932 1.8612837.40250185 3.7491286.4875795 5.6414838.54628806.660019.02089626 1.3240473-.0064679 1.9800571.05273819 3.3066101.2955329 6.5966822.0298518 9.8897612-.22488361 1.3586269-.10497885 2.7102376-.2875724 4.0808921-.26816873 1.5560813.0213938 3.0575369-.33633035 4.5319302-.80948148.2921725-.09303813.5913611-.16567752.8870416-.24876505.7216609-.20348981.8730092-.14925903 1.0859994.50549059.5006522 1.53687048 1.0238564 3.06478548 1.4022272 4.64195588.7652612 3.1871778 1.6046932 6.3569421 2.3809798 9.5416323.3728581 1.5284125.6339591 3.0831941 1.0123299 4.6091189.8930553 3.6046056 1.5756263 7.2584667 2.6942007 10.8103341.5106753 1.6224457.8133719 3.3085752 1.2132923 4.9653505.1127596.4676783.2190041.9373467.359327 1.3970645.7026171 2.3005792 1.3355738 4.6180744 1.8307134 6.9728844m3.6844798 21.8201778c-.5823402.4646931-1.1371171.9796368-1.7735819 1.3577597-1.0183437.6049966-2.0893085 1.1224279-3.1447376 1.6652332-.5076684.2607058-1.0333783.4850919-1.5425501.7428125-.5121788.2597107-1.0539256.422403-1.5986794.6005188-1.7159492.5597214-3.4734942.965706-5.2039769 1.4682114-1.8181845.5273819-3.6368702 1.0428231-5.5101816 1.3284053-1.8332192.2791144-3.6002861.8219198-5.3949164 1.2562636-.6389706.1552294-1.2909712.2995131-1.9444752.3497636-2.6335611.2039874-5.2821568.2661786-7.9016857.5751448-3.2970882.3895661-6.596181.1562245-9.7749971.2542379-2.5819423-.0442802-5.0471159-.0860727-7.5122894-.1298554-.1323045-.0019901-.2661125-.0004975-.3954101-.0213937-2.6049954-.421408-5.2490807-.5826078-7.8320253-1.1532748-.2144937-.0472654-.4329966-.0875653-.6379683-.1626924-1.3997215-.5154412-2.79743829-1.0373502-4.19415281-1.5622445-.87601615-.3288674-1.57712976-.9482924-2.36293829-1.4264188-.258094-.1572195-.32073818-.4119549-.17540369-.6821138.12328374-.2303564.26210323-.4547425.41495502-.6676854.36684428-.5089733.63345789-.5776324 1.0474106-.1104517.71715052.808984 1.62524048 1.1577526 2.65060034 1.3264153.30169435.0502505.610906.1268702.88553806.2552329 1.49494057.7005224 3.09462227 1.0000355 4.71284657 1.2000426 1.1847267.1457764 2.3418899.4099649 3.4925381.6960447 1.6768592.4179253 3.3882981.5303671 5.0977324.6721631.8770184.073137 1.7615542.0751271 2.6355657.1691603 2.2877653.2452823 4.5710202.2199083 6.857282.000995.6129106-.058211 1.2308327-.0691567 1.8462491-.1005011 1.9785536-.1024912 3.9576084-.2005046 5.9356609-.3084686.8825311-.048758 1.7435127-.2199083 2.5909631-.471161.3763662-.1119443.7712751-.2189133 1.1591678-.2258787 2.2080819-.0348271 4.3790784-.421408 6.560098-.6875866 1.0839948-.1318455 2.1449366-.4726536 3.2068806-.7522655.7221621-.1900565 1.4493357-.388571 2.1379204-.6706706 1.7154481-.7035076 3.544658-1.0278972 5.289173-1.628416.9131015-.3144391 1.8041523-.7050002 2.7337918-.9572479 2.505767-.6801237 4.9413726-1.544831 7.3183431-2.5777035.0395912-.016916.0877019-.032837.1282953-.0263691.081688.0119407.1864291.0154234.2360433.0661715.1087503.1114467.0596372.2602082-.0370854.3378229m-29.1856706 21.5574819c.9982976-.3582216 2.0612439-.3413056 3.0660565-.53783.1538541.0402999.2831517.0626888.4039296.107964.3357728.1253776.4490335.6248978.202466.8696826-.7632566.7587335-2.9994031.9368492-3.9691349.3164292-.1799141-.115427-.202466-.438324-.0340784-.5572337.1052422-.074132.2114867-.156722.3307612-.1990121m-23.7661977-89.85045415c.0340784-.02587156.0591361-.06816162.0967226-.08557517 2.14644-.99854292 4.2653166-2.03639072 6.6944071-2.26326445 1.3511096-.12637265 2.6731522-.5338498 4.0197514-.74380751 3.8473547-.59952377 4.6973109-.69803473 9.8652047-.82341232 3.8588812-.18906144 7.8971753.40150679 11.8828483 1.41000032 1.4157584.3587192 2.7247711.9915775 3.9781557 1.73090723.3011932.17761825.5933656.38260065.8549677.61345462.581338.51345107.493135 1.06023665-.1939463 1.45726568-.6199268.3587192-1.2979874.55822877-1.9910825.67415329-1.7364965.29055758-3.4765012.56469667-5.2445704.58459787-1.7199584.0199012-3.4268869.20597746-5.1363212.37911794-2.3278575.23582927-4.6627312.17612566-6.9966026.11144674-.9236257-.02537403-1.8442445-.06418138-2.770376.02885675-.5181926.05273819-1.0689602.03532464-1.574624-.08059988-2.3193379-.53185968-4.6867866-.7801272-7.0216603-1.21347592-.0436003-.00796048-.088203-.00746295-.130801-.01791109-1.8803276-.45573757-3.7746874-.83187033-5.6961096-1.07566008-.2094821-.0263691-.4104446-.14577632-.6073979-.23881445-.1573622-.07512705-.1663829-.33981306-.0285657-.44727957m9.1219942 90.62461105c.4560496-.1517467.9211199-.2741391 1.2533846-.2417997.9070877.0044778 1.633259.1278653 2.316331.4393191.1573622.0721419.2871609.2323466.2355421.4194179-.0290669.1049789-.143831.2129429-.2480709.2656811-.4264815.2174206-.85597.4313586-1.2984885.6139521-.76476.3149366-1.5435524.2164256-2.296786-.0333345-.3272532-.107964-.6570121-.3418032-.6319544-.7428124.0235542-.3796155.3217405-.6049966.6700421-.7204236m54.8241774-42.4437957c-.0430992-.4761363-.0420969-.9861047-.2210086-1.4144781-.3472993-.8298802-.4324954-1.6886172-.5121788-2.5597924-.0320738-.3467785-.0496142-.7064927-.1558587-1.0338676-.4470288-1.3781583-.6900882-2.801592-.9667249-4.2155725-.1518495-.776147-.581338-1.2383525-1.3145254-1.4816447-1.0925144-.3617044-2.1995623-.6726607-3.3612359-.53783-.5181926.0597036-.8259008-.1298554-1.1150663-.5069832-.8700023-1.1343686-1.9590086-2.0015636-3.2760398-2.5826788-.2400524-.1059739-.4570519-.2636909-.6935963-.3791179-1.3806776-.676641-2.7317871-1.4612459-4.2497808-1.7672269-.983263-.198017-1.4312941-.7273891-1.6112082-1.6229432-.1032376-.5144462-.2340386-1.0224244-.346297-1.5343829-.1974544-.8970468-.3197359-1.8164824-.5988783-2.6871601-.6840744-2.1329115-1.0003022-4.3414477-1.4708852-6.5181419-.4430196-2.049824-.8048524-4.1195492-1.3170312-6.1514622-.7472197-2.966772-1.5505686-5.9206082-2.5944711-8.8037952-.3122186-.8627172-.5452549-1.75976397-.5863495-2.68467244-.0546257-1.20750556-.6910905-2.14136957-1.4027284-3.04438671-.1954498-.24776999-.4590565-.41344752-.7637578-.49056468-.6945986-.17612566-1.2919734-.5602189-1.8958633-.90848997-.8484527-.49006716-1.7390023-.83336293-2.6881868-1.0592416-1.8412376-.43832402-3.6965075-.80251605-5.5773362-1.02043424-1.1797151-.13632325-2.3689521-.19353921-3.5481661-.33633035-1.0985282-.13234301-2.1940496-.15572692-3.2960859-.10846156-1.6668362.0711468-3.3341736.14129855-5.0020121.19453427-2.7372999.08706777-5.4209763.5900707-8.1226943.97267135-2.557887.36319698-4.9694372 1.07516256-7.268729 2.24833854-1.0714659.54628806-2.0146366 1.24133761-2.9563039 1.96076615-.2661124.20348981-.3873915.44926968-.4249781.77316178-.1017341.87416039-.3979158 1.69757272-.6910905 2.52247763-.4991488 1.40353243-.8579746 2.84935493-1.1200778 4.30861073-.3172301 1.7622516-.5051627 3.5463946-.7918224 5.3146166-.4194654 2.586659-.8795242 5.1668501-1.3180335 7.7505239-.1022353.6030065-.2134913 1.2065105-.2726274 1.8144923-.0481107.4860869-.1127595.9512776-.4044308 1.362735-.1292976.1825935-.2074775.405487-.1022353.6189274.3588258.7288816.1573622 1.4503003.0100231 2.1796794-.4745923 2.3558051-.91209922 4.719073-1.41726185 7.0679127-.69109054 3.215537-.77779008 6.5066987-1.29798731 9.7436295-.20046136 1.2483031-.18943598 2.5294431-.3828812 3.7797362-.50015109 3.237926-1.05593021 6.4673939-1.5991805 9.6988519-.28265052 1.6801592-.60539331 3.3538504-.87401153 5.0359997-.15836448.99108-.27362976 1.991613-.35932699 2.9921461-.11927451 1.3920892-.19043829 2.7896513-.2871609 4.1842282-.06013841.8716727-.16688408 1.6627456-.81287081 2.4125234-.90959343 1.0562564-.54675837 2.3806816.65450634 3.1215039.37386043.2303564.78530738.4064821 1.13661591.6647002 1.95399711 1.4333843 4.30540887 1.9383773 6.51399194 2.7752229.1613714.0611962.346297.0602012.519696.090053 2.2977884.3965315 4.6271494.5970361 6.9104043 1.0955613.552271.1208998 1.1376182.1039838 1.7084319.1303529 1.979556.092043 3.9601142.1666726 5.939169.2666761.6309521.032837.7928247.2403071.6805663.826895-.1723968.9010271-.3914008 1.7930985-.558786 2.6951206-.4390104 2.3602828-.7983374 4.7364866-1.4322965 7.0584596-.1057433.3865809-.1002306.7841075-.0105242 1.1701908.0791823.3383205.2069764.6622126.4725877.9194357 1.2964838 1.2592486 2.8876459 1.3592522 4.5514752 1.1283982.2470686-.0343295.5046614-.1835886.7011136-.3462809.4139527-.3452859.8895473-.544298 1.3776707-.7532606.9421684-.4034969 1.0875029-1.1303884.3488027-1.8572799-.8228938-.8089839-1.7500276-1.4726891-2.9778535-1.5378655-.39541-.0208963-.7898177-.0552259-1.1852278-.073137-1.4513402-.0661715-1.7861107.2343367-1.4929359-1.7055332.3457958-2.290131.7447139-4.5673263 1.3982179-6.7957637.1939464-.6622125.1819187-.6910693.8700024-.7209211 1.2754354-.0547283 2.5528754-.0805999 3.8268073-.1542343 1.1411263-.0651765 2.280248-.1044813 3.4173651-.2960304 1.1676874-.1975195 2.3614348-.2597107 3.5471637-.3348378.8955612-.0567184 1.045406.0890579.9867711.9393369-.0541246.7821173-.1849256 1.5592593-.2761355 2.3393865-.2485721 2.1254486-.5031581 4.2508972-.7351921 6.3778384-.0661522.6064892-.094718 1.2209389-.0831914 1.8309108.0125288.6711681.3187335 1.1642204 1.0178425 1.3612424.4650704.1308504.9141038.3243896 1.3831834.4363339 1.7785934.4233981 3.4078431.0965208 4.8441488-1.0438182.5342295-.4233981.5878529-.7353495.3643385-1.3900991-.101233-.2965279-.2661125-.545293-.4760957-.7766445-.8609816-.9472973-1.9284383-1.3353708-3.201368-1.1935747-.3929042.0432851-.7878131.0945307-1.1822208.0965208-.8669954.0029852-1.0589372-.1796083-.9712353-.9870997.192944-1.7816553.4109458-3.5598279.6289475-5.3380005.094718-.7716692.3608304-1.5393581-.0436004-2.3075446-.0912099-.1721454.0546258-.3348378.2144937-.4209105.1127595-.0611962.2460663-.0955258.3743616-.1159245 1.3029988-.2079676 2.6090046-.3985216 3.9099988-.6164398 2.2130934-.3706599 4.4512445-.6418138 6.6272526-1.1667081 3.1612757-.7617186 6.360639-1.3776609 9.4597716-2.4075482 1.976549-.6562422 3.8328212-1.5328902 5.6620311-2.4901381 1.7560415-.9179431 3.2489775-2.2359003 4.9579106-3.2359358 1.1842255-.693557 1.5330283-1.8945947 1.019346-3.1996162-.5317237-1.3488041-.8945588-2.7369131-1.2629065-4.1329825-.7236655-2.7468637-1.5089729-5.478304-2.2637099-8.2177048-.3713547-1.347809-.6840744-2.7130316-1.1100548-4.0429296-.4129504-1.2920857-.826402-2.5777035-1.104041-3.909094-.2585951-1.2393475-.5462572-2.4806851-.937658-3.6837129-.8404342-2.5816837-1.3891972-5.2374994-2.1048443-7.8505275-.0446026-.164185-.0511176-.3452859-.042598-.5159388.0070161-.1368207.1037387-.2607057.2500755-.2527453.2159972.0104482.4485323.0213938.6409752.105974 1.3661442.604499 2.770376 1.1318809 4.0598437 1.8955897.5673057.3363303 1.1285975.686094 1.5881552 1.1682006.7752843.8134618.7838039 1.2104908.0430992 2.0125093-.1187734.1293578-.251579.2457799-.3778697.3671772-.9541961.9144604-1.4548483 2.0841536-1.7264735 3.3269838-.2039694.933864-.2540847 1.908028-.3011932 2.8667685-.0481107.9612282.323244 1.8115071.9947895 2.4916308.7587463.7676889 2.0121309.438324 2.3183357-.5890757.0856972-.2885674.1237849-.6020114.1202768-.9040122-.0105242-.8020185.2415559-1.5512988.4294884-2.3125199.1172699-.4726536.3598282-.8910764.705624-1.2443228.1247872-.1278652.2681171-.2597107.4525416-.2189132.186429.0407974.2600986.2174206.2831516.3965315.0496142.389566.068658.7841074.1448334 1.1682006.0701614.3572267.2666136.4826042.6675363.4900672.1302999.0024876.2621032-.0293543.3924031-.049753.3327659-.0512456.4886246.1308504.5457561.421408.1167687.6000213.2605997 1.1935747.274632 1.8125022.0240554 1.0497885.0015035 2.0960943-.0415957 3.1453853-.058635 1.4403496.0902076 2.89264-.0340784 4.3240341-.1899372 2.1826646-.0385889 4.363339-.1358126 6.5440135-.1383184 3.0951348-.1774083 6.1957424-.2330363 9.2933648-.0436004 2.4478481-.2260202 4.892711-.1087503 7.3425493.0210484.4358364.0430992.8831159-.0295681 1.3090017-.2340386 1.3811436-.2871609 2.7831834-.5036592 4.1608443-.2535836 1.6105049-.255087 3.2234975-.2696205 4.8394753-.0075173.8293827.0340785 1.6607555.0841938 2.4891431.042598.702015.3603293 1.0283947 1.0393921 1.114965.610906.0776147 1.2233155.1602047 1.8377296.1985145 1.1190755.0676641 1.8287087-.552756 1.9354544-1.6796617.0370854-.3910586.0205473-.7860975.0315727-1.1796438.0135311-.4806141-.0285658-.9716763.0551268-1.4398522.4259804-2.3747112.4625646-4.785742.636966-7.1793594.2470686-3.3981306.3152255-6.8116846.3798743-10.2207609.0415957-2.1876399.120778-4.3752798.3292578-6.5465011.2425582-2.5294431.117771-5.0713244.4385092-7.3798641-.049113-2.5752158-.2175006-4.9290307-.4314931-7.2808555" fill="#3e0f49"/></g></svg>