<svg height="112" viewBox="0 0 96 112" width="96" xmlns="http://www.w3.org/2000/svg"><g fill="none" fill-rule="evenodd"><path d="m56.4759969 75.096209c-.7189681-.0612488-1.3575388-.1298474-1.6770802-.8736525-.0768128-.1793364-.3338798-.2175556-.5458832-.1533669-.4470507.1362173-.9913976.8021139-.9468462 1.2328152.0844942.8222035.0215076 1.6414671.0081934 2.4612206-.0076813.5120397.0757887 1.0118297.1628432 1.5145596.2836954 1.640487.9412133 3.1535766 1.6970515 4.6328569.1602828.3140837.3441215.6364972.592483.8868822 1.4753185 1.4871201 3.0730254 1.4400811 4.2538947-.3072238.0885908-.1313174.1746212-.2670447.2345352-.4115918.3369523-.8030938.6052851-1.6223574.5694391-2.5092395-.1566982-1.8173735-.5976038-3.538219-1.7866665-5.029259-.6570057-.8236735-1.4911931-1.3528629-2.561964-1.444001m-28.5713013 1.0618087c-.1295577-.8148537-.1756454-1.6355872-.1654037-2.4577907.0040967-.348383.0768129-.695786.1080501-1.044169.0112659-.1234775-.0517206-.2459751-.1776937-.2724345-.1070259-.0225396-.2560428-.0146997-.3395127.0426291-.1961288.1347473-.3825279.2925241-.5412744.4679406-.6421553.7095058-1.2812381 1.4219514-1.9054704 2.1466469-1.8051016 2.092258-2.9757291 4.48047-3.5656517 7.1283768-.1787178.8011339-.2970096 1.6145176-.4137651 2.2593446.0353339.4062019.0471119.6409071.0773249.8741425.2022738 1.5792382 1.5454742 2.1691864 2.9275931 1.2862241.101905-.0651687.2104672-.1283774.2908646-.2141257.5443469-.5811283 1.184966-1.0750384 1.6315046-1.7463249.4158134-.6252274.8587674-1.2391851 1.341152-1.8193334 1.0093207-1.2141957 1.2438558-2.6131176 1.1045686-4.0943578-.0803975-.8560128-.2365835-1.7061457-.3722862-2.5567686m61.8880995-17.9914587c-1.6673506-1.2999438-3.5825506-2.036889-5.7850305-1.839913-1.3027457.1171076-2.6039551.2572448-3.8985073.4365812-.969378.1342573-1.9361955.3086938-2.8630704.6345373-.2314626.0813384-.4567803.1656167-.5991401.3792524-.5525403.8280833-.4747033 1.639507.2698691 2.3250033 1.3662443 1.2592747 2.9332261 2.2534647 4.6256688 3.0575385.927387.4400112 1.9336351.6276774 2.6823042.599748 1.9182724-.0176396 3.4325094-.4801904 4.9180696-1.0529888.1131709-.0436092.2186605-.1077979.3195414-.1744365 1.6980757-1.1210975 2.2398622-2.8767323.3302952-4.3653224m-78.3270699.4365813c-.4634375.0039199-.8900047.0955481-1.2725326.3537729-.66827168.4512809-1.35395424.8795323-2.0037908 1.3523728-1.4323033 1.0426991-2.85794948 2.089318-4.45258389 2.9071116-1.16806714.599258-2.20913707 1.3675625-2.89481963 2.4749403-1.13836618 1.839423-1.09432682 3.187386-.03789433 4.7210552.46753411.6791263 1.13682993.9785103 1.67195933 1.0049698 1.03236448.0166596 1.82814543-.1935461 2.62443846-.6188576 2.13539676-1.1402071 3.67626218-2.835083 4.89809831-4.8224831.45729245-.7438051.87617835-1.5130896 1.02417115-2.3735123.1003687-.5835783.263724-1.1441271.4526836-1.7027158.137751-.4076719.3144205-.8124037.2739658-1.2538849-.0245801-.2714545.1008808-.4385412.329271-.5727985.3902092-.2293153.3896971-.5683885.2401681-.9246114-.1515773-.3596528-.4275914-.5492789-.8531345-.545359m56.3447733-2.2250453c.8398203-1.5728684 2.2480556-2.5675485 3.8406417-3.3466328 1.5311358-.749685 3.1288427-1.1024779 4.8699336-.7692846 1.3621476.2645947 2.7447786.4605908 4.147893.3723926 2.7498994-.1812964 4.854571-1.3082738 5.9862801-3.8121235.245801-.5389891.4711187-1.0877781.6554695-1.6458769.6503486-1.9751503.4506353-3.8714122-.6708321-5.6549764-.4455144-.7006859-.9166331-1.4356712-1.7257283-1.7884641-1.7154866-.744785-3.4770609-1.3670725-5.4178651-1.3719724-.8961498 0-1.7974203-.1175977-2.6884492-.249405-.6349861-.0935881-.9371166-.2797844-1.0856214-.7207755-.0512085-.1469971-.0819337-.3184936-.1024171-.5291894-.1638674-1.7394651.2099551-3.3564326 1.3058182-4.782304.6349861-.8182835 1.3416641-1.5777683 2.1200342-2.2784542 1.4235978-1.2984739 2.8318331-2.6165474 3.8406416-4.2580145.1638674-.2645946.3635808-.5291893.460877-.8231834.3943059-1.1661766.6554695-2.3617526.5172064-3.586728-.1894716-1.7242753-.9422374-3.1457368-2.6782074-3.9346209-.4455145-.200406-.8705455-.4360913-1.310939-.651197-.6247444-.3042838-1.2904556-.5100797-1.9817711-.6124877-2.196847-.3189835-4.0505967.2102058-5.3973818 2.0084697-.4147892.5438891-.7527657 1.1171776-1.0088085 1.7394651-.2099551.5095897-.4199101 1.0240794-.6554695 1.5243593-.2509219.5433991-.5888984 1.0284894-1.0446545 1.4351812-.2509219.2204956-.5376899.3674926-.8807872.3674926-.8039743-.0093098-1.3519058-.4752904-1.9049582-.9603807-.4352728-.3723925-.3891851-.8182835-.3482182-1.2984739.0819337-1.0534788.1126588-2.1118576 0-3.1702363-.143384-1.3278733-.6605904-2.4200614-2.0790674-2.9203414l-3.3951272 2.1368471c-.5069647.4209016-.8961497.9206915-1.2187636 1.4596807-.3226139.5438891-.5786567 1.1269774-.8193369 1.7100657-.3328556.793784-.5786566 1.6267673-.8603037 2.4401509-.1024171.298894-.1997134.6026879-.4455144.8280834-.1177797.1126977-.2509219.2160857-.425031.1861963-.1843508-.0244995-.2560428-.1714966-.2765262-.3376033-.0307252-.2699845-.0665712-.544379-.0768129-.8182835-.0665711-2.0731484-.1229005-4.1458067-.1843508-6.1449666.0563294-3.4490407-.281647-6.79567348-.670832-10.14720616-.1894717-1.63166722-.3021305-3.27362424-.460877-4.91019137-.0256043-.24499508.0256042-.46059075.1382631-.67618642-.1843508.02939941-.4199102.04409912-.6913155.04409912-.460877 0-1.0344129-.03919921-1.6898824-.08819823-1.3672684-.11759764-3.082755-.2939941-4.8084833-.33270332-.8961497-.0249895-1.7922994-.00538989-2.6474823.07790844l-.5632941.06859862c-.5888984.07839842-1.1521925.19599606-1.6745198.35769281.1126588.17149656.0972963.36259272.0051209.56838859-.6708321 1.51406958-1.1061048 3.1114375-1.6437946 4.6696062-1.2597305 3.64552677-2.4580107 7.30575322-3.297831 11.06887762-.5018438 2.2294553-1.1112257 4.4393109-1.5618609 6.6785659-.0563295.2547949-.107538.5144897-.1536257.7741844-.2355594 1.2690745-.8398203 2.2686545-1.6437946 3.2197254-.7066781.8324932-1.6028278 1.3273833-2.7601412 1.2979839-.4506352-.0097998-.9063914.0391992-1.3519058-.0146997-1.5823444-.1808064-3.1851722-.3033039-4.7419122-.6271874-2.5040984-.5193896-5.0184385-.6614867-7.5635037-.5634887-2.6167571.0930981-4.3322437 1.5091697-5.5714908 3.5230292-.4045476.6516869-.496723 1.3327733-.3328556 1.9751504.1536257.597298.5274481 1.1509868 1.0907422 1.6115776.6657113.5438891 1.4133562.9260814 2.2787808 1.1073777.8449411.1763965 1.6950031.2302954 2.5604277.2106958 1.1521925-.0195996 2.2839016.1126978 3.3797647.5051799.9063914.3233935 1.1214673 1.2685845.814216 1.939871-.0972963.2106958-.2304385.4311913-.4096684.5732885-1.0702588.8623827-2.1814845 1.6267673-3.6665326 1.739465-1.8742331.1371973-3.7433454.3919922-5.6073368.6271874-3.0315465.3772925-5.33081061 1.8619626-7.18968117 4.0914179-.41991015.49489-.70667806 1.0686685-.78861175 1.7002658-.1382631 1.044169-.12290053 2.0824582.11777968 3.0918379.08193369.3630827.19459251.7202855.34309732 1.0730785.24580106.5982779.61962352 1.092678 1.15219249 1.4846701 1.63867377 1.2053758 3.44121493 1.5875681 5.43834853 1.0093798.6657113-.1910962 1.3314225-.3919922 2.0073754-.5585888 1.1112257-.2788044 2.2429347-.4262915 3.3900064-.4899902.8551828-.0440991 1.4082352.3233935 1.73597 1.048579.5888984 1.2842642.6861946 2.5724483.0051209 3.8567125-.2201968.4160016-.4659979.8275934-.7066781 1.2342852-.9729626 1.6463669-1.700124 3.3907319-2.1661219 5.228195-.2765262 1.1073777-.5018438 2.2196554-.7271615 3.3373229-.1536257.7736945-.1894716 1.5576787-.0921754 2.341663.1177797.9265714.604261 1.6223574 1.4850481 2.0236594 1.6796406.7692845 3.3951272.8574827 5.1106138.1322973 1.3263016-.5585888 2.4887358-1.3572727 3.4514567-2.4009518.7271614-.793784 1.4338395-1.6120676 2.0432213-2.4940499.7681283-1.1117876 1.526015-2.2294552 2.2992641-3.336833.17923-.2596947.3687016-.5193895.5991401-.7398851.3123722-.298404.6503487-.4507909 1.0446546-.4507909.1689882 0 .3430973.0298894.5274481.0832983 1.7462117.5193896 3.0622716 2.0579587 3.1442053 3.8170233.035846.7844743-.0153626 1.5679685-.0768128 2.3519528-.0768129.9407811-.0665712 1.8766623.0307251 2.8174434.107538.9897801.4199101 1.9207614.9729625 2.7591346.7015572 1.0676885 1.5772235 2.0084696 2.6167572 2.787554 1.6540363 1.2396751 4.0096299 1.4356711 5.6483037.4213915 1.1777967-.7349852 2.1558801-1.690466 2.6833283-2.9840401.2406802-.5830882.4455144-1.1808762.6964363-1.7590646.4455144-.9897801.640107-2.0138596.5837775-3.0918379-.0307251-.5095898-.0512085-1.0240794-.0051208-1.5287693.0819337-.8770824.3328556-1.7242754 1.0856214-2.2931539 1.1009839-.8329833 2.3555935-1.3033739 3.7740705-1.0044799 1.4031144.2939941 2.7806245.6663866 4.1632555 1.0240795.8039743.2106957 1.5004107.592888 2.0893091 1.1759763.8603037.847683 1.8179037 1.5875681 2.8727999 2.2000558 1.9100791 1.1122777 3.9020919 1.3229735 5.9862801.4605908.7937327-.3233935 1.5311358-.7398851 2.2480556-1.195576.4557562-.2939941.7834909-.6810863 1.029292-1.146577.8244577-1.5625786.7271615-3.1065376-.1587465-4.6059074-.5479316-.9358812-1.3058182-1.695366-2.2736599-2.2632646-.6605904-.3924821-1.2955764-.8236734-1.9612877-1.2009659-.6810737-.3870922-.8244577-.9554808-.634986-1.6164775.1433839-.4855802.3482181-.9608707.5888983-1.4116616" fill="#dffbff" transform="translate(0 25)"/><path d="m57.1728155 9.90777985c-.4113976.54253725-.8650686 1.05564265-1.3350463 1.54675135-.5368457.5599105-.7479648 1.2337356-.8178352 1.9823172-.0291546.3127566.0301599.5563507.3332666.7058636.3649344.1795172.4835633.5273636.5443857.897586.0462451.2802095.0950036.5644874.0965116.8467312.00754 1.5449666.0346838 3.0884075-.1482861 4.6293058-.1186288 1.0033637-.304112 2.0113044-.0402131 3.0299246.0965116.3717481-.0497638.7241713-.3091387 1.0084492-.1628633.1790087-.3287426.3610686-.5187498.5085473-.326732.252748-.4111796.5578764-.3387959.9616629.3347745 1.8836591.4906006 3.7886772.6182774 5.6952209.0929929 1.3781631.1538153 2.7588689.2050871 4.1390662.0196039.5344832.149794.8996201.717805 1.1050732.5845988.2110472.9590839.7180688 1.2134322 1.2957785.2548509.5766926.7283609.8472397 1.3184891.9397953.8379418.1317138 1.6834236.1454446 2.5243814.0711967.3523678-.0310214.702725-.1673121 1.0374996-.2990258.5685136-.2242694.6801051-.3915814.6363733-1.0145518-.071881-1.016586-.0512718-2.0311378-.0291545-3.0482324.0517744-2.3159243.0814316-4.6328656.1206395-6.9869309-.0331759-.8157099-.1291848-1.6710864-.091485-2.5203603.1418424-3.1690951.1217166-6.3327446-.1187958-9.4968098-.1241837.1033836-.2770194.1227473-.4490564.0557148-.2172901-.0851033-.3401062-.2462651-.3422864-.5007526-.005877-.7197431.2029312-1.3360801.5588568-1.8762474-.1261147-1.0052852-.2848814-2.0054399-.476104-3.0004639-.1296875-.67382515-.317684-1.35578704-.6052081-1.97418052-.256359-.55431652-.48105-1.11320997-.6735705-1.68939403-.5876149-1.75499663-1.6517557-3.09959561-3.2049892-4.1171987-1.7186101-1.12592366-3.4980426-1.59073586-5.4946262-.99573556-.076405.02288463-.16035.02186754-.2362523.04780345-.7700821.2603762-1.5421749.57262422-2.0478554 1.22763311-1.2365548 1.60141535-2.4092712 3.23588628-2.8988665 5.2822805-.3342719 1.39697935-.4217355 2.80972365-.5283004 4.22501075-.0427265.5639789.1377301.7440046.6549719.8340175 1.7864698.3086882 3.5834956.4912567 5.3991199.4520985.6554746-.0137308.7675688-.1012009.8319098-.7618038.0477532-.4866797.0412185-.9875988.3201974-1.409693.7198156-1.0908339 1.6844289-1.95943266 2.6053103-2.8646468.1890019-.18561976.4458635-.16273513.6796025-.05187183.2802989.13339519.4472254.35235673.4666452.59782538.2452774-.44250795.8378446-.53125003 1.1735818-.12352923.3761317.45622113.6191277.95012818.3807868 1.57261068-.2029622.5284894-.3207361 1.0862407-.4845955 1.6284744-.1112568.3679918-.3342358.5599682-.5949212.5346965-.3458736-.0332523-.636817-.253604-.73085-.5630718-.0307236-.1015302-.0553956-.2070508-.0637748-.3121279-.0195514-.2465102-.027465-.4943504-.0311891-.5573081.0210064-.6405699.052157-1.1681522.1728155-1.65749935zm-12.3518959 5.65244475c-.0147741.1051122-.0243522.2113435-.0322199.3171422-.0985222 1.3791802-.1940285 2.7583604-.2870214 4.0780405.0412185 1.4035905.079421 2.7451382.1211421 4.0861773.0035187.1210343.0206093.2430856.0467478.3615772.0382025.1739231.16035.296483.3247213.3163164.7560075.0905214 1.5125177.2151155 2.2715411.2324061 1.365237.0320384 2.7319819-.0116966 4.0977215-.0081368.7504781.0020342 1.4150007-.2354574 2.0503686-.6204277.4991459-.302077.7474622-.6824704.6720626-1.2998468-.1085756-.8909748-.0472505-1.786018.0417211-2.6785185.1221475-1.2139023.230723-2.4288217.3538759-3.6422155.0859556-.8553765.0517744-.9387783-.7188104-1.0857484-.4725046-.0905214-.9550626-.1474787-1.4356099-.1693463-2.129287-.0961154-4.2510341-.2573249-6.3511666-.6433123-.0346974-.0064232-.0696984-.0117933-.1048756-.0161749.0618446.2293989.1050945.4701235.1274451.7232305.0199268.2275866-.1699873.4751369-.4074814.4886124-.2632708-.0402087-.5710564-.1120947-.7701619-.4397754zm-.8205416-1.8786752c.0064846-.2310659.09601-.4405123.2385319-.5468446.1619323-.1213462.3554663-.1630129.5286896-.1155923.0148352-.0658314.0210286-.1364521.0216029-.2098114.0020107-.2441027-.0175933-.4876968-.0191013-.7317995-.0130692-1.9355309.3101441-3.82681824 1.0329757-5.60419095.6102348-1.50174009 1.432594-2.91601005 2.532424-4.12533546.863075-.94945775 1.9226919-1.59988971 3.1763373-1.88315054.9786879-.22070952 1.9523491-.46226947 2.9697422-.46481221.6931744-.00101709 1.3823275.06000858 2.0192035.2980087 1.7884804.66721402 3.3919803 1.61768887 4.7004162 3.07874518 1.1782457 1.31662888 1.7829511 2.8788861 2.2142373 4.54285276.7167996 2.76293732 1.0420236 5.58181482 1.2938586 8.42357702.2659095 3.0105998.0909822 6.0150971.1176235 9.0216285.0050266.6097482.0010053 1.2200049.0010053 1.8292446.0477531 2.8478647-.1905099 5.6881012-.2277071 8.5329146-.0025133.2034189-.0276465.4063293-.0266412.6092397.0010054.1988419-.0387051.4404019.1643713.5502481.2764655.1510385.4393288-.102218.5991762-.2613933.6599985-.6555174 1.336585-1.301881 1.7854645-2.1348814.9404853-1.7453343 2.8581506-1.6756633 4.1218493-1.3069665.4393288.1281539.7680714.4505729 1.0304623.8090987.2794815.3809019.3307533.8294406.1236555 1.2718767-.326732.6972183-.6650252 1.3898597-1.0068371 2.0799583-.5398617 1.0893083-1.0917874 2.172514-1.6281305 3.2638564-.1065649.2171497-.1809592.4526071-.2468083.6865388-.1005329.3570002-.004524.5416029.3196947.6768765.9585813.3992096 1.891024.2924146 2.7953175-.1668035.3659398-.1856198.6564799-.4734576.8369365-.8513082.1392381-.2924147.2809895-.5878806.3749878-.8965688.5293057-1.7331291 1.4451605-3.2602966 2.4565216-4.7340666 1.2270042-1.7870351 2.8300014-2.4135653 4.9246046-1.95333.1960392.042718.3890624.1052693.5871122.1383248 2.2705358.381919 3.7458562 2.8051468 3.7071511 4.6532076-.0216146 1.0272654-.1100836 2.0179155-.4820553 2.9866981-.7806381 2.0311378-1.7925018 3.9041174-3.3643339 5.433319-.7816434.7612953-1.5331269 1.5551376-2.3006956 2.3311807-.6851318.6931499-1.3024039 1.4432572-1.8075817 2.2788003-.9595867 1.5876846-.259375 2.9490656 1.5632867 3.0639973.2402737.0152564.4805473.0335641.7213236.0381411.5448884.011188 1.0153824-.1566326 1.4195247-.5497396.4373182-.4251455.8319098-.8787697 1.1656791-1.3903683.6001815-.919962 1.2958692-1.7631334 2.0760046-2.5310397 1.5401642-1.5169965 4.2434941-1.9767233 6.1651807-1.0196373.9344534.4648122 1.8824787.8970774 2.7515858 1.5073341.934956.656026 1.5150309 1.5454752 2.0131715 2.5259543.1095808.215624.1724139.4551498.2623909.6814533.5941495 1.4834324.2714388 2.8463391-.7303716 3.9763311-2.1041538 2.3744072-4.603402 4.1695791-7.7169062 4.9659641-.8228619.2105386-1.6608037.3025857-2.5012588.3798848-1.9312372.177483-3.8132133.5670303-5.6157683 1.3090007-1.4527006.5985602-2.6470316 1.5337786-3.5498171 2.829557-.7529915 1.0811715-.9681319 2.3047363-.8273858 3.6010233.0834423.7679063.4725046 1.2657741 1.2451 1.4493597.5107072.1210342 1.0189011.2629189 1.5451909.2217266 1.3858461-.1098462 2.7078539.3259788 4.0640429.4643036.1518047.0152565.311652.0900129.4393288.1795172.5283004.3697139 1.0681621.7272226 1.5612761 1.1411801.7906913.6636542 1.1546204 1.5154709 1.0731888 2.5818945-.2669149 3.4891428-2.7817456 6.0328963-6.247115 6.2800502-.5217658.037124-1.0465476.0422095-1.5652975.0991668-1.6009865.1759573-3.1265735-.102218-4.5797767-.7811286-.8811709-.4114148-1.7970257-.7038295-2.7370084-.9275903-.8067766-.1922308-1.6029973-.1332394-2.3675501.1840941-1.4461659.6005944-2.2333386 1.7071932-2.2785784 3.2821641-.0457425 1.6171803.2754602 3.1438392 1.2415815 4.4986092.5866095.8228295 1.1249632 1.6863427 1.6231038 2.5676551.9696399 1.7158385.9641106 2.6017279-.5122152 4.2829852-1.58088 1.8007658-4.4430519 2.4445867-6.6598026 1.5876845-1.1707057-.452607-2.2499265-1.0837142-3.2733516-1.8083941-.8751389-.6194105-1.5391588-1.4213896-1.9186705-2.4471294-.1829699-.4953251-.3775011-.9860732-.5715296-1.4768213-.1362221-.3463207-.3242187-.6600944-.6509506-.8543594-.6931744-.4119233-1.3858462-.8309663-2.1483883-1.0979536-.8801656-.3076711-1.425054-.0589915-1.8799654.8055389-.7067464 1.3415477-1.0932954 2.7878561-1.4074608 4.2646774-.4393288 2.0652105-.9173628 4.1227927-1.3853435 6.1819011-.0723837.316316-.1688953.627547-.2664122.937761-.6192827 1.965026-2.370566 3.061454-4.3852455 2.752766-2.4258591-.371748-4.270638-1.612095-5.4322958-3.806476-.4760233-.89962-.6971957-1.9024756-.7736007-2.92313-.0392079-.5258378-.0542878-1.0476073-.1467781-1.5729367-.074897-.4266711.012064-.8894491.0698704-1.3303596.1120942-.8528338.1266714-1.7026163.0175932-2.554433-.0738917-.5766926-.3639291-.9291158-.9369667-1.129992-.9812012-.3442865-1.888008-.2837694-2.7772216.2532565-.7670661.4637952-1.4456633 1.0343852-2.0267435 1.7158385-.7876753.9240304-1.5532334 1.8689113-2.1483883 2.9378776-.5554443.9972612-1.2486187 1.8917959-1.9714503 2.7659886-.6439133.7801111-1.3295478 1.5297101-1.9191733 2.3494881-.9857252 1.370535-2.4198271 1.177796-3.4010283.44803-1.6592957-1.233227-2.7581204-2.8244711-2.8124082-5.0051218-.0301599-1.2352613.166382-2.4293303.5644923-3.593395.6574852-1.920783 1.3119545-3.8430917 1.9744663-5.7623491.5730376-1.6598983.9349561-3.3660744 1.0787182-5.1170026.1015382-1.2439067-.5197552-1.8028001-1.750278-1.5836162-1.0053291.1795171-1.9196759.6036456-2.7591257 1.1757612-1.0329757.704338-2.0669566 1.4071503-2.998394 2.2543901-.6610039.6016114-1.4054501 1.054727-2.2675198 1.3466332-.80929.2741069-1.5255869.1703633-2.1609549-.3290301-.87664701-.6890816-1.53915888-1.5363213-1.65075041-2.7237792-.08846896-.9458979.00804263-1.8678941.26641221-2.7751425.97919054-3.4362539 2.999902-6.0868022 5.9807028-7.9750382 1.3803169-.8747014 2.6384862-1.8490779 3.5266945-3.2592795.3488492-.5553336.6243094-1.1366032.8092899-1.7626248.331256-1.1193126-.2724442-2.6597023-1.807079-2.920587-2.0237275-.343778-4.0449417-.6733166-6.100337-.7282397-.5237765-.0137308-1.0455423-.0391581-1.52407893-.2990258-.96662393-.5258379-1.43762061-1.3893511-1.59746794-2.4445867-.13823275-.9072484.0552931-1.7788984.36041048-2.6307151.59967881-1.673629 1.51955494-3.1387537 2.79431219-4.3638441.9369668-.9001287 1.9659211-1.6502359 3.2064972-2.10386 1.1430592-.4185344 2.2740544-.4439618 3.4357122-.1688377.9766772.2318975 1.9553651.4561669 2.932545.6875559.7092597.1678206 1.431086.215624 2.1544203.2176582.7298689.0030513 1.4285726-.1281539 2.1016404-.4561669.6127481-.2995343 1.2712387-.5024447 1.90158-.7684149.2940588-.1240856.6192828-.2430856.8419632-.4587097.8022526-.7770602.7323822-.925556-.018096-1.5083512-.8927322-.6931499-1.7829511-1.3888426-2.6887527-2.0631762-.4287728-.3193677-.7826487-.6890816-1.0601195-1.1493169-.4157036-.6900986-.4212329-1.4030819-.0698704-2.0916549.2558563-.5014276.6021922-.9591201.9334481-1.4178298.7343929-1.0176031 1.74123-1.2189878 2.8953478-.9545432 2.9858274.6850132 5.8550367 1.7071932 8.6126544 3.049758.8077819.3936156 1.6924716.4902395 2.5470013.7012867.2377603.0584829.4755207-.0279701.6941797-.1474788 1.1063647-.6026285 2.0744966-1.3913853 2.9536569-2.2910054.3151707-.322419.4880873-.7399363.5303111-1.2037314.0402132-.4449789.0995276-.8884321.1352168-1.3339195.1518047-1.9034924.2970747-3.8074934.4463661-5.7109858.0095506-.1215428.0125666-.247154.0482558-.3620857.4946219-1.6065008.4282702-3.2953863.713281-4.9313829.1387354-.7999448.3066254-1.59277.3076307-2.4089884 0-.2207095-.082437-.3936156-.3091387-.4602353-.0774103-.022376-.1578367-.032547-.2362523-.0493291-.7519862-.1591752-1.1018407-.7038294-1.0988247-1.4046075.0135719-2.9653391-.2432897-5.9372894.1744246-8.8934747.0683623-.4805771.1960391-.9535261.3121547-1.4259665.0770674-.3141518.1953673-.6000786.4029932-.8156201zm-7.82098 7.3178744c-.4136633.0089198-.665077-.086224-.9018736-.2507433-.1732124-.1209118-.3394817-.6917742-.2547026-.9321112.0464092-.1313182.1417856-.2675917.2393546-.3225967.2404509-.1362736.4900375-.2690784.7451055-.3255699.4019697-.0887017.8112478-.116452 1.2172371-.1645194.1816172-.0218038.3471556.0485629.4896721.2021804.4286458.4623391.3709083 1.1635285-.1447091 1.3771063-.4980769.2056492-1.0188102.3087216-1.390084.4162538zm4.2045889-2.0225391c-.8271028-.0734385-1.4986786-.7273686-2.1124759-1.4935614-.1780844-.2231221-.2481309-.5121985-.269501-.8139044-.0316594-.450454.3158029-.7830322.6802822-.6328809.1428632.0584702.2722711.176346.3929727.2890764.4923043.4579382.9743192.9313125 1.4705809 1.3831698.1804588.1641842.3161986.3517564.3993046.6006053.060153.1805558.0945826.3578373-.0257232.5173439-.1104123.1459414-.2528798.2118958-.5354403.1501513zm30.6150193-7.1366394c.009549.2912995-.0477448.5504001-.2578221.7531526-.4628976.4462567-.919884.9035818-1.4746336 1.2069559-.1882511.1031371-.4060585.1640132-.6161359.1886655-.6161358.0724475-.7875625-.214324-.5438365-.838681.3946907-1.0107438 1.0813071-1.6703183 1.9880044-2.0773326.4378884-.1967152.7839248.0120746.8744127.5302757.0136414.0779818.0204621.1579759.030011.2369639zm-27.9990062 1.7301429c-.0243691.2780249-.2685383.4608993-.497417.4251599-.3478574-.0547695-.6450653-.1958706-.8978353-.4446541-.4271766-.4209825-.873944-.8229349-1.3087658-1.236491-.0812305-.0770487-.1629387-.159667-.2178888-.2543533-.1462147-.2497118-.0774078-.7932294.1256683-.9334022.2393909-.1657009.5160523-.162916.7583101-.0259923.9183819.5179895 1.5758706 1.2671248 2.0011359 2.2084175.0434822.0960787.0310587.2153648.0367926.2613155zm-7.1830265.4400844c.1337283.0490399.3814948.1324076.6239286.2309331.3031448.1230454.595214.2844311.9049221.3820649.3613946.1141291.5160436.4079223.6309022.7449597.1046034.3098426-.1595715.6798705-.4692796.6263725-.7752959-.1341908-1.5169547-.3914271-2.1905187-.8430394-.2711484-.182339-.3814948-.5358717-.2793526-.8247609.0857338-.2420785.3314492-.3651239.779398-.3165299zm30.1910007 2.3442306c.1633533-.6805903.2301797-1.3964078.6455513-1.9844679.3677634-.5208934.883593-.4917722 1.1465307.0850151.2227545.4884844.333695.9703931-.0716309 1.4433775-.208341.2437725-.3463614.5551813-.5433463.8130447-.1882494.2465907-.4503136.3278482-.7486299.2710149-.314477-.0601211-.4752097-.2893331-.4284749-.6279843zm-14.4277225-4.3554363c-.1387124-.0102023-.3575617-.1094433-.5138826-.3394597-.3198291-.4711627-.6267212-.9580927-.9321759-1.4454864-.1336813-.2137854-.1512899-.47255393-.1221819-.73688734.0409669-.37192175.4085906-.60240193.6594228-.40531123.0959487.07559008.1969285.16370122.2619724.27824569.338875.5945183.6720003 1.19413778.9932668 1.80442328.0585754.1117621.0643251.279637.0725904.4233972.0132962.2230603-.1545242.4359183-.419012.4210785zm-15.5591478 64.2642213c-.0377278-.8272022.2571453-2.0503484.1533936-3.2927568.4864911-1.8186677.2070069-3.7534432.7327151-5.5694355.1290691-.4440995.1370118-.9267233.2253745-1.3863395.0476562-.2471975.1270833-.494395.2328207-.7191201.0928304-.1985071.2824626-.3039138.4924481-.2953529.2303386.009096.3370688.2081382.4090496.4077154.1618327.44838.1558757.9213727.1335368 1.3916901-.0655274 1.364402-.0471598 2.7346896-.2397706 4.0910658-.0183675.125739.0069499.2584337.1355225.3108696.1260906.0508307.224878-.0262179.3097658-.1214585.2194173-.2466625.4254314-.5088417.6617271-.735707.2730307-.2621792.5540041-.2637844.8741946-.063137.5738609.3600951.7808678.9470555.8275312 1.6110644.0685059.9829045.015389 1.9642039-.0943197 2.9428279-.1519043 1.355841-.3817465 2.7009809-.4373455 4.0707335-.018864.4655019-.1151693.9315388-.2184246 1.3863395-.0546061.2407768-.1851644.4638966-.400114.6121081-.2913982.2011825-.7073977.0738383-.7649824-.2846517-.0799235-.502956-.1514079-1.0171483-.1459473-1.5254549.0143962-1.2375929.0729737-2.4746507.1186442-3.7117085.009432-.2562936.0456706-.5104469.0600668-.7667404.0089355-.1626582.04021-.3900585-.1196371-.4403541-.1762289-.0551111-.2735271.1514219-.3132407.3146151-.1404867.5778643-.2645915 1.1600092-.3936606 1.7405489-.2303386 1.0385507-.4472739 2.0803117-.6949872 3.1135118-.1156657.484764-.3549399.6399313-.7773928.601407-.4289064-.0390593-.6344241-.2300756-.7064049-.7100241-.1275798-.8491396-.0699951-1.70577-.0605632-2.9722561zm-9.0034935-.4834002c.0905234-1.9835952.6588916-3.8705801 1.0892488-5.7853147.0267118-.1192213.0687582-.2353592.1098153-.3509833.1493883-.4208716.4353038-.7240636.6153612-.6248839.3452751.1891096.2953141.5457456.2745382.8684653-.0158292.2446091-.0672742.4866489-.1058579.7292025-.2982821 1.868485-.3418124 3.7585531-.4392611 5.6434824-.0277012.5364957.0549076 1.0647693.2315024 1.5724874.0865661.2487203.4244212.2965115.567379.0673189.2136945-.343275.4224425-.6952861.5846921-1.0663109.656913-1.5010574 1.0976581-3.0776558 1.4295772-4.6850874.0751888-.3658859.1479044-.7240636.3254885-1.043186.1454311-.2615674.3799015-.4121356.6945074-.3597194.3314245.0554996.5480871.2924005.5866708.6726752.0207759.2029845.0257225.4116217.00742.6146062-.1296018 1.4285996-.2552463 2.8587409-.4076027 4.285285-.1172352 1.1022828-.2596982 2.1994268-.0816194 3.3109596.0450143.2790394.0370997.5724676.0153345.856132-.0217651.2826366-.2413957.4049412-.4733928.4871627-.2082533.0734856-.3952361-.008736-.5495711-.1397766-.2893781-.2466647-.3947414-.6043285-.493674-.9619923-.0648009-.2348453-.1177299-.4743156-.2052853-.699911-.0474877-.1233324-.1884668-.1577627-.2987767-.0899299-.1335592.0822216-.2537624.1911652-.3690189.3016504-1.0358252.9917976-2.5376233.1891096-2.8606385-.9229371-.1770895-.6089534-.3146059-1.7857495-.246837-2.6793951zm34.3312956-4.6961706c.0098349.1194221.0210748.282224.0388713.4445156.0088983.0806355.0252898.161271.0463646.2388443.0412129.154126.0758693.3393834.2632008.327135.0992857-.0066346.2191779-.0765527.2856806-.1597399.5062635-.6287524 1.512234-3.3019707 1.5553202-4.1537465.0121766-.2373132-.0229481-.4878955-.0847675-.7170431-.0374663-.1398361-.1442453-.2990656-.2603909-.3618388-.1428403-.0775733-.2931738.0438902-.3835613.1776021-.8336254 1.2411736-1.4255931 2.5849277-1.4607178 4.2042713zm-1.3459772-.0867597c.036998-.3225418.0473012-.6522285.1156773-.9660944.172345-.792575.3278302-1.593826.5694879-2.3619042.3849663-1.2253527 1.1956436-2.044466 2.2821666-2.535934.2013814-.0908424.4350775-.1173807.6561288-.1311601.3620182-.0219451.5914993.1296291.7867925.5215786.418686.8395274.6491038 1.7117172.7736793 2.6517836.1283221.9645633.3179953 1.9250439.6654953 2.83551.0566678.1490225.0997541.3077416.1264488.4664608.071186.4292051-.039808.7333743-.2898956.8349341-.343285.1393258-.6458255.0551179-.8954448-.2827344-.1620418-.220982-.2842756-.4771782-.4449124-.7007119-.1072473-.1495328-.2650742-.1551467-.3695115.0051035-.106779.164333-.1728134.3608182-.2683524.5353582-.2486827.4542123-.4903404.9140386-.7600978 1.3534507-.3081604.5032061-.7394913.8772933-1.3108525.7532781-.600866-.1311602-1.1333559-.4894266-1.3249024-1.1804418-.1606368-.5802691-.3400068-1.1697244-.3119071-1.7984768zm-13.1870365 11.964275c.0969895-.5245965.1823604-1.087056.3081437-1.637992.2616696-1.1468688.5400093-2.2898964.8213799-3.430729.1515461-.6129437.1126493-1.1819882-.1010307-1.790542-.5879989-1.6758551-.9961631-3.4246928-1.7205535-5.0467713-.0687009-.1536475-.1065874-.3319883-.1207317-.5026468-.032835-.3824725.1970099-.686475.6021432-.8779857.3323911-.1574886.5213186.0444481.7248955.2793092.2838964.3270497.4455456.7248869.6061844 1.1271141.2086285.5218527.4137209 1.0453517.6304319 1.5633632.0636493.1520013.1444739.3347321.3399684.2836991.1717522-.044448.2657108-.2227888.2833912-.3918011.0939586-.8807293.3995766-1.6945123.6647823-2.5192701.1308348-.4093608.3334014-.7929307.5142464-1.1819881.1712471-.3682053.4718136-.5920916.7956171-.7781148.2192367-.1262105.4965661-.034022.6385143.1871207.1707419.2655906.2455047.5547771.1631646.8692058-.1096183.4203356-.233381.8373788-.3591643 1.252227-.4793908 1.5803742-.9345343 3.1673333-1.3224923 4.7789857-.5097001 2.1170429-1.1537711 4.1879916-1.9771716 6.1914451-.3106695.7561652-.6430606 1.5101353-.7678336 2.343673-.0237422.1591349-.111639.3489993-.3207726.3166236-.1773089-.0274371-.2758139-.1871207-.3172365-.3506456-.0520309-.2063266-.0560721-.4269205-.0858761-.68428zm9.8334581-14.3229121c-.0600312-.0671779-.0965957-.1463191-.1593555-.1665646-.0676715-.0216258-.185551-.011503-.2384876.0266872-.4726091.3455525-.7274688.7923322-.810421 1.310891-.0043659.0271473.0365645.0814418.0633056.0851228.0747662.011043.1817308.0289878.2259356-.003681.3569127-.2668714.6390593-.5848166.8377079-.9501544.0512994-.0952455.0573025-.2079757.081315-.302301zm-3.6493504 4.3136551c.06658-1.94218.7956861-3.5691757 2.0503379-5.026846.4715177-.5470865 1.1149428-.9211667 1.9739345-.9253078.9861487-.0041411 1.6410344.5797552 1.5613566 1.4084371-.0551195.567332-.3847453 1.0440196-.7580302 1.4995416-.5713877.6975468-1.2715696 1.3007683-1.9881237 1.8906463-.1244283.1021473-.2412162.220399-.387474.2935586-1.0789242.5374239-.8224273 1.3941733-.4862526 2.1432539.1162422.2590493.3934771.3745403.7236486.3989268.4540541.033589.8513514-.0943253 1.2442828-.2668715.5380977-.2369634 1.0827443-.4642643 1.6350312-.6768412.0965957-.0368099.2690489-.0138037.3601871.0381902.1140593.0657976.0704003.1946321.0109148.2930985-.5517412.922547-1.3698025 1.5680999-2.5649689 1.897088-1.1422297.313804-2.4814709-.3363501-2.8602131-1.0633447-.3394491-.6510744-.4993503-1.3242346-.514631-1.9035298zm-2.9542664 8.0477c-.5631329.0054546-.9469724-.1690931-1.0287908-.4205014-.0838386-.2583504.1444449-.5618254.6631332-.7076125 1.6267723-.4567001 3.2106153-1.0487739 4.8833473-1.3616706 1.9035408-.3565335 3.732839-.9897649 5.5308239-1.6934104 1.3873777-.5429823 2.7555635-1.1310891 4.1358705-1.6894435.1797985-.0733893.3823243-.1041335.5777794-.1269437.0505052-.0059505.136364.0798357.1666671.14182.029293.0619843.0368688.1636385.0035354.2176888-.0590911.0981831-.1474752.1854569-.2388896.2578545-.5010115.3996747-1.0136392.7849689-1.5085902 1.1920817-.2813139.2315732-.583335.4160384-.9166692.5672801-2.1292991.9664588-4.3050629 1.8064697-6.580827 2.3801962-1.7590959.4428157-3.5091009.9253013-5.3131465 1.1692714-.1585863.0213226-.3151524.0614884-.3742435.0733894zm17.9574262-18.9923115c.0116684-.3698195.0445521-.739639.0705408-1.1094586.0074253-.1108994.0132595-.2231909.0392482-.3313063.076375-.3146018.325124-.5113439.6953304-.5609935.3060302-.0417613.6820709.1452366.7839041.449166.0811484.2431436.0880434.5071678.1076675.7633038.0376571.479791.0487951.961902.0991814 1.4403009.0074253.0770264.1511588.161477.2524617.2041663.0482647.0199527.168131-.033409.2169261-.0830585.1951804-.1944221.3776317-.3981244.5590222-.6027548.2418541-.2733045.5728123-.4343175.9228642-.5721298.2588262-.1011552.5192436-.0742424.7107114.0904828.8019371.6881334 1.4092241 1.47603 1.5333334 2.4843334.0175026.1424524-.0068949.2983613-.0562204.4357095-.0684193.19071-.2588263.2918651-.4731005.3275942-.1782082.030161-.3272455-.0445453-.4243053-.1823576-.1771475-.2524239-.3521735-.5062398-.5271994-.7595917-.1315347-.1902459-.2508705-.3879161-.3956647-.5693457-.2561744-.319706-.6120605-.320634-.782313.0292329-.4646144.9530857-.9111957 1.9145236-.8867982 2.9831489.0079558.3313063.0116684.6714289-.0604635.993919-.1108497.4964954-.6263807.6844213-1.1822207.481647-.1691918-.061714-.3283063-.1647252-.3346709-.3062496-.0880433-1.8922509-.9292287-3.6958751-.8682348-5.6057586zm-32.5034325 20.9924358c-.7791301-.0251941-1.7315535-.0569321-2.6839769-.085071-.2661454-.0081799-.5014932-.0572594-.6954714-.1953362-.2142033-.1531278-.1310041-.4606923.159963-.5117349.2105261-.0369732.433463-.0464618.6518033-.0513698 2.3824375-.0539874 4.7644153-.1047028 7.1473124-.155091.1461731-.003272.2941849-.0009816.4394386.0088343.1792689.0124334.3962302.0081799.4624218.1570542.0905538.2054792-.1659386.2588122-.3507235.3304682-.687657.2669921-1.4231191.4142304-2.2068459.4341894-.9165696.0225765-1.8331392.0425355-2.9239214.0680568zm55.5002727-28.0897251c-.094309 1.0444313-.3065042 2.1502022-1.2558493 2.8437267-.097196.0712866-.1934297.1475466-.2978432.1989393-.1948731.0950488-.3733866.0403405-.5321721-.1121797-.1380953-.1326262-.1376142-.3028298-.0962337-.4802173.1202921-.5111635.2309608-1.0256426.3685749-1.5307274.1414635-.5194526.1626349-1.0394578.0765058-1.5688573-.0596649-.3663799-.1881368-.6736306-.5504566-.7543115-.0750622-.0165783-.151568-.0386827-.2198939-.0768127-.2391406-.134284-.5239923-.2409376-.4898293-.6366057.0307948-.3564329.2896633-.5001113.5292851-.640474.4147671-.2431481.8025888-.192308 1.1865611.1259949.926249.7697845 1.2813512 1.4456255 1.2813512 2.6315247zm-9.0000367-15.715254c.005405.8169997-.587175 1.5536312-1.390057 1.7846323-.3297024.0946048-.6633358-.1547661-.599459-.4569504.0751781-.3586716.1660796-.7150469.2501022-1.0723408.11203-.4794534-.0147408-.8652206-.4820241-1.1347983-.1999834-.1143525-.3921051-.2452377-.5665379-.3912782-.185734-.1561438-.266317-.3646418-.1729586-.5947243.0894275-.2204384.40832-.3628048.6849556-.3228504.0771435.011022.1562524.0234216.2289737.0482209.8048474.275548 1.4234695.7572977 1.8445649 1.458108.1380721.2300825.1891735.4794534.2024402.6819812zm-68.9976974 39.4757266c.0288838-.6472842.4938661-1.1198923 1.0208775-1.5569604.2111834-.1754321.5431107-.1391358.8163233.048017.1188498.0809105.2287031.2105942.1084327.3111652-.7381948.6181715-.7940685 1.3312427-.5123328 2.1044297.0563471.1561497.0156257.3073843-.1993457.3705248-.2609015.0775077-.5450047.0869599-.7282513-.1013272-.3314537-.3402779-.5317465-.7281947-.5057037-1.1758491zm-.0016486-21.6821353c.0034825-.8815415.4763233-1.4683163 1.1689462-1.9057374.1942439-.1229508.4128651-.1008827.6187172.0122163.2170734.11901.2840141.3779161.1214992.5509141-.1269163.1351671-.2828532.2407787-.4151867.3712169-.414026.4094419-.7139046.8649904-.5993703 1.4998421.0328899.183244.0406287.3909205-.19347.4646122-.2074.0654161-.4171215-.0488651-.5320427-.2703341-.1180168-.2265921-.1764447-.4681589-.1690929-.7227301zm35.4610523-18.2225499c-.0552931.9743766-.1397407 1.9482446-.161858 2.9236383-.0819343 3.620348-.2704335 7.2345934-.5986735 10.8407021-.1432594 1.5790393-.3046147 3.1555358-.4649647 4.7330495-.0201066.1993505-.074897.3961583-.1221475.591949-.0070373.0315299-.0633357.0778077-.0879663.0727223-.067357-.0132223-.1613553-.0330556-.1895045-.0828932-.0588117-.101201-.0980196-.2217267-.1166182-.3386925-.2417816-1.4885179-.2809894-2.9872067-.221675-4.4919981.0512718-1.3003553.1115915-2.6012193.1161155-3.9020832.0120639-3.2547025.1166182-6.5063537.2447976-9.758005.0392079-.9753937.0819343-1.9507873.1176235-2.926181.0361919-.9753937.0753997-1.9507873.096009-2.9266895.0216145-1.016586.1357194-2.0494455-.0005027-3.0461982-.1337088-.9835304.0573037-1.9314625.0296572-2.8951596-.006032-.2029103.009048-.4073464-.0040213-.6097482-.0261386-.3997181-.2628936-.5777097-.7550022-.5838122-.3242186-.0035599-.4976379.1525641-.5418724.5161754-.0824369.6855218-.1704032 1.3710435-.2297177 2.0591079-.3111493 3.6040746-.5619789 7.212726-.8972562 10.8152748-.3473412 3.7291772-.8414604 7.4319099-1.5587627 11.1036211-.1392381.714509-.3905704 1.4066418-.6052082 2.1048772-.0301598.0996753-.142254.2476625-.2161457.247154-.2020712-.0015257-.2372577-.2029104-.244295-.3580173-.0427265-.9362355.0206093-1.866877.1593447-2.7939587.2297177-1.5281846.3981103-3.0629802.464462-4.6079468.0050267-.112389-.0095506-.258342-.1749273-.2664788-.074897-.0035598-.1668846.0050855-.224691.0467864-.6182774.4510814-1.2224802.9230132-1.8493029 1.3629066-.6740731.4734575-1.4155034.5436371-2.1850828.2695301-.3790091-.1352736-.7650554-.2619019-1.1214446-.4454874-2.2991876-1.1859323-4.7748106-1.9314626-7.13281-2.9714417-.9490306-.4180259-1.9498357-.4658293-2.9611968-.3137737-.8600591.1296796-1.4677805.6168679-1.8523189 1.4010477-.1598473.3264874-.1548207.6422952.1166182.8925005.2955667.2725813.6147587.5207524.937972.7607867 1.0686649.7948594 2.1574363 1.5622572 3.2110212 2.37695.7434409.5746584.9027855 1.4778383.4408368 2.2859199-.1583393.2776669-.3840357.5197354-.6001815.7587526-1.1048567 1.2220391-2.5650972 1.7768641-4.0866628 2.221843-.7489702.2186753-1.5024643.2644446-2.2680224.1530727-1.5517255-.2268121-3.1109909-.4215857-4.6059153-.9326757-1.2139349-.4149745-2.4077632-.2771582-3.5176465.2766497-1.9538571.9743766-3.5256892 2.4201765-4.6360752 4.3226518-.44636608.7658722-.76254208 1.6085351-.78114067 2.5376509-.01105862.5553336.21765375.9118253.66603057 1.2006801.3950943.2542737.8128085.3178421 1.263196.3203848 2.1820668.0142393 4.2952686.5136327 6.4275716.9092825 1.3199971.2441027 2.0388074 1.064898 2.4685856 2.2309969.5921388 1.6080265.4916059 3.178929-.311652 4.712199-.8962509 1.7112616-2.22228 2.9897494-3.8715224 3.9066601-1.8784574 1.0440476-3.3834351 2.4812022-4.5787714 4.249421-.8686043 1.2856075-1.45219787 2.7029288-1.66583031 4.2717971-.12667146.9286073.21664842 1.5688683.93948001 2.0799583.3287427.2329147.64894.2852951 1.0133718.1088291.548407-.2659702 1.0334783-.6265302 1.4919084-1.0247227.9178654-.796385 1.8945426-1.511911 2.8998717-2.1867533.9058016-.6082225 1.8643829-1.118804 2.9184704-1.425458 1.7844592-.5192267 3.2477157-.0447521 4.3827322 1.4463085.566503.7440046.8505084 1.5495435.5800749 2.5051038-.1548207.5456713-.2578669 1.1081245-.3533732 1.6685436-.2045844 1.2072912-.5313164 2.3764414-.9560679 3.5232155-.7741034 2.0941977-1.4939191 4.2087372-2.3027063 6.2886956-.3830304.9840389-.48859 1.9741805-.3573945 2.9907665.1673873 1.2998468.9404853 2.2121809 2.0066369 2.8900739.3126573.198842.6177747.119.8846896-.119508.0904796-.080859.1789485-.165278.2548509-.25936 1.2390681-1.5459832 2.6022944-2.9953429 3.6096341-4.722878.7605315-1.3039152 1.7377114-2.4410269 2.7329872-3.5593224.4564194-.5131242.9716506-.9672569 1.5336295-1.3705349 2.1780455-1.560223 4.0826415-1.2789963 6.1681967.0432266.6082241.3854788.9621.9484406 1.1370272 1.656847.2583696 1.0460817.2312257 2.0941976.1322008 3.1519759-.0759023.8090988-.1271741 1.6207402-.1849806 2.4318731-.0879662 1.237804.3428173 2.2925307 1.0395103 3.2948777.9163575 1.318663 2.1820668 1.873997 3.7121777 1.914681.953052.024918 1.6939796-.338693 2.1805589-1.236279.4287728-.791299.7796327-1.599381.9726559-2.4801849.391073-1.7865266.7972259-3.5694933 1.182267-5.357037.3181866-1.4778383.795718-2.9022792 1.4562192-4.2545064.7635474-1.5617487 2.294161-2.1165738 3.8534264-1.4005392.8022526.3686968 1.5773614.8070645 2.3343742 1.2652656.9274161.5609276 1.5743454 1.3649409 1.8990667 2.4313645.1533126.5024447.3749877.9855646.5936468 1.4651247.6474319 1.4234238 4.0645455 2.8931254 5.3086403 2.6368176 1.0038211-.2064702 1.9347559-.5583849 2.7591257-1.1620305.78667-.5756755 1.0008051-1.4422401.6469293-2.3738987-.2905401-.7648551-.7047357-1.4590221-1.1656791-2.1287789-.3443252-.5004105-.6881478-1.0028552-1.0003024-1.5241161-.3558866-.5950003-.6574853-1.2378041-.7027251-1.9314626-.071881-1.0943937-.0562984-2.1913302.0366945-3.2903008.1879966-2.2345567 2.5464986-4.0246431 4.1379346-4.2122971 1.4320913-.1683291 2.7943122-.0116965 4.1339133.5360089 3.7136857 1.517505 3.7433429 1.091851 6.5793763.9992954.4529007-.0147479.8696096-.129171 1.2702333-.3361498.3568918-.1840941.7193129-.3580173 1.0817341-.5304148.2960694-.140359.5624816-.3259788.7675687-.5797439.8379419-1.0374364 1.278276-2.2452362 1.4200274-3.5633907.0552931-.5151584-.1502967-.9387783-.5609736-1.2789964-.5413698-.4480301-1.1425566-.7526499-1.8161271-.919962-.942496-.2339317-1.897056-.343778-2.8692092-.3025856-.5624816.0239017-1.1269739.0417009-1.6879476.016782-.7575154-.0335641-1.3773008-.3478463-1.8769494-.9535261-.6735705-.8162184-1.0254357-1.7326205-1.0299597-2.7924331-.0065346-1.625317.8118033-2.9434716 1.5572548-4.2885791 1.3702636-1.4590221 2.8581506-2.7192022 4.8195477-3.3289504 1.6256172-.5049875 3.2803889-.8268979 4.9623045-.9611544 1.9664237-.1571411 3.792604-.6911157 5.461953-1.7499111.782146-.4968507 1.5668054-.9972612 2.3082356-1.5531034.5127178-.3849703.9751692-.8477483 1.422038-1.313069.5283004-.5502482.7841567-1.2332272.7122757-2.0052019-.1653767-1.7773727-.9068069-3.190117-2.5701239-3.9758226-.545391-.2573249-1.1093807-.4754917-1.6698516-.6992525-1.5487095-.6183935-2.9074118-.2603762-4.1203413.8324919-.6358707.5721157-1.12999 1.2672998-1.6427078 1.9446848-.6132507.8111329-1.2893346 1.5612401-2.0659513 2.211672-.7730981.6468722-1.6472317 1.0399792-2.6746781.8233381-1.3793115-.2903805-2.5580599-.9382697-3.4342042-2.087078-.5971655-.7826543-.696693-1.5881931-.2518349-2.5020526.6971957-1.4356289 1.5376509-2.7624288 2.6415022-3.9107285.5041725-.5248208 1.0153824-1.043539 1.5381535-1.549035 1.1737217-1.1366031 2.1604523-2.4074628 2.8249748-3.9183567.2282097-.5197353.4212329-1.0633723.7137837-1.5439495.2890321-.4749832.3810197-.9779364.4307835-1.5042828.1985525-2.0891122-.4277676-3.1097666-2.3559888-3.8537713-1.490903-.5751669-3.1145095-.0793333-4.0429309 1.2220391-.8997696 1.2617058-1.6351678 2.608339-2.141351 4.0810919-.1714086.4988848-.3694585.9891244-.5755509 1.4742785-.1432594.3361498-.3181867.6677226-.6047055.9016543-1.4516952 1.1823724-3.0456445 1.6171803-4.837141.881821-1.3315583-.5456712-1.8322122-1.5780222-1.3265317-2.9338092.2121244-.569573.4493821-1.1340604.7273556-1.6736291.5378511-1.0455732 1.116418-2.0692788 1.669349-3.1072238.1518047-.2847865.2915454-.5782182.4016289-.8808039.0593145-.1647693-.0462451-.3229275-.1960391-.4027694-.5021619-.2669873-1.1807591-.1973164-1.5773614.1820599-.2025738.1937565-.3930837.4165002-.5318191.6595858-.4076609.715526-.9736612 1.2896759-1.5406668 1.8668771-.3403039.3458121-.7052384.6758593-.9927625 1.0643894-1.0269437 1.3878255-2.5178467 1.9863856-4.0715829 2.4328901-1.3134624.3768336-2.6319515.1276454-3.9212861-.2324061-.5991762-.1668035-1.0847501-.51109-1.4552139-1.0272655-.163366-.2283377-.3583998-.4383677-.5649949-.6270387-.1045543-.0956069-.2387657-.0183077-.2674176.119-.0326732.1556155-.0437318.3214019-.0331758.4810857.1296874 2.0291036.2453003 4.0597329.4046449 6.0862938.1246608 1.5836162.1673873 3.1677409.169398 4.7544084 0 .3656455-.0261386.731291-.0517745 1.0964279-.0085453.1144231-.0266412.2786839-.1864885.2456283-.0965116-.0198333-.2055898-.1276453-.250327-.2242693-.3659398-.7801115-.5247818-1.6217572-.6408973-2.4654372-.5474017-3.9885362-.9419933-7.993346-1.2244908-12.0103609-.233739-3.3243735-.4649647-6.648747-.7017197-9.9731205-.0487585-.6870473-.2789789-.8436799-.945512-.6758593-.4126876.1042522-.5122152.2212181-.5358405.6789106-.0125666.2435942-.0035186.4882054.0025134.7323081.064341 2.6022364.1296874 5.2044727.1945311 7.8067091.0452399 1.7890693.1141049 3.5776301.1316982 5.3672079.0246305 2.5213774-.001508 5.0427548.0216145 7.5641321.012064 1.3415477.0588118 2.6805527.1920179 4.0200662.2287124 2.3047362.3769984 4.6181178.5494123 6.928448.0266413.3636113.0070373.731291-.0015079 1.0969365-.003016.119-.0271439.2441027-.0698704.354966-.0251332.0656026-.1010356.1444274-.1623607.1525641-.0608224.0081368-.1583393-.049329-.1935258-.1067949-.2101138-.3483549-.3403039-.726714-.4413395-1.1249065-.7348956-2.8905827-.9681319-5.8533791-1.182267-8.8105815-.15281-2.1069113-.2176538-4.2234851-.1890019-6.3410759.0542878-4.0276944-.2060925-8.0477606-.2925508-12.0724037-.0331758-1.5449666-.1161155-3.0884075-.1925205-4.63134-.0201066-.404295-.0980196-.8055388-.155826-1.2077997-.0331759-.2318976-.1874939-.3529318-.4061529-.3758165-.158842-.0162735-.3217054-.0137307-.4805474.0030513-.2739521.0289872-.4513927.1942651-.4604407.4698977-.0105559.3229275.0231226.6478892.0447372.9713253.0236252.3641198.0824369.7277311.0819343 1.091851-.0070373 3.2536854-.0527798 6.5068623-.2583696 9.7549537z" fill="#3e0f49"/></g></svg>