<svg width="70" height="81" viewBox="0 0 70 81" version="1.1" xmlns="http://www.w3.org/2000/svg" xmlns:xlink="http://www.w3.org/1999/xlink"><title>Group 3</title><desc>Created with Sketch.</desc><defs><polygon id="path-1" points="0 0 70 0 70 81 0 81"/></defs><g id="18.11.06_Dopper" stroke="none" stroke-width="1" fill="none" fill-rule="evenodd"><g id="18.11.28_Dopper_Mission" transform="translate(-999.000000, -1343.000000)"><g id="Group-3" transform="translate(999.000000, 1343.000000)"><mask id="mask-2" fill="#fff"><use xlink:href="#path-1"/></mask><path d="M68.019927,54.0320746 C67.7212705,54.8110683 67.3757757,55.5751482 67.0081209,56.3253087 C66.518586,57.3265169 65.9912783,58.3098286 65.4765616,59.2996029 C65.3662652,59.5108807 65.273596,59.7425406 65.1194832,59.9195168 C64.3514372,60.7989296 63.8377277,61.840902 63.1915618,62.7953805 C62.2986139,64.1147482 61.2802605,65.3520904 60.3011907,66.6132946 C60.110816,66.8583768 59.908354,67.1382578 59.5351592,67.1342808 C59.0929662,67.1303038 58.6457368,67.1372635 58.2428274,66.911072 C58.0559782,66.8056816 57.9733818,66.6282083 57.9144563,66.4318442 C57.6752288,65.6443994 57.1081339,65.0652497 56.6014754,64.4517984 C56.310877,64.0993373 55.9039385,63.8651918 55.4562055,63.8512724 C54.6423285,63.825919 53.8712607,63.5728828 53.0699747,63.4993084 C52.750669,63.4689838 52.4268306,63.4207628 52.1100431,63.4451219 C51.763541,63.4709723 51.4840227,63.4118145 51.2372407,63.1572869 C50.4832965,62.3817731 49.5389777,62.5463213 48.6445188,62.7481537 C48.1504512,62.8600066 47.6971782,63.1741892 47.2449124,63.4292139 C46.893374,63.6280636 46.5780974,63.8984992 46.3927591,64.2584171 C45.8448023,65.3217658 45.3064147,66.3885944 45.267131,67.6239481 C45.2439637,68.3378185 45.1079818,69.0546717 45.1457546,69.7640679 C45.2051837,70.8721578 45.3074219,71.9862132 45.508373,73.0774009 C45.653924,73.8663371 45.5672985,74.558334 45.2046801,75.2607705 C44.5685869,76.4931415 43.7335572,77.5306398 42.4679181,78.1808783 C42.3253889,78.2544526 42.1803416,78.3548717 42.0282433,78.3712768 C40.7082114,78.5144486 39.4667469,79.0414003 38.1255623,79.1065236 C37.2039071,79.1517619 36.2802374,79.2790257 35.3736913,79.4495393 C34.0793449,79.692633 32.8031295,79.4152377 31.5193595,79.4092722 C31.2655266,79.408278 31.0585319,79.2765401 30.8968645,79.0856443 C30.7679335,78.9335243 30.631448,78.7838899 30.5256843,78.6163591 C29.8649129,77.5699126 29.3773925,76.434978 28.8752667,75.3129686 C28.6169011,74.7353102 28.5831574,74.0905401 28.7891449,73.4567067 C29.2927816,73.4149483 29.6669837,73.6958235 30.0834912,73.8206016 C32.1227163,74.4320644 34.1297086,74.3788721 36.1100082,73.5884446 C36.2948429,73.5143731 36.4857212,73.4353304 36.6423522,73.3185062 C37.3806836,72.7652069 37.3051381,71.7694671 36.4791739,71.3643108 C36.1225991,71.1893231 35.7232152,71.0973551 35.3404513,70.9755597 C35.1878494,70.9273386 35.0231602,70.9134191 34.8740837,70.8592326 C34.81264,70.836862 34.7612691,70.7563279 34.7315545,70.6902104 C34.6882417,70.5937683 34.73508,70.5331191 34.8373182,70.5201939 C35.0765457,70.4898693 35.3147658,70.4515907 35.5539933,70.428723 C36.8498505,70.3069276 38.0626078,69.8759209 39.2657959,69.4255263 C39.7845417,69.2311508 39.9381509,68.9025516 39.8157672,68.3880281 C39.5966852,67.4678511 39.0537648,66.9369224 38.0495132,66.9006324 C36.5617703,66.846943 35.0750347,66.7639232 33.5877955,66.6968114 C33.3863408,66.6878632 33.1848861,66.6943258 33.0030733,66.5690505 C33.0383279,66.3100488 33.2760444,66.3329165 33.4382154,66.2971236 C34.1453214,66.1420208 34.8604855,66.0232081 35.5670878,65.8661169 C36.5864485,65.638434 37.6108456,65.4236763 38.6145936,65.1398184 C39.8474963,64.79034 40.0947819,64.0595674 39.4093323,62.9827963 C39.2038486,62.6591685 38.8845429,62.4901462 38.5380408,62.3807789 C38.3109007,62.3086959 38.063615,62.297262 37.8243876,62.2679317 C36.3013901,62.081013 34.7693273,62.1048749 33.2392789,62.1068634 C32.9240023,62.1078577 32.6082221,62.2112595 32.2939528,62.2738972 C31.6210941,62.409115 30.9452137,62.5050599 30.255735,62.4255201 C30.0975931,62.4071265 29.9384439,62.3942012 29.8216001,62.1844148 C30.5075533,61.7683218 31.2720739,61.532685 32.044149,61.3402979 C33.057466,61.0872616 34.0783377,60.8620644 35.1047493,60.6661974 C35.8370371,60.5260084 36.3311047,60.1009672 36.7204159,59.5173433 C37.1933308,58.8089413 36.8382669,58.0438671 35.9941718,57.9389739 C35.9140935,57.9290314 35.833008,57.9180947 35.7534334,57.9225688 C33.7061501,58.035416 31.6457723,57.8117101 29.6075545,58.1591999 C29.4499162,58.1860446 29.2867379,58.1979756 29.1265815,58.1939986 C28.0795207,58.167651 27.0359854,58.1696395 25.9919465,58.2899436 C25.4873025,58.3481071 25.3734806,58.2357571 25.1856241,57.7639862 C25.1710187,57.727199 25.1468441,57.6919032 25.1402968,57.6536246 C24.9030839,56.2114672 24.1919489,54.9761135 23.4581502,53.7342972 C22.709746,52.4686189 21.7845654,52.1469795 20.4529499,52.8036806 C18.791956,53.6224442 17.8697972,55.0044496 17.3575986,56.7031231 C17.2321931,57.1202103 17.1526185,57.5507199 17.0564239,57.9558761 C16.7814382,58.1562172 16.4903362,58.0866198 16.2173651,58.0647463 C12.9658864,57.803259 9.71289688,57.5497256 6.53142373,56.7841543 C4.88453166,56.3874492 3.34441057,55.6964465 1.8002604,55.0208547 C1.45526924,54.8697289 1.30820732,54.6251438 1.30720005,54.2791453 C1.30720005,54.0832784 1.31777642,53.8789603 1.37065828,53.6915445 C1.5232602,53.1511705 1.60484935,52.5993626 1.60082026,52.0420863 C1.59427298,51.2521559 1.96343869,50.6789717 2.58089731,50.2290742 C2.80753383,50.064029 3.02963763,49.8885441 3.2733978,49.751835 C3.83797456,49.4331783 4.40708405,49.3645752 4.97115717,49.7737084 C5.16556095,49.9143946 5.38212474,50.0237619 5.58357942,50.1554998 C8.50920512,52.064954 11.7012546,52.9210019 15.2121062,52.5670495 C15.6996265,52.5178342 16.1639796,52.3980272 16.6248072,52.2657922 C17.2190985,52.0952786 17.7126625,51.7502744 18.0662155,51.2392307 C18.5663267,50.5179034 19.0583798,49.7916049 19.5479147,49.0633179 C20.0762296,48.2778616 20.2721443,47.4019287 20.3043771,46.4683294 C20.3220043,45.9612627 20.2509916,45.4875033 19.840024,45.1753093 C18.6494268,44.2715375 18.4686212,43.0789365 18.5114303,41.6755548 C18.5653195,39.9381056 19.189829,38.4248594 19.9347077,36.9245385 C20.1835043,36.4244315 20.4856863,35.9466951 20.6231791,35.4048297 C20.9218357,34.2301252 21.5206597,33.1921298 22.1250238,32.1620884 C22.6528351,31.2617964 22.978688,30.2784847 23.4203774,29.343394 C23.5190902,29.1346018 23.5316812,28.883057 23.5644175,28.6489115 C23.5976576,28.4132746 23.5472939,28.1493016 23.6364376,27.9405094 C24.1642489,26.7081385 23.899336,25.4479286 23.8343668,24.1897071 C23.8086814,23.6896002 23.6812613,23.276987 23.3574229,22.8852532 C22.9635789,22.4090081 23.0194826,22.152492 23.5321848,21.8368182 C24.2528889,21.3923891 25.0325186,21.0642871 25.8428701,20.8206962 C29.2091779,19.8105398 32.6389439,19.1493646 36.1659119,19.0703218 C37.980515,19.0295576 39.7850453,19.2134936 41.5885684,19.3919612 C41.7079303,19.4038922 41.8267886,19.4302398 41.9451432,19.4541017 C43.5290807,19.7787238 43.4479952,19.9502317 42.9247166,21.1552608 C42.1138615,23.0234537 42.3520817,24.8921437 42.7716111,26.7727646 C42.8929875,27.3171157 43.1881186,27.8003204 43.4761988,28.2825309 C44.415985,29.8569233 44.8899071,31.5630537 44.8793307,33.3924709 C44.8768126,33.7484118 44.8506234,34.1113125 44.7745743,34.4578081 C44.650176,35.021547 44.7362979,35.5599325 44.8566671,36.1077634 C44.9206289,36.3995753 45.0576181,36.6212927 45.2968456,36.7893207 C45.4937675,36.9285155 45.6861568,37.0741729 45.8901296,37.2014367 C46.39427,37.5156192 46.7050138,37.9655166 46.8319303,38.5322383 C46.9895686,39.2361662 47.2751306,39.8849133 47.5914145,40.5336604 C47.8830201,41.1292152 48.1010948,41.7680199 48.2758568,42.4083159 C48.4088169,42.8945034 48.215924,43.0883818 47.7284037,43.0655141 C47.4096016,43.0506004 47.0782086,43.0297212 46.7780412,42.9337762 C46.090577,42.7120588 45.3880038,42.5017752 44.7488888,42.1771531 C43.8665173,41.7297413 42.9121257,41.604466 41.9703251,41.4135703 C41.6993685,41.3588866 41.4072592,41.38424 41.1267335,41.4006451 C40.4563931,41.4399179 40.0998183,41.8102754 40.1088837,42.4704564 C40.1179492,43.1465453 40.3244403,43.7754075 40.6784969,44.3863732 C39.4662433,44.7174579 38.2741352,44.8825032 37.0689325,44.9665171 C36.1004391,45.0336289 35.1541057,45.2106051 34.2279178,45.4969487 C33.6044155,45.69033 33.1994916,46.0959834 32.9950151,46.7064519 C32.817735,47.2358893 32.9567387,47.6435311 33.4261281,47.9378287 C33.7016174,48.1108279 34.0083322,48.191362 34.324616,48.267422 C35.5565114,48.5632109 36.809056,48.4558321 38.0545496,48.4911279 C38.4453717,48.5025618 38.848281,48.3718181 39.2990359,48.5885643 C39.0049121,48.8828618 38.65287,48.9320771 38.3139225,49.0051544 C37.5665256,49.1662226 36.814596,49.3183426 36.1251173,49.6593699 C35.8037971,49.8184496 35.4688787,49.983992 35.2064839,50.2191318 C34.5356398,50.8216463 34.76832,51.9615522 35.6169478,52.2886599 C35.9533772,52.4179122 36.3134774,52.4681218 36.6841541,52.4447569 C37.2064253,52.4119467 37.7302075,52.4029985 38.2539897,52.3910675 C38.3970225,52.3880848 38.5642299,52.3244529 38.6704973,52.5024233 C38.5410626,52.8563758 38.1517515,52.8315196 37.895904,52.9985533 C37.475871,53.2729659 37.3142036,53.6353695 37.3454291,54.1081346 C37.3791727,54.626138 37.5982547,55.0084266 38.1134751,55.2152303 C38.4584662,55.3539279 38.8089974,55.3966806 39.1731267,55.4150742 C40.4317149,55.478209 41.6610921,55.2679254 42.8894621,55.046208 C43.0460931,55.0178719 43.2012132,54.9532458 43.3588515,55.046208 C43.2717223,55.29825 43.0390422,55.3509452 42.8280184,55.4533528 C42.5056909,55.610444 42.172787,55.7735008 41.9023341,56.0011837 C41.4571192,56.3755182 41.3931574,56.8895447 41.5553284,57.4209705 C41.6585739,57.7600092 41.9421214,57.9325113 42.2840907,57.9543848 C42.6039,57.9747668 42.9282421,57.9499106 43.248555,57.9230659 C44.5721123,57.8122072 45.8946624,57.6963773 47.2172124,57.5755761 C48.7855371,57.4324043 50.3135709,57.0824289 51.8295174,56.6777697 C52.0979558,56.6061838 52.3004178,56.6355142 52.4353924,56.8935216 C52.6751235,57.3518702 52.9304673,57.8027619 53.1525711,58.2685673 C53.450724,58.8939495 53.8465825,59.4333293 54.4403702,59.8116409 C55.1343816,60.2545786 55.8460203,60.3117478 56.6165845,59.9727091 C57.9738854,59.37616 58.8225133,58.4172074 59.0068443,56.930806 C59.1020317,56.1607605 59.511992,55.5130077 59.8791431,54.8508382 C60.0035414,54.6266352 60.2060033,54.5132908 60.4563108,54.4630813 C61.7567008,54.2055709 63.0575944,53.9500491 64.3559699,53.6811049 C64.8268702,53.5836685 65.2942451,53.4623702 65.7565836,53.3296381 C66.5654242,53.0964868 67.3717466,52.8668154 68.2299435,52.9965648 C68.37348,53.4007268 68.1397926,53.7198806 68.019927,54.0320746 M57.7981162,68.8220175 C56.6543572,69.7536283 55.5418237,70.7304774 54.3401465,71.5845369 C52.9103218,72.6001617 51.4271117,73.5437034 49.8905161,74.4067111 C49.1642719,74.8148501 48.5342224,75.3900228 47.856831,75.8841643 C47.2479342,76.3285934 46.602272,76.699448 45.6166549,76.9524843 C45.8634369,76.4941357 45.9827988,76.2435851 46.1273425,76.0079482 C46.606301,75.2284575 46.7357357,74.3843405 46.6319865,73.4924996 C46.5317628,72.6265092 46.4063573,71.7620102 46.34995,70.8935342 C46.3111699,70.3034477 46.3549863,69.7064015 46.3932627,69.1143266 C46.4285173,68.5620215 46.5106101,68.0122021 46.5629883,67.4603943 C46.6224174,66.8225839 46.781063,66.2121153 47.0369104,65.6250116 C47.4096016,64.7694608 48.0950512,64.2449947 48.9467009,63.9203726 C49.5012049,63.7085977 50.0335489,63.6991523 50.4933692,64.1833513 C50.9008113,64.6118724 51.4210681,64.7803975 52.0229139,64.7217369 C52.7159181,64.6536309 53.3741713,64.8773368 54.045519,64.990184 C54.3225192,65.0364165 54.5995194,65.126396 54.8755123,65.1239104 C55.7563729,65.1169506 56.2549733,65.7239393 56.4403116,66.3756692 C56.6775245,67.2088494 57.1267685,67.7770624 57.790058,68.2602671 C58.0514455,68.4506657 58.0564818,68.6112368 57.7981162,68.8220175 M15.2866444,74.8640654 C15.2987317,74.6498049 15.4115463,74.4867481 15.5807683,74.3699239 C16.3316906,73.8514233 16.7829491,73.1047427 17.1929094,72.3257491 C17.4150132,71.9031935 17.6436643,71.4841178 17.8647608,71.0615622 C18.0299536,70.7443969 18.2858011,70.6121619 18.6474123,70.6275727 C20.6564191,70.7135752 22.6613969,70.7960978 24.5434873,71.6307694 C25.2012369,71.9230785 25.8952483,72.1348534 26.5691142,72.3928609 C26.8561871,72.5027253 27.0077818,72.7224542 27.0178545,73.0326597 C27.0238982,73.2310123 27.0485764,73.4293649 27.0450509,73.6272203 C27.0244018,74.7233792 27.2802493,75.742981 27.8453296,76.6954711 C28.2875227,77.4401631 28.5529392,78.2624066 28.9226086,79.0662565 C26.8123707,79.3849131 17.6607879,76.4016706 15.2866444,74.8640654 M14.1156891,73.9031243 C13.9515035,74.062204 13.7706979,74.078112 13.5828414,73.9289747 C13.0827302,73.5317725 12.5876553,73.1271133 12.0769676,72.7423392 C10.8984577,71.8529839 9.70987506,70.9760568 8.53136514,70.0871987 C8.34149409,69.9440269 8.1742867,69.7695363 8.01211568,69.5960399 C7.96628474,69.5473218 7.94412472,69.4394458 7.96678838,69.3782995 C7.98542293,69.32809 8.08413573,69.2793718 8.14910487,69.2773833 C8.26695586,69.2734063 8.39336868,69.2858344 8.50416875,69.3246101 C10.2684082,69.9460154 12.1338786,69.9698774 13.9595617,70.2249021 C14.7114913,70.3297953 15.4669464,70.4093352 16.309027,70.5117428 C15.8547467,71.9474375 15.0685697,72.9794674 14.1156891,73.9031243 M22.9640826,58.2959091 C21.5609507,58.2804982 20.1578188,58.2586248 18.7551905,58.2327743 C18.5209994,58.2287973 18.388543,58.0533125 18.4640885,57.8330864 C18.8624651,56.6648445 19.35754,55.5418409 20.1925697,54.6032703 C20.4010753,54.3691248 20.6539009,54.1568528 20.9233466,53.9947903 C21.3882033,53.7154065 21.7180853,53.5190424 22.0464565,54.2697 C22.0781856,54.341783 22.110922,54.417843 22.1602784,54.477995 C23.0340881,55.5309041 23.3554083,56.7771946 23.4793029,58.219352 C23.2738192,58.2511679 23.118699,58.2974005 22.9640826,58.2959091 M1.51066928,48.5542627 C1.68895668,47.5798992 1.85012043,46.5980789 2.10546425,45.642109 C2.3613117,44.6846477 2.7138574,43.7515455 3.04071763,42.8144664 C3.26332506,42.1761589 3.4914725,41.5448111 3.61989986,40.876179 C3.77099087,40.0946997 4.06813654,39.3584587 4.46097318,38.6555251 C4.88856075,37.8924394 5.26377011,37.1005205 5.67070858,36.3264981 C5.81877777,36.0446286 5.96936515,35.7592793 6.15973983,35.5062431 C7.14233507,34.2027833 8.079603,32.8784444 9.24703291,31.7037398 C11.9092566,29.0242403 14.8147368,26.6564376 17.9669991,24.5700072 C19.112269,23.812887 20.3547407,23.2580963 21.6440507,22.7952737 C21.9301164,22.692369 22.1366074,22.8012392 22.177402,23.0836057 C22.2448893,23.5499082 22.4191476,24.0097482 22.2660421,24.4939472 C22.2192039,24.6430844 22.1834457,24.8155865 22.212153,24.9642267 C22.4216658,26.0549172 22.0565292,27.0809816 21.8706873,28.126931 C21.6329707,29.4627038 21.191785,30.7323591 20.58591,31.9503135 C20.0727042,32.9828405 19.5736002,34.0228244 19.0926271,35.069768 C18.4797012,36.4060379 17.845119,37.7338567 17.412495,39.1446953 C17.2120476,39.795928 17.0488693,40.4426867 17.071533,41.1297123 C17.0831166,41.4861504 17.0952039,41.8540224 17.0231838,42.1995237 C16.8207219,43.1733901 17.1501003,43.9961307 17.686977,44.7746272 C17.777128,44.9063651 17.8501553,45.0609708 17.9700209,45.1589042 C18.9183688,45.9334238 18.8438306,46.8163164 18.3492593,47.8100677 C17.8647608,48.7849284 17.2246385,49.6414734 16.5150144,50.45626 C16.1851323,50.8345715 15.7333702,51.0229816 15.2508862,51.0995388 C14.4571548,51.2253112 13.662416,51.3664945 12.85005,51.3575462 C10.6144066,51.3137993 8.59784518,50.5994318 6.74698024,49.38794 C6.27809446,49.0817115 5.83942688,48.7222907 5.29701013,48.5438231 C4.14217114,48.1620317 3.01503216,48.0725493 1.95437323,48.8366293 C1.71514579,49.0091314 1.45778743,48.8440861 1.51066928,48.5542627 M43.999981,23.3450931 C44.2447485,22.5487 44.5177196,21.7572783 44.931709,21.0260085 C45.1331636,20.6700676 45.2676346,20.631789 45.7375277,20.7416535 C46.4456409,20.9071958 47.1190032,21.1691803 47.7606364,21.5037449 C49.6084795,22.4671717 51.5157518,23.320734 53.2754585,24.4497031 C53.9130626,24.8593335 54.6116067,25.1804757 55.2950417,25.5170288 C58.4901131,27.0884385 61.0843458,29.3602962 63.26056,32.1277868 C63.4715838,32.396731 63.5229548,32.6234197 63.4156802,32.9873146 C63.015289,34.3434695 62.4325813,35.5668922 61.3759514,36.5616378 C60.7378437,37.1621639 60.184347,37.8506809 59.5910629,38.4979367 C59.2093063,38.9145268 58.8945333,39.3733724 58.7046623,39.9043011 C58.4911203,40.5023416 58.2272147,41.0934223 58.104831,41.7103534 C57.9668345,42.4053331 57.6107633,42.7627654 56.9122192,42.8179462 C56.8331482,42.824906 56.7555882,42.8577162 56.6760136,42.8636817 C54.6725467,43.0013851 52.6821744,43.3468864 50.6625912,43.2385133 C50.0577235,43.2062003 50.0305271,43.2017261 49.8990779,42.5659042 C49.7137396,41.672572 49.4986867,40.8006161 49.0373555,39.9883151 C48.7865444,39.5463717 48.6545916,39.0263797 48.5352297,38.5267699 C48.3312568,37.6697277 47.9107201,36.9797193 47.1169887,36.5541809 C46.6737884,36.3165556 46.4819028,35.981991 46.5307555,35.4873524 C46.5695356,35.0926357 46.5735647,34.6949363 46.5927029,34.2987283 C46.7095466,32.4414722 46.3801682,30.6667387 45.5627658,28.9859617 C45.4756366,28.806997 45.4056311,28.6161013 45.2938238,28.4535416 C44.4069195,27.158533 44.1500648,25.6766057 43.9803392,24.1703193 C43.9496174,23.8978952 43.9214137,23.5991235 43.999981,23.3450931 M65.0409158,34.2604498 C65.7434891,35.1473194 66.2164039,36.1490247 66.5624024,37.2163504 C66.6470133,37.4778378 66.5820442,37.6940868 66.3936841,37.8650975 C65.8870255,38.3259317 65.4916707,38.8782367 65.0771777,39.4141366 C64.628941,39.9942806 64.0573133,40.4093793 63.4000674,40.7384756 C62.3560285,41.2609531 61.2908368,41.7202959 60.149596,41.99272 C59.9546886,42.0394497 59.757263,42.0722599 59.6802066,42.0881679 C59.3387409,42.1095442 59.1982263,41.9360478 59.258159,41.7093592 C59.5059483,40.7732743 59.9073468,39.9306487 60.6245255,39.2341777 C61.4842333,38.4000032 62.3212776,37.538984 63.1265927,36.6536058 C63.7420367,35.978014 64.3363281,35.2750803 64.5750519,34.3544062 C64.6349847,34.1242377 64.9039267,34.0869534 65.0409158,34.2604498 M57.290954,54.9691538 C57.5175905,54.91795 57.7663871,54.8642605 58.0151836,55.0720585 C57.7774671,55.758587 57.5614069,56.4699718 57.3675068,57.1888134 C57.1267685,58.0796601 56.3259861,58.4375895 55.5307437,58.7443152 C55.323749,58.8243522 55.1404252,58.7338755 55.0094797,58.5588878 C54.9384669,58.4639371 54.864936,58.3679921 54.8130614,58.2626018 C54.6211758,57.8723593 54.4534648,57.4686944 54.2464701,57.086903 C54.0626427,56.7463729 53.837517,56.4277162 53.5902314,56.034491 C54.8306887,55.550292 56.0570441,55.2455548 57.290954,54.9691538 M69.6814246,51.6190336 C69.533859,51.3983104 69.3515425,51.2829776 69.0770605,51.3426325 C68.6469547,51.4350976 68.2314545,51.5732981 67.7711305,51.5141404 C67.0358209,51.4186925 66.3256931,51.5897032 65.6452799,51.8521848 C65.0399086,52.0858332 64.4123772,52.2026574 63.7782986,52.3239557 C61.8428227,52.6943133 59.9073468,53.0547284 57.9607909,53.3728879 C55.8178166,53.7228633 53.7186588,54.3025102 51.7056228,55.1451357 C51.3374644,55.2997414 50.9501677,55.4200454 50.5608566,55.5135048 C48.6017097,55.9837843 46.611841,56.2736077 44.6068633,56.4659948 C44.4532541,56.4804114 44.280003,56.5142159 44.1908593,56.2755962 C44.4275686,56.09862 44.6899633,55.9310891 44.9171035,55.7257768 C45.2021619,55.4692607 45.2897947,55.1565696 45.2137455,54.7573788 C45.1165436,54.2468323 44.8113398,53.989819 44.3399358,53.8983482 C43.541168,53.7427483 42.7363565,53.7750614 41.937085,53.9092849 C41.4243828,53.9947903 40.9162134,54.0668733 40.334513,53.9420951 C40.5823023,53.6204557 40.9041261,53.5677606 41.19825,53.4792724 C42.0564469,53.2197736 42.8154275,52.7778302 43.5416716,52.2702663 C43.7960082,52.092793 43.9329973,51.8710756 43.8463718,51.5593787 C43.7396008,51.1731131 43.4540388,50.9300194 43.0793331,50.9185855 C42.8793893,50.9131172 42.671891,50.9146085 42.4784945,50.9588526 C41.3236555,51.2198428 40.1532038,51.1263835 38.9877884,51.1209151 C38.4358026,51.1184295 37.8812985,51.0751797 37.3514727,50.848491 C37.4970237,50.6034088 37.7156021,50.6049002 37.9029549,50.5541935 C38.7168319,50.3314818 39.5362488,50.1276609 40.3471039,49.8930183 C40.6925987,49.7930963 41.0471589,49.6777635 41.3513555,49.4948217 C42.1748016,48.9991889 42.1969616,47.7285394 41.3030064,47.3512221 C40.9655698,47.2080503 40.6472714,47.050959 40.2740766,47.0618958 C39.6304289,47.0807865 38.9842629,47.0792951 38.3431334,47.1339788 C37.2149872,47.230918 36.0938918,47.1692746 34.9727965,47.0584159 C34.8650182,47.0474792 34.7234963,47.0380338 34.7290363,46.8764684 C34.7340727,46.7437363 34.8297637,46.6661849 34.9501328,46.6328776 C35.2603731,46.5463779 35.5680951,46.4235883 35.8843789,46.3962464 C37.4849364,46.2550631 39.0698812,45.9214928 40.6915914,46.0333457 C41.2969628,46.0756013 41.9028377,46.0005355 42.4709399,45.7758354 C42.9957294,45.5690317 43.1624332,45.1603956 43.014364,44.6249928 C42.9247166,44.3028563 42.7524729,44.0716935 42.4800054,43.8658841 C42.0957306,43.5755636 41.6671357,43.3041337 41.4198501,42.7940843 C42.0498997,42.6797457 42.55404,42.7791705 43.0400494,42.9944253 C43.4072006,43.156985 43.7688118,43.3319727 44.1334448,43.4995035 C45.4192293,44.0925728 46.7488302,44.5598695 48.1811731,44.5867142 C50.592082,44.6309583 53.0090346,44.7467882 55.4003018,44.2899311 C55.5186564,44.2670634 55.6415438,44.2451899 55.760402,44.2531439 C57.7391907,44.3873674 59.5694065,43.7242037 61.4268188,43.2181312 C61.8136118,43.113238 62.1963757,42.9715576 62.554965,42.7965699 C64.151997,42.0180733 65.6956436,41.1799219 66.5744897,39.5244982 C66.7744334,39.1481752 67.0856809,38.7808004 67.4372194,38.5416836 C68.0017961,38.1574066 68.0400725,37.6876242 67.9730888,37.0915722 C67.8406324,35.9109022 67.3747684,34.8758896 66.7145007,33.9045088 C65.5198744,32.1476718 64.0074533,30.6533164 62.6128832,29.0620217 C60.9780784,27.1978058 58.8502133,25.969909 56.7223482,24.7673655 C54.8387468,23.7020283 52.9158619,22.7003229 50.9768605,21.7359019 C49.6487705,21.075721 48.383635,20.2902647 46.9784886,19.7787238 C46.1484953,19.4759752 45.3401583,19.1145659 44.5303105,18.7611105 C43.6041226,18.3569486 42.6593001,18.0258638 41.6464866,17.9199764 C40.2856602,17.7782959 38.9268484,17.5913772 37.5624965,17.5173057 C33.9881867,17.322433 30.5035242,17.926439 27.0531091,18.7755272 C25.5608335,19.142902 24.1415852,19.6892415 22.8014079,20.4379106 C22.451884,20.6327833 22.087251,20.8052854 21.7206035,20.967845 C19.6249711,21.8969702 17.5499879,22.8683509 15.7102029,24.2458822 C14.3634783,25.2545472 13.0434465,26.2995024 11.7385238,27.3608626 C9.46258943,29.2106618 7.3800516,31.2429057 5.69236496,33.6514726 C4.65688786,35.1294229 3.87725822,36.7391112 3.05784128,38.3309029 C2.89516662,38.6460797 2.78839564,38.9980437 2.71033195,39.3445392 C2.49225725,40.3189027 2.15431701,41.2539934 1.79874949,42.1831186 C1.25683638,43.597437 0.844861541,45.0495369 0.459075815,46.5100879 C0.243519299,47.3263659 0.117106483,48.1416496 0.251577487,48.9857665 C0.282299327,49.1781536 0.339713913,49.4421266 0.244022936,49.5664076 C-0.150828251,50.0779485 0.0979682877,50.6501385 0.0486118893,51.1835528 C-0.068735466,52.4497282 0.0460937057,53.7193834 0.184090167,54.9840675 C0.226899288,55.3812697 0.410223053,55.6656248 0.754710568,55.8341499 C1.47591835,56.1871081 2.1830243,56.5902759 2.94049393,56.842815 C4.72638973,57.4388669 6.46393641,58.191513 8.3676832,58.4211844 C10.2044463,58.6429018 12.0255967,58.9948658 13.8638707,59.2006752 C15.2619662,59.3572693 16.6751709,59.3836169 18.0717555,59.5814724 C18.3477484,59.620248 18.6383468,59.6182595 18.9148434,59.5814724 C19.7201585,59.4745906 20.5214445,59.5277829 21.3267596,59.5745126 C23.0950281,59.6774173 24.8643039,59.7460205 26.6371052,59.660018 C27.4404057,59.6212423 28.2467281,59.6351618 29.0515396,59.6207452 C29.4942363,59.6127912 29.9374366,59.6078199 30.3786223,59.5784896 C31.3818667,59.5113778 32.3841038,59.4288552 33.3873481,59.3572693 C33.4890827,59.3498125 33.5334027,59.4084731 33.5187973,59.4785676 C33.4367045,59.6580295 33.2740298,59.6918339 33.1184061,59.7171873 C31.8391688,59.9239909 30.6656953,60.4822615 29.4176835,60.7944555 C29.1487415,60.8610701 28.8913831,60.9972822 28.6481266,61.1344884 C27.8554024,61.5833916 27.6892023,62.1401708 28.1157826,62.9286098 C28.3721337,63.4023692 28.7448248,63.7319625 29.3078907,63.8487867 C30.3076096,64.0565847 31.3335176,64.1584951 32.2989891,63.8666832 C33.9811358,63.3581251 35.6295388,63.6981581 37.3202472,63.7911203 C37.1918199,64.1197194 36.9228779,64.1445756 36.7083286,64.1942881 C36.1215918,64.3314944 35.5267969,64.4403646 34.9309946,64.5328297 C33.4981482,64.7555413 32.0738635,65.0105661 30.6772789,65.4072712 C30.3660314,65.4957593 30.0557912,65.5678423 29.7858419,65.7512812 C29.1950761,66.1534547 29.2157252,66.9056036 29.8372129,67.2918691 C30.0054275,67.3967624 30.1947949,67.4782907 30.384666,67.5384428 C30.7291535,67.647313 31.0786774,67.7417666 31.4312231,67.8247863 C32.8504714,68.1588538 34.2974196,68.2204972 35.7494043,68.2453534 C36.5073776,68.2582786 37.2693799,68.2065777 38.013755,68.5257315 C37.7911476,68.5978145 37.5740801,68.7012163 37.3459327,68.7365122 C36.1125264,68.9284021 34.8755946,69.0929502 33.6220428,69.0591458 C33.0181824,69.0417464 32.4148256,69.0153988 31.8109652,69.0059535 C31.3637358,68.9994909 30.9260755,69.048209 30.5438152,69.3166561 C30.3408496,69.4593308 30.1801895,69.6248731 30.1232785,69.8744295 C29.9762166,70.5201939 30.2365968,71.0784644 30.8550627,71.3379632 C31.185952,71.4766609 31.5390013,71.5755886 31.891547,71.6501573 C32.795575,71.8430415 33.7056465,72.0100752 34.6111853,72.1969939 C34.6640672,72.2079306 34.7300436,72.3058641 34.7320581,72.3650219 C34.7340727,72.4226883 34.6691035,72.5265873 34.6202508,72.5355355 C32.9753733,72.8283417 31.3451012,72.9426803 29.7747619,72.1855601 C28.9785123,71.801283 28.1626208,71.4532961 27.3054311,71.2271045 C26.3278722,70.9690971 25.3911079,70.6116647 24.4875836,70.1707156 C24.0131579,69.9385585 23.5221121,69.7889241 23.0043735,69.6850252 C20.9852939,69.2793718 18.9380106,69.1287432 16.8872019,69.0606371 C15.798843,69.0243471 14.7170313,68.9627037 13.6377378,68.8274859 C12.9593392,68.7424776 12.2799332,68.663932 11.6005273,68.5898605 C10.7579431,68.4978925 9.93500067,68.3343386 9.11860555,68.0982046 C8.38782867,67.887424 7.63237359,67.7457436 6.87893306,67.6299136 C6.31989631,67.5444082 6.16175438,67.7482292 6.20103804,68.3015285 C6.22722715,68.6684061 6.3430636,68.9940225 6.52890554,69.3087021 C7.00081315,70.1105635 7.6228045,70.7786985 8.34904864,71.3588425 C8.69252889,71.6337522 9.06119096,71.8857941 9.36941664,72.1955025 C10.5610211,73.3920806 11.9430003,74.3574958 13.2897249,75.3646695 C13.7042179,75.674875 14.1660527,75.9323854 14.6283912,76.171005 C17.4910624,77.6519381 20.5325245,78.6973903 23.5785194,79.7304145 C23.8439359,79.820394 24.1219434,79.8780604 24.396929,79.9377153 C25.3407442,80.1420333 26.2885886,80.3294492 27.2298856,80.5452011 C28.1349208,80.7520048 29.049525,80.8723088 29.975713,80.9344494 C31.5410159,81.0388454 33.1093406,80.7917747 34.6766581,80.989133 C35.0619402,81.0373541 35.4764332,80.9140673 35.8697735,80.8355216 C37.7211421,80.4651641 39.5780506,80.1171771 41.3674719,79.496269 C41.5925975,79.4177233 41.8499559,79.3371892 42.0745779,79.3714908 C42.7942747,79.4788696 43.4132442,79.172144 44.0578992,78.9708086 C44.3641104,78.8753608 44.6496724,78.6968932 44.9599126,78.6372383 C46.4929828,78.3409523 47.8205692,77.6131624 49.1123974,76.7924103 C49.7212941,76.4061448 50.3412709,76.034793 50.9773641,75.6942629 C52.2883305,74.9918263 53.5413787,74.2053758 54.728954,73.3155234 C55.754862,72.5464722 56.7792591,71.7754326 57.8162471,71.0212951 C58.1692965,70.7637848 58.5701913,70.5718948 58.9292843,70.3213442 C60.2931325,69.3703455 61.400126,68.1712819 62.3776849,66.8434631 C63.3466819,65.5275753 64.4320191,64.2912273 65.1275414,62.7919006 C65.2594942,62.5080427 65.4695107,62.2525208 65.6729799,62.00893 C66.293964,61.2667235 66.7885353,60.4559139 67.1446064,59.5581075 C67.2911647,59.1892413 67.4694521,58.8288263 67.6693959,58.4853134 C68.6585384,56.7841543 69.2331879,54.91795 69.9020175,53.089527 C70.0974285,52.5556156 69.988643,52.076885 69.6814246,51.6190336 M31.5153304,5.3864803 C31.5858396,4.30672647 31.8114688,3.26375984 32.1363145,2.23769543 C32.1640145,2.15119581 32.2999964,2.0791128 32.4012274,2.04232561 C32.4440365,2.02741188 32.5427493,2.1099345 32.5900912,2.16859516 C33.002066,2.67367338 33.2186298,3.27370232 33.4130336,3.88118813 C33.4976445,4.14565822 33.5580809,4.4180823 33.6321155,4.68603226 C33.7177338,4.99723202 33.8008338,5.33179663 34.1911523,5.38200618 C34.5875144,5.43271285 35.1007202,5.12847282 35.2477821,4.75065841 C35.4361423,4.26695653 35.6295388,3.78872302 35.9312172,3.36069906 C36.2067064,2.9694623 36.4670866,2.55983193 36.9158269,2.33314328 C37.015547,2.28243661 37.1505217,2.24714079 37.2557817,2.26901426 C37.4547182,2.31027557 37.4486746,2.4996799 37.4391055,2.64931429 C37.3006054,4.76109802 36.6438631,6.70485375 35.3313858,8.37966528 C34.6358635,9.26603778 34.0239449,10.1847234 33.5142646,11.1819546 C33.3551153,11.4936514 33.2166152,11.8346787 32.873135,12.072304 C32.318631,11.3032529 32.0794035,10.4079321 31.8940652,9.53001074 C31.6064887,8.17137023 31.4226613,6.79085624 31.5153304,5.3864803 M31.6815305,13.0968771 C31.8991016,13.4995477 32.1846636,13.8092561 32.6731912,13.8868075 C32.9350823,13.9280688 33.1516461,13.9315487 33.2357534,13.620846 C33.3928881,13.0372222 33.7116901,12.5236928 34.0274704,12.0220945 C34.9838765,10.5038771 35.9558954,8.99510507 36.796465,7.41126728 C37.4124128,6.25147645 38.0011641,5.07726903 38.5858863,3.90157022 C38.8361938,3.39897763 38.9777157,2.85412947 39.0190139,2.29784746 C39.0955667,1.25537795 38.1804587,0.586745866 37.1933308,0.952132174 C36.4670866,1.22008213 35.821928,1.61281027 35.3107367,2.20339386 C35.1062602,2.43952787 34.9707819,2.75520175 34.5779453,2.84766686 C34.4731889,2.69902671 34.346776,2.54790095 34.2515887,2.37887871 C33.9186848,1.78879225 33.6129773,1.18279782 33.2659716,0.601659593 C32.801115,-0.178825446 31.9081671,-0.202687409 31.4483467,0.545981679 C31.3249557,0.746819868 31.2373229,0.976491262 31.1698356,1.20417416 C30.9331264,2.00454417 30.675768,2.80143431 30.4929479,3.61423242 C30.0351421,5.65492738 29.935422,7.71003894 30.4078333,9.76266488 C30.6767753,10.9284212 31.1104065,12.039991 31.6815305,13.0968771 M30.5770552,40.647999 C30.2577495,41.1013763 29.953553,41.5656903 29.6528818,42.0314957 C29.4020707,42.4192526 29.0601014,42.6638377 28.6007847,42.7498402 C28.0543389,42.8522478 27.7813678,42.7513316 27.5154476,42.256693 C27.0853418,41.4538373 26.6834397,40.6365651 26.1450521,39.8943586 C25.989932,39.6800981 26.0236756,39.4633519 26.1380012,39.2277151 C26.5076705,38.4661207 27.1714637,38.0927804 27.9037515,37.7164574 C28.8757704,37.2158533 29.5813654,37.5419668 30.2768877,38.1713261 C30.7180735,38.5700197 30.9396736,39.0557101 30.8590918,39.6080151 C30.93363,40.0320621 30.7911008,40.3447532 30.5770552,40.647999 M32.5014511,39.027374 C32.5185748,38.2891445 32.1091181,37.8437212 31.4866231,37.5499208 C31.1995502,37.4142059 30.8872954,37.3311861 30.5871279,37.2223159 C30.3559587,37.1378048 30.1993277,36.9941359 30.0618348,36.7734127 C29.5803581,36.0028702 29.3552325,35.9307872 28.4869628,36.2037084 C27.9133206,36.3836673 27.3588166,36.6372007 26.774598,36.7694357 C26.1767812,36.9056478 25.7557409,37.2252987 25.4475152,37.7144689 C25.1931787,38.1186309 24.9685567,38.5411865 24.7368838,38.9587708 C24.5918364,39.2212524 24.6089601,39.4936765 24.7253002,39.7621236 C25.1357641,40.7106366 25.5401844,41.6621324 25.9652538,42.6051771 C26.0609448,42.8174491 26.1883648,43.0550745 26.371185,43.185321 C27.128151,43.7251979 27.9344733,44.1671414 28.9195868,44.1368168 C29.8729711,44.121406 30.6379953,43.7565168 31.1018447,42.9064343 C31.5022359,42.172679 31.886007,41.4314668 32.3881328,40.7558749 C32.6107403,40.456109 32.666644,40.1051393 32.5941203,39.7337875 C32.5482893,39.5011334 32.4959111,39.2625137 32.5014511,39.027374" id="Fill-1" fill="#FFF" mask="url(#mask-2)"/></g></g></g></svg>