<?xml version="1.0" encoding="UTF-8"?>
<svg xmlns="http://www.w3.org/2000/svg" width="53" height="81" viewBox="0 0 53 81" fill="none">
  <path fill-rule="evenodd" clip-rule="evenodd" d="M3.38277 38.3996C3.32803 50.6029 13.2267 60.0533 24.6804 60.3863C37.2986 60.7539 47.9768 50.3482 47.3142 37.3383C47.0174 31.5016 44.7392 26.5275 40.5096 22.5249C35.9555 18.2151 30.4876 16.2319 24.2039 16.4941C13.286 16.9493 3.34935 26.1519 3.38277 38.3996ZM50.7009 38.4405C50.6318 53.391 38.3507 63.9384 25.0993 63.739C10.453 63.5189 -0.566313 51.432 0.0225349 37.3676C0.60735 23.4076 12.1953 12.7288 25.9451 13.0918C40.619 13.4801 50.83 25.5192 50.7009 38.4405ZM25.3626 77.3695L50.146 77.3701C50.641 77.3701 50.6404 77.3701 50.6404 77.8656V80.1715C50.6404 80.6169 50.6404 80.618 50.1835 80.618H0.58315C0.0962849 80.618 0.0968611 80.618 0.0968611 80.1427C0.0968611 79.3176 0.103199 78.4925 0.0922517 77.6674C0.0893708 77.4502 0.149869 77.3482 0.376881 77.369C0.488658 77.3788 0.60274 77.3701 0.71567 77.3701L25.3626 77.3695ZM8.80513 3.27669C8.1892 3.27669 7.60554 3.28649 7.02245 3.26517C6.94179 3.26287 6.82943 3.1217 6.79371 3.0226C6.50562 2.22576 5.91562 1.79939 5.10725 1.70086C4.16982 1.5862 3.37874 1.93191 2.93278 2.76332C2.2529 4.03148 2.20738 5.36186 2.89591 6.65364C3.30441 7.42052 3.98602 7.79619 4.86584 7.79619C5.68803 7.79619 6.29935 7.44818 6.66119 6.70261C6.75914 6.50211 6.8398 6.28546 6.88013 6.06767C6.91874 5.86371 6.99018 5.77382 7.2074 5.77959C7.6476 5.79226 8.08837 5.79053 8.52856 5.78074C8.78784 5.77498 8.8541 5.87811 8.8276 6.1322C8.65302 7.79734 7.42692 9.10986 5.76985 9.38758C4.23262 9.6457 2.84463 9.34436 1.71533 8.22601C0.960543 7.47814 0.582574 6.53264 0.477711 5.47652C0.350377 4.19626 0.508248 2.96844 1.22789 1.87487C2.15207 0.470736 3.51587 -0.0656803 5.15047 0.00634119C6.22906 0.0535873 7.17686 0.417728 7.9184 1.22955C8.43465 1.7942 8.70948 2.46775 8.80513 3.27669ZM48.9407 6.04347C48.8618 5.63612 48.8197 5.26564 48.716 4.91302C48.5621 4.38871 48.2072 4.01707 47.6604 3.93353C47.0364 3.83846 46.4482 3.96061 46.1186 4.57827C45.6473 5.46154 45.6531 6.38168 46.0771 7.27245C46.3318 7.80656 46.7973 8.10213 47.4156 8.07909C48.0033 8.05777 48.4331 7.75874 48.6445 7.2252C48.7949 6.84493 48.8485 6.42605 48.9407 6.04347ZM48.8629 8.56077C47.8834 9.78974 45.8322 9.56907 44.9928 8.72786C44.4258 8.15975 44.136 7.46892 44.015 6.69512C43.8387 5.57159 43.9971 4.51546 44.6816 3.57457C45.5828 2.33638 47.5175 2.17563 48.5477 3.17125C48.5933 3.21504 48.6589 3.23694 48.7696 3.30032C48.7857 3.14475 48.8076 3.03067 48.8082 2.91601C48.8105 2.13587 48.8168 1.35574 48.8041 0.575599C48.8001 0.322083 48.894 0.232201 49.14 0.237962C49.5353 0.246029 49.9311 0.241419 50.3264 0.228744C50.5471 0.22183 50.656 0.281751 50.6548 0.53181C50.649 3.33604 50.6502 6.13969 50.6542 8.94392C50.6542 9.18015 50.5597 9.26658 50.3293 9.25851C49.9902 9.24615 49.6508 9.24615 49.3117 9.25851C49.034 9.27004 48.8739 9.19283 48.9136 8.87651C48.924 8.79585 48.8883 8.70942 48.8629 8.56077ZM12.6972 5.30482C13.0688 5.30482 13.441 5.29618 13.8126 5.3077C14.1053 5.31692 14.1774 5.18555 14.088 4.93146C13.8806 4.34204 13.619 3.84883 12.5658 3.91797C11.9885 3.956 11.4325 4.42212 11.3293 4.98274C11.289 5.20457 11.3547 5.30597 11.5811 5.3054C11.9533 5.30309 12.325 5.30424 12.6972 5.3054M13.668 6.44276C12.9904 6.44276 12.3129 6.44622 11.6347 6.44103C11.3881 6.43873 11.2688 6.48309 11.3167 6.79019C11.4181 7.44242 11.7488 7.87916 12.3901 8.02954C13.0642 8.18741 13.6824 8.04682 14.1267 7.48448C14.2984 7.26669 14.4706 7.19927 14.7259 7.21483C14.9955 7.23096 15.2675 7.21483 15.5383 7.21944C15.8511 7.2252 15.8897 7.30068 15.7682 7.59107C15.3055 8.69386 14.4775 9.29654 13.2906 9.40083C12.4068 9.47861 11.5575 9.38239 10.801 8.86268C9.99031 8.30552 9.59563 7.49427 9.48904 6.55511C9.33002 5.15271 9.68725 3.92085 10.9122 3.08598C12.3296 2.11974 14.6804 2.31161 15.5942 4.1905C15.8943 4.80874 16.0263 5.46845 16.0142 6.15755C16.0102 6.37304 15.9191 6.45025 15.7008 6.44679C15.0232 6.43642 14.3456 6.44334 13.668 6.44276ZM40.1316 5.30424C40.4934 5.30424 40.8547 5.30712 41.216 5.30367C41.5582 5.30021 41.6337 5.21494 41.5184 4.89689C41.3127 4.33051 41.0667 3.85748 39.9973 3.91682C39.4212 3.94909 38.9401 4.35068 38.7724 4.95278C38.6952 5.23107 38.807 5.30482 39.0478 5.30482H40.1322M41.0817 6.44276C40.4151 6.44276 39.7484 6.4393 39.0818 6.44391C38.728 6.44622 38.6969 6.51305 38.7592 6.84781C38.8802 7.4937 39.2282 7.92006 39.8827 8.04221C40.577 8.17128 41.175 7.99727 41.6366 7.4234C41.7195 7.31969 41.8837 7.23903 42.0174 7.22751C42.3314 7.1987 42.6495 7.21598 42.9658 7.21886C43.2948 7.22174 43.3224 7.27302 43.2066 7.57033C42.7267 8.79757 41.7835 9.3507 40.513 9.41926C39.7329 9.46075 38.985 9.34897 38.3103 8.91223C37.529 8.40751 37.1096 7.66424 36.9592 6.77636C36.7823 5.73119 36.8924 4.71597 37.5573 3.84307C38.3887 2.7518 39.5203 2.37959 40.8518 2.58241C42.7987 2.87856 43.5247 4.78166 43.4406 6.21402C43.4285 6.41741 43.3196 6.44679 43.149 6.44506C42.4599 6.4393 41.7708 6.44276 41.0817 6.44276ZM31.2344 9.25563C30.3655 9.25563 30.3655 9.25563 30.3655 8.37927C30.3655 7.01144 30.3574 5.64361 30.3724 4.27635C30.3753 3.98539 30.2779 3.91336 30.0036 3.91567C29.2834 3.92373 29.2834 3.91221 29.2834 3.2041C29.2834 2.689 29.2834 2.689 29.8152 2.68957C29.8942 2.68957 29.9737 2.68381 30.052 2.69073C30.2837 2.71089 30.3655 2.61582 30.373 2.37844C30.3833 2.06616 30.4006 1.74062 30.4963 1.44792C30.7296 0.734623 31.2666 0.344554 31.9984 0.265042C32.4218 0.218949 32.8551 0.261585 33.2838 0.2564C33.4906 0.254095 33.569 0.346283 33.5465 0.546791C33.5367 0.636097 33.5483 0.727132 33.5442 0.817591C33.5327 1.06362 33.6001 1.3736 33.4762 1.53435C33.384 1.65362 33.0412 1.57929 32.8096 1.59197C32.3521 1.61617 32.0105 2.13069 32.1989 2.53862C32.2334 2.61352 32.3729 2.67229 32.4697 2.68208C32.6836 2.70005 32.8985 2.70159 33.1127 2.68669C33.3143 2.67517 33.4111 2.75411 33.4054 2.95749C33.4042 2.97939 33.4054 3.00244 33.4059 3.02491C33.4353 3.90875 33.4353 3.92143 32.563 3.91452C32.2398 3.91221 32.1678 4.03148 32.1712 4.33397C32.185 5.80321 32.177 7.27245 32.177 8.74169C32.177 9.25505 32.1775 9.25506 31.6751 9.25563H31.2344ZM22.7047 6.06076C22.7047 5.45001 22.6949 4.83985 22.7105 4.22968C22.7162 3.98827 22.6298 3.92085 22.3982 3.91682C21.6175 3.90415 21.618 3.89608 21.6221 3.12343C21.625 2.70398 21.6376 2.69073 22.0657 2.68957C22.79 2.68727 22.7001 2.7518 22.7041 2.05982C22.7064 1.72045 22.7145 1.38109 22.7007 1.04287C22.6926 0.829691 22.7525 0.73059 22.983 0.737504C23.3897 0.748495 23.7966 0.748495 24.2033 0.737504C24.4338 0.732318 24.5283 0.816439 24.5202 1.0544C24.5064 1.4727 24.5283 1.89158 24.5122 2.3093C24.5012 2.58413 24.5969 2.70916 24.8809 2.69246C25.1056 2.6792 25.332 2.69246 25.5585 2.689C25.7515 2.68496 25.8558 2.7639 25.8523 2.96787C25.831 4.12712 26.0298 3.89723 24.995 3.9197C24.5162 3.93065 24.5162 3.92316 24.5168 4.4106C24.5168 5.24663 24.5139 6.08323 24.5185 6.91983C24.5191 7.07655 24.5381 7.235 24.5669 7.38941C24.6389 7.77833 24.7858 7.89529 25.1868 7.90393C25.8523 7.91776 25.8523 7.91776 25.8523 8.57229C25.8523 9.30115 25.8523 9.33226 25.1258 9.3363C24.6222 9.3386 24.1117 9.27753 23.6174 9.17785C23.074 9.06722 22.7133 8.50546 22.7059 7.85841C22.6989 7.25919 22.7041 6.65998 22.7047 6.06076ZM5.36768 69.2161C5.23171 69.2161 5.08882 69.2426 4.96263 69.2081C4.84509 69.1752 4.69299 69.1026 4.64574 69.0041C4.40951 68.5126 4.06323 68.1669 3.50607 68.1053C2.82619 68.0304 2.23907 68.213 1.90143 68.8577C1.4186 69.7785 1.40074 70.7245 1.91296 71.6337C2.25693 72.2445 2.84405 72.4905 3.52797 72.381C4.17674 72.2773 4.53223 71.8348 4.6901 71.2074C4.71373 71.1117 4.85547 70.9896 4.95284 70.9798C5.25533 70.9498 5.56185 70.9717 5.86722 70.966C6.06946 70.9619 6.12535 71.0639 6.09251 71.2443C5.89373 72.3459 5.18792 73.3231 3.87713 73.5328C2.73631 73.7155 1.72224 73.4723 0.928277 72.5798C0.298521 71.8723 0.0991658 71.0155 0.130855 70.0971C0.171763 68.8946 0.617145 67.8783 1.69459 67.2698C3.04341 66.5081 4.88255 66.8198 5.65865 68.0528C5.83438 68.3323 5.92311 68.6699 6.02394 68.9897C6.0395 69.0404 5.91735 69.1856 5.83957 69.204C5.68976 69.2386 5.52555 69.2138 5.36711 69.2138L5.36768 69.2161ZM19.3278 71.2201C19.2724 70.9072 19.2552 70.6433 19.1751 70.4002C19.0426 70.0015 18.7815 69.7203 18.3339 69.6667C17.8839 69.6137 17.5122 69.7595 17.3117 70.168C17.0121 70.7764 16.9977 71.4188 17.2956 72.0296C17.4575 72.3626 17.7439 72.5798 18.1587 72.5856C18.5874 72.5913 18.9216 72.4381 19.0921 72.0474C19.2114 71.7749 19.2586 71.4713 19.3278 71.2201ZM17.1279 72.9987C17.1279 73.6187 17.1141 74.1591 17.1337 74.6984C17.1446 75.0101 17.0427 75.1328 16.7246 75.0902C16.5334 75.0674 16.3402 75.0676 16.149 75.0908C15.8972 75.1184 15.8402 75.0021 15.8408 74.7779C15.8454 72.8783 15.8465 70.9792 15.8408 69.0796C15.8396 68.8387 15.9289 68.7494 16.1634 68.7828C16.2516 68.7955 16.3438 68.7828 16.4342 68.7863C16.7442 68.799 17.1487 68.6492 17.0899 69.3365C17.5508 68.8007 18.0377 68.663 18.5937 68.6786C19.519 68.7051 20.2807 69.3648 20.4761 70.2763C20.6368 71.0276 20.6293 71.7455 20.3072 72.4577C19.8325 73.5063 18.4883 73.901 17.5347 73.2574C17.4252 73.1836 17.3129 73.1162 17.1279 72.9987ZM18.6582 3.67137C19.0132 3.08944 19.5208 2.72645 20.1782 2.57664C20.2439 2.56166 20.3096 2.5438 20.3764 2.53631C20.9894 2.47293 21.062 2.53919 21.062 3.15397C21.062 3.41325 21.0494 3.67425 21.0661 3.93295C21.081 4.17379 20.9825 4.24409 20.7509 4.24639C20.4052 4.25042 20.0364 4.22507 19.7178 4.33282C18.8363 4.62897 18.6404 5.38721 18.6179 6.20192C18.5982 7.08278 18.5982 7.96396 18.6179 8.84482C18.6237 9.15192 18.5257 9.27695 18.2106 9.26024C17.8382 9.2439 17.4652 9.24313 17.0928 9.25794C16.8681 9.26485 16.7972 9.16863 16.7978 8.95545C16.8018 6.96765 16.8018 4.97986 16.7984 2.99206C16.7984 2.78868 16.8479 2.67575 17.0847 2.68496C17.4794 2.70052 17.8752 2.69822 18.2699 2.68554C18.4837 2.67863 18.5505 2.77312 18.5459 2.96787C18.5401 3.19603 18.5442 3.42419 18.5442 3.65351L18.6582 3.67137ZM33.2204 71.5197C33.202 71.492 33.1127 71.2909 33.0637 71.3001C32.5924 71.3894 32.1038 71.458 31.6682 71.6453C31.2804 71.8124 31.3398 72.4145 31.7212 72.604C32.4518 72.9682 33.1962 72.4836 33.2204 71.5197ZM34.5024 73.4331C34.0945 73.3144 33.5465 73.6976 33.1553 73.0932C32.6794 73.5121 32.0986 73.5754 31.489 73.5501C30.6835 73.5167 30.1074 72.9924 30.1045 72.1909C30.1022 71.4707 30.4513 70.9832 31.3317 70.8231C31.7304 70.7505 32.1355 70.7078 32.5371 70.6485C32.9583 70.5863 33.2216 70.3737 33.2112 70.1075C33.1979 69.756 32.922 69.5503 32.4645 69.5365C32.0577 69.525 31.7339 69.6304 31.5749 70.055C31.5443 70.1369 31.4101 70.2221 31.3179 70.2296C31.0373 70.2527 30.7538 70.2423 30.4721 70.2354C30.2727 70.2313 30.2416 70.1369 30.2883 69.9433C30.4237 69.3867 30.7642 69.03 31.2949 68.8589C32.113 68.5956 32.9369 68.5916 33.7453 68.8923C34.2696 69.0876 34.5076 69.495 34.5036 70.0527C34.4989 70.6738 34.5024 71.295 34.5024 71.9166V73.4331ZM22.4546 71.0996L22.4869 71.1106C22.5042 71.3007 22.5134 71.492 22.5416 71.681C22.6073 72.1131 22.9709 72.5026 23.3604 72.5706C23.8761 72.6605 24.2794 72.483 24.5156 72.025C24.7709 71.5318 24.757 71.0092 24.6308 70.4808C24.5208 70.0222 24.1682 69.7024 23.717 69.6621C23.1898 69.6148 22.8395 69.8027 22.6494 70.2901C22.5491 70.5459 22.5169 70.8288 22.4546 71.0996ZM23.6041 73.5484C22.1902 73.6244 21.1819 72.6265 21.1986 71.1152C21.2147 69.5999 22.1135 68.6809 23.6122 68.682C25.0664 68.6837 25.9952 69.6241 26.0137 71.0714C26.0332 72.5867 25.0244 73.6164 23.6041 73.5484ZM9.1007 72.5833C9.49135 72.5867 9.80824 72.4064 9.99031 71.9956C10.2317 71.4534 10.2265 70.8962 10.0456 70.3512C9.89755 69.9075 9.56798 69.6586 9.07362 69.6552C8.58676 69.6523 8.24624 69.8701 8.078 70.3172C7.86827 70.8749 7.87057 71.4378 8.11833 71.9933C8.30097 72.4024 8.61614 72.585 9.1007 72.5833ZM9.02695 73.5478C7.59977 73.5985 6.63123 72.6225 6.63699 71.1175C6.64275 69.6673 7.50816 68.6544 9.09552 68.6803C10.6374 68.7062 11.4791 69.6869 11.4699 71.1371C11.4607 72.6484 10.5336 73.5893 9.02695 73.5478ZM41.8716 71.0541C41.92 71.3359 41.9483 71.5704 42.0024 71.7985C42.1044 72.2307 42.4438 72.5389 42.8361 72.5764C43.3864 72.6305 43.7356 72.4669 43.9459 72.0054C44.2051 71.4361 44.1925 70.8473 43.9689 70.2682C43.803 69.8378 43.4648 69.6615 43.0136 69.6586C42.57 69.6552 42.2398 69.8493 42.071 70.2457C41.9592 70.5085 41.9298 70.8064 41.8716 71.0541ZM42.9779 73.5478C41.6677 73.6106 40.5505 72.6455 40.611 71.0023C40.6611 69.6408 41.5334 68.6423 43.1064 68.6768C44.5134 68.7079 45.4168 69.6627 45.4237 71.1526C45.4312 72.6178 44.3924 73.6469 42.9779 73.5478ZM47.4974 69.2225C47.8523 69.049 48.175 68.8151 48.5316 68.7385C48.8825 68.6636 49.2783 68.6964 49.6344 68.7748C50.0637 68.8698 50.3759 69.1706 50.4687 69.62C50.5453 69.9945 50.6041 70.3771 50.615 70.758C50.6369 71.5369 50.6151 72.3177 50.626 73.0978C50.6289 73.3432 50.5522 73.4544 50.2958 73.436C50.0814 73.4221 49.8662 73.4219 49.6517 73.4354C49.4137 73.4487 49.3325 73.3432 49.3348 73.1139C49.3423 72.3908 49.3429 71.6666 49.3348 70.9435C49.334 70.7403 49.3101 70.5379 49.2633 70.3402C49.1452 69.8603 48.8969 69.6811 48.4141 69.6949C47.994 69.707 47.6754 69.9784 47.5924 70.4094C47.5675 70.554 47.5559 70.7006 47.5579 70.8473C47.5544 71.5934 47.5504 72.3396 47.5602 73.0857C47.5636 73.33 47.4778 73.4389 47.2277 73.4349C46.0777 73.417 46.2638 73.5801 46.2546 72.5084C46.2459 71.4004 46.2603 70.2924 46.2482 69.1839C46.2448 68.875 46.3502 68.7379 46.6637 68.784C46.719 68.7926 46.7766 68.7857 46.8331 68.7857C47.3695 68.7869 47.3695 68.7869 47.4974 69.2225ZM34.4949 5.95589C34.4949 5.00751 34.5047 4.06029 34.4891 3.11191C34.4845 2.8002 34.5583 2.65328 34.9034 2.68324C35.2393 2.71205 35.581 2.70744 35.9175 2.68381C36.2332 2.66192 36.3312 2.78464 36.3294 3.09117C36.3202 4.91936 36.3248 6.74698 36.3248 8.57517C36.3248 9.25563 36.3248 9.25506 35.6519 9.25506C35.3811 9.25506 35.1091 9.2418 34.8395 9.25909C34.5664 9.27637 34.488 9.15826 34.4909 8.90071C34.5007 7.91891 34.4949 6.93769 34.4949 5.95589ZM26.7321 5.95762C26.7321 4.99714 26.7408 4.03666 26.7275 3.07676C26.7229 2.78061 26.8261 2.67056 27.1211 2.68496C27.4817 2.70283 27.8442 2.69879 28.2048 2.68612C28.4624 2.6769 28.5701 2.76793 28.569 3.03701C28.5626 5.00291 28.5632 6.9688 28.569 8.93413C28.569 9.17036 28.4699 9.25966 28.2446 9.25678C27.8494 9.24996 27.4541 9.25015 27.0588 9.25736C26.8065 9.26312 26.727 9.14789 26.7287 8.90589C26.7368 7.92352 26.7321 6.94057 26.7321 5.95762ZM35.7919 71.2103C35.7919 70.8029 35.7803 70.3956 35.7959 69.9899C35.8057 69.7399 35.7222 69.6471 35.4675 69.654C35.0832 69.6655 34.8435 69.2207 35.0699 68.8981C35.1304 68.8117 35.3281 68.7886 35.4606 68.7921C35.7083 68.799 35.812 68.7183 35.7959 68.4608C35.7738 68.1905 35.7761 67.9188 35.8028 67.6489C35.8132 67.5596 35.9538 67.4847 36.0362 67.4046C36.0419 67.3989 36.0586 67.4035 36.0696 67.4035C37.2888 67.4254 37.0514 67.2203 37.0744 68.3513C37.0831 68.7782 37.0819 68.7777 37.51 68.7892C37.6696 68.7938 37.9433 68.8007 37.9652 68.8704C38.0309 69.0761 38.0136 69.3152 37.9888 69.5365C37.9831 69.5866 37.8171 69.6546 37.7249 69.654C36.9488 69.6529 37.0836 69.6586 37.0767 70.3206C37.071 70.8398 37.0727 71.3601 37.0767 71.8798C37.0802 72.3476 37.2006 72.4853 37.6615 72.4502C37.9663 72.4266 38.0234 72.5383 38.0188 72.808C38.0044 73.606 38.0649 73.4896 37.3205 73.4879C37.0626 73.4879 36.8055 73.4589 36.5541 73.4014C36.0373 73.2804 35.8017 72.9676 35.7936 72.43C35.7867 72.0232 35.7919 71.617 35.7919 71.2103ZM13.5015 69.4454C13.8149 69.0392 14.1699 68.7644 14.6562 68.697C15.1177 68.6336 15.1955 68.6924 15.1949 69.1527V69.2207C15.1949 69.8395 15.1949 69.8395 14.5968 69.8701C13.9457 69.9029 13.4773 70.4555 13.4612 71.2339C13.4484 71.8434 13.4489 72.4531 13.4629 73.0627C13.4687 73.3375 13.3817 73.4395 13.0953 73.4389C12.1734 73.4383 12.1734 73.4481 12.1734 72.5447C12.1734 71.4154 12.1815 70.2861 12.1677 69.1574C12.1642 68.8652 12.2449 68.731 12.5502 68.7834C12.6269 68.7967 12.7081 68.7863 12.7865 68.7857C13.3235 68.7857 13.3229 68.7857 13.4122 69.3106C13.4174 69.3394 13.4468 69.3648 13.5015 69.4454ZM28.0838 69.4466C28.2037 69.3377 28.2797 69.2634 28.361 69.1971C28.5183 69.0704 28.6617 68.9079 28.8415 68.8318C29.1365 68.7074 29.549 68.5115 29.749 68.784C29.9138 69.0087 29.8227 69.4276 29.8158 69.76C29.8152 69.8004 29.6286 69.881 29.5393 69.8684C28.6848 69.7479 28.0804 70.3973 28.1144 71.3019C28.1369 71.8999 28.1109 72.5003 28.123 73.0984C28.1276 73.3427 28.0516 73.455 27.7946 73.4366C27.5688 73.4239 27.3424 73.4232 27.1164 73.4343C26.9125 73.4418 26.8324 73.3479 26.833 73.1502C26.8359 71.7945 26.8359 70.4388 26.8336 69.0825C26.8336 68.8768 26.8969 68.754 27.1285 68.7834C27.1954 68.7921 27.2645 68.7857 27.3319 68.7857C27.9628 68.7875 27.9628 68.7875 28.0838 69.4466ZM38.6641 71.1094C38.6641 70.4434 38.6704 69.7779 38.6606 69.1118C38.6572 68.8716 38.7252 68.7558 38.989 68.7805C39.214 68.7981 39.44 68.7981 39.6649 68.7805C39.8741 68.7673 39.9507 68.8595 39.9507 69.056C39.9495 70.4215 39.9495 71.787 39.9524 73.152C39.9524 73.3496 39.87 73.4262 39.6684 73.4372C38.6641 73.4925 38.6641 73.4971 38.6641 72.4969V71.1094ZM27.6367 1.70547C26.7339 1.70662 26.7339 1.70662 26.7321 0.802611C26.7321 0.712728 26.7391 0.621117 26.7298 0.53181C26.7085 0.33015 26.7926 0.239115 26.9966 0.240843C27.4259 0.244876 27.8545 0.2443 28.2832 0.240843C28.4745 0.239691 28.577 0.305374 28.569 0.518558C28.5575 0.823053 28.5575 1.12787 28.569 1.43237C28.5765 1.64786 28.4693 1.71008 28.2797 1.70662C28.0654 1.70259 27.8511 1.70547 27.6367 1.70547ZM35.3799 1.70662C34.4955 1.70662 34.4955 1.70662 34.4955 0.821625C34.4955 0.742689 34.5036 0.662601 34.4938 0.585394C34.4592 0.316322 34.5762 0.225287 34.8395 0.23681C35.222 0.252943 35.6058 0.248333 35.9883 0.238539C36.2269 0.232777 36.345 0.308832 36.3283 0.568685C36.3116 0.837757 36.3116 1.11029 36.3283 1.37936C36.3444 1.63921 36.2263 1.72045 35.9883 1.70893C35.7855 1.69913 35.5827 1.70662 35.3799 1.70662ZM39.2287 67.029C39.995 67.044 39.9501 66.8653 39.953 67.8276C39.9536 68.009 39.8982 68.1035 39.7041 68.0984C39.4333 68.0926 39.1625 68.0972 38.8911 68.0966C38.8571 68.0966 38.8116 68.1053 38.792 68.0868C38.52 67.8408 38.7108 67.5228 38.6808 67.2399C38.6745 67.1794 38.8346 67.0687 38.9355 67.037C39.0484 67.0013 39.1809 67.029 39.2287 67.029ZM52.3948 66.8141H52.57V67.6887H52.3948V67.2203L52.1114 67.6887H52.0163L51.7547 67.2203V67.6887H51.5876L51.5594 66.8141H51.7547L52.0647 67.4041L52.3948 66.8141ZM50.9556 67.6708V66.9604H50.5914V66.8475H51.4603C51.4589 66.8851 51.4589 66.9228 51.4603 66.9604H51.1215V67.6708H50.9556Z" fill="#1A3065"></path>
  <path fill-rule="evenodd" clip-rule="evenodd" d="M23.414 27.2478V27.2287C21.9568 27.2287 20.4997 27.2385 19.0426 27.2218C18.698 27.2178 18.6035 27.3244 18.6047 27.6655C18.6179 30.4115 18.6122 33.1576 18.6122 35.9036C18.6122 36.3686 18.6191 36.3766 19.0846 36.3766C21.3893 36.3772 23.694 36.3778 25.9981 36.3766C27.117 36.3766 28.2336 36.3386 29.3169 36.0206C30.4692 35.6823 31.4568 35.1142 31.9978 33.974C32.5394 32.8337 32.5446 31.644 32.3089 30.4323C32.0652 29.1733 31.3738 28.2393 30.1794 27.7957C29.4188 27.5134 28.592 27.3175 27.7842 27.2714C26.3323 27.1884 24.8711 27.2478 23.414 27.2478ZM23.9625 49.5929C25.3292 49.5929 26.6964 49.5813 28.0631 49.5975C28.826 49.6061 29.5692 49.5324 30.2987 49.2973C31.4135 48.9378 32.317 48.3005 32.9168 47.2859C33.6088 46.1157 33.7972 44.8498 33.5851 43.5085C33.3892 42.2663 32.8038 41.2925 31.727 40.627C30.5666 39.9097 29.2748 39.6643 27.9415 39.6533C24.9708 39.6303 21.9989 39.6499 19.0281 39.6412C18.6997 39.6401 18.6047 39.7513 18.6058 40.0751C18.6162 43.104 18.6173 46.1324 18.6047 49.1613C18.6029 49.5105 18.7107 49.6027 19.0477 49.5992C20.6858 49.5848 22.3239 49.5929 23.9625 49.5929ZM32.0623 37.5422C32.5976 37.7306 33.07 37.8729 33.5241 38.0608C35.2906 38.7914 36.5288 40.0486 37.0929 41.8814C38.0896 45.1183 37.4674 48.0251 35.1097 50.4836C33.9977 51.6446 32.5826 52.3389 30.9981 52.6074C30.1203 52.7549 29.232 52.831 28.342 52.835C23.9671 52.8575 19.5928 52.8454 15.2185 52.8448C14.7276 52.8448 14.7276 52.8448 14.7276 52.3683V24.3848C14.7276 23.9227 14.7276 23.9232 15.1931 23.9232C18.46 23.9232 21.7269 23.9071 24.9938 23.9302C26.4827 23.9411 27.9744 23.9843 29.4592 24.0984C30.6478 24.19 31.8399 24.3715 32.8966 24.999C34.4004 25.8914 35.4715 27.1498 35.967 28.8397C36.6043 31.0119 36.4107 33.0988 35.169 35.0324C34.4661 36.1283 33.4549 36.8704 32.2864 37.4126C32.2288 37.4397 32.1764 37.476 32.0623 37.5422Z" fill="#1A3065"></path>
</svg>
