<?xml version="1.0" encoding="UTF-8"?>
<svg xmlns="http://www.w3.org/2000/svg" width="32" height="32" viewBox="0 0 32 32" fill="none">
  <g clip-path="url(#clip0_2394_183)">
    <path d="M5.28265 5.94335C5.27382 5.95662 5.98947 6.93377 6.86857 8.10989C7.74767 9.28602 9.61632 11.7886 11.0211 13.6677L13.5745 17.0856L13.411 17.2713C13.3183 17.373 11.4408 19.4024 9.24082 21.7812C7.04086 24.1644 5.23406 26.1276 5.22964 26.1497C5.22081 26.1718 5.60514 26.1895 6.15734 26.185L7.09829 26.1806L7.40752 25.8402C7.57981 25.6545 9.17898 23.9256 10.9637 21.9934C12.7484 20.0612 14.2592 18.4253 14.3211 18.3545L14.4315 18.2263L15.315 19.4113C15.801 20.0612 17.1395 21.8564 18.2881 23.3951L20.382 26.1895H23.5848C26.2486 26.1895 26.7831 26.1806 26.7654 26.132C26.7522 26.0966 25.9394 25.0001 24.9586 23.6869C23.9779 22.3781 22.8559 20.8748 22.4671 20.3531C22.074 19.8313 20.921 18.2794 19.8961 16.9131C18.8712 15.5425 18.0319 14.4017 18.0319 14.384C18.0319 14.3531 23.4478 8.46804 25.29 6.50046L25.8157 5.93893H24.8482L23.8852 5.94335L22.7587 7.16369C22.1402 7.83576 20.625 9.48056 19.3881 10.8114L17.1483 13.2344L14.4315 9.59994L11.7103 5.96104L8.5075 5.93893C6.74488 5.92567 5.29149 5.93009 5.28265 5.94335ZM12.8721 9.86081C13.9191 11.2669 15.5359 13.429 16.4636 14.6714C17.3913 15.9094 19.4499 18.6685 21.0402 20.7952C22.6306 22.9264 23.947 24.6906 23.9691 24.7215C23.9956 24.7613 23.682 24.7746 22.5378 24.7746H21.0756L18.1776 20.8925C11.4894 11.9478 8.11434 7.42898 8.07458 7.36266C8.04807 7.32286 8.34847 7.3096 9.50146 7.3096H10.9637L12.8721 9.86081Z" fill="#1A3065"></path>
  </g>
  <defs>
    <clipPath id="clip0_2394_183">
      <rect width="21.5579" height="20.2947" fill="white" transform="translate(5.2207 5.89453)"></rect>
    </clipPath>
  </defs>
</svg>
