<?xml version="1.0" encoding="UTF-8"?>
<svg xmlns="http://www.w3.org/2000/svg" width="32" height="32" fill="none" viewBox="0 0 32 32">
  <rect width="22" height="22" x="5" y="5" stroke="#1A3065" stroke-width="2" rx="7"></rect>
  <path fill="#1A3065" d="M12.32 11.65c-.22.22-.48.33-.8.33a1.14 1.14 0 0 1-1.13-1.14c0-.31.1-.57.33-.8.22-.23.49-.34.8-.34.33 0 .6.11.82.35a1.1 1.1 0 0 1-.02 1.6Zm-1.68 9.82V13.2h1.78v8.26h-1.78ZM18.83 13c.95 0 1.71.3 2.3.9.58.61.87 1.44.87 2.5v5.07h-1.78v-4.89c0-.61-.17-1.09-.5-1.42-.33-.33-.78-.5-1.35-.5a2 2 0 0 0-1.52.6c-.39.39-.58.98-.58 1.78v4.43H14.5V13.2h1.78v1.06c.54-.85 1.4-1.27 2.56-1.27Z"></path>
</svg>
