<?xml version="1.0" encoding="UTF-8"?>
<svg xmlns="http://www.w3.org/2000/svg" width="63" height="33" viewBox="0 0 63 33" fill="none">
  <g clip-path="url(#clip0_347_2689)">
    <path d="M62.5238 0.555176H0.11377V32.9452H62.5238V0.555176Z" fill="#FFCC00"></path>
    <path d="M13.3637 19.7708H0.11377V22.3679H11.4592L13.3637 19.7708ZM0.11377 27.1727H7.92744L9.82336 24.5933H0.11377V27.1727ZM16.9064 14.9518H0.11377V17.5455H14.9981L16.9064 14.9518ZM39.2632 14.0785C38.6206 14.9498 37.5445 16.4676 36.89 17.3527C36.5577 17.8017 35.957 18.6215 37.9481 18.6215H48.0418C48.0418 18.6215 49.73 16.3189 51.1458 14.3944C53.0716 11.7755 51.3124 6.32764 44.4288 6.32764H17.32L12.62 12.7263H38.6181C39.9128 12.7263 39.8958 13.2191 39.2632 14.0785ZM53.5311 14.9519L51.6351 17.5314H62.5238V14.9519H53.5311ZM46.3874 20.8467H34.7561L30.3394 20.8465C28.3487 20.8465 28.9495 20.0267 29.2817 19.5767C29.9363 18.6909 31.0381 17.1756 31.6806 16.3033C32.3133 15.444 32.7055 14.9516 31.4104 14.9516H19.6952L10.718 27.1727H33.7393C40.5661 27.1727 44.6747 22.9965 46.3874 20.8467ZM48.0949 22.3536H62.5238V19.7566H49.9994L48.0949 22.3536ZM44.561 27.1727H62.5238V24.579H46.463L44.561 27.1727Z" fill="#D40511"></path>
  </g>
  <defs>
    <clipPath id="clip0_347_2689">
      <rect width="62.41" height="32.39" fill="white" transform="translate(0.11377 0.555176)"></rect>
    </clipPath>
  </defs>
</svg>
