<?xml version="1.0" encoding="UTF-8"?>
<svg xmlns="http://www.w3.org/2000/svg" width="34" height="33" viewBox="0 0 34 33" fill="none">
  <g clip-path="url(#clip0_347_2693)">
    <path d="M7.88757 0.598145C11.7738 0.598145 18.0351 3.08633 22.1804 5.3999C26.7576 7.97538 33.1915 13.17 33.1915 16.7495C33.1915 20.5472 26.5849 25.6109 22.1804 28.0991C18.1646 30.3254 12.0329 32.9445 8.01711 32.9445C6.93759 32.9445 6.07397 32.7699 5.42626 32.4207C2.27406 30.6309 0.805908 23.0354 0.805908 16.7495C0.805908 13.5629 1.19454 10.2016 1.92861 7.4079C2.79223 4.09033 4.00129 1.90771 5.42626 1.07832C6.03079 0.772754 6.85123 0.598145 7.88757 0.598145Z" fill="#A6ACB2"></path>
    <path d="M32.1121 16.8373C32.1121 14.1309 27.0599 9.37278 21.6623 6.36077C15.4011 2.91224 8.31944 0.904232 5.98768 2.17015C3.35365 3.65433 1.8855 11.0752 1.8855 16.8373C1.8855 22.6431 3.26729 29.9767 5.98768 31.5045C8.49217 32.9014 15.2716 30.8497 21.6191 27.2702C27.1463 24.2582 32.1121 19.7184 32.1121 16.8373Z" fill="url(#paint0_radial_347_2693)"></path>
    <path d="M25.0304 19.5874L24.9873 16.8373C24.9873 16.2262 24.7714 15.9643 24.2964 15.9643C24.1236 15.9643 23.9077 16.0079 23.735 16.1389C23.5191 16.2698 23.3896 16.3571 23.3032 16.4008L23.26 16.4444V19.5437C23.26 19.5437 23.26 19.5874 23.2168 19.5874H22.0078C22.0078 19.5874 21.9646 19.5874 21.9646 19.5437V15.1785C21.9646 15.0912 22.0078 15.0476 22.0941 15.0476H23.1737C23.1737 15.0476 23.2168 15.0476 23.2168 15.0912V15.4404C23.2168 15.4404 23.2168 15.4841 23.26 15.4841H23.3032L23.3464 15.4404C23.4759 15.3531 23.6918 15.2222 23.8214 15.1785C24.1236 15.0476 24.4259 15.0039 24.685 15.0039C25.6782 15.0039 26.1963 15.5714 26.1963 16.6627V19.5874C26.1963 19.5874 26.1963 19.631 26.1531 19.631L25.0304 19.5874ZM27.2758 19.5874C27.2327 19.5874 27.2327 19.5874 27.2758 19.5874L27.2327 12.8649C27.2327 12.8213 27.2327 12.8213 27.2758 12.8213C27.3622 12.8213 28.0099 13.2578 28.2258 13.4761C28.3985 13.6507 28.4849 13.9126 28.4849 14.1309V19.5001C28.4849 19.5001 28.4849 19.5437 28.4417 19.5437H27.2758" fill="white"></path>
    <path d="M14.0193 17.3176C14.0193 18.9327 12.983 19.6748 11.6876 19.6748C10.3921 19.6748 9.35579 18.9327 9.35579 17.3176C9.35579 15.7024 10.3921 14.9604 11.6876 14.9604C12.983 14.9604 14.0193 15.7024 14.0193 17.3176ZM12.7239 17.3176C12.7239 16.4445 12.2921 16.0953 11.7307 16.0953C11.1694 16.0953 10.7376 16.4882 10.7376 17.3176C10.7376 18.1033 11.1694 18.5398 11.7307 18.5398C12.2921 18.5835 12.7239 18.147 12.7239 17.3176ZM20.1078 13.8254C20.1078 13.7817 20.1078 13.7817 20.0646 13.7817C19.9783 13.7817 19.2874 14.2183 19.1147 14.4365C18.9419 14.6111 18.8556 14.873 18.8556 15.0913V18.016C18.8556 19.2819 19.5896 19.6748 20.3669 19.6748C20.7987 19.6748 21.101 19.6311 21.2737 19.5002C21.3169 19.5002 21.3601 19.4565 21.3601 19.3692V18.5398C21.3601 18.4962 21.3601 18.4962 21.3169 18.4962C21.2737 18.4962 20.9714 18.6271 20.7987 18.6271C20.4101 18.6271 20.151 18.4525 20.151 17.7977V16.139C20.151 16.0953 20.151 16.0953 20.1942 16.0953H21.2737C21.3169 16.0953 21.3169 16.0953 21.3169 16.0517V15.1786C21.3169 15.0913 21.2737 15.0477 21.1873 15.0477H20.1942C20.151 15.0477 20.151 15.0477 20.151 15.004L20.1078 13.8254ZM4.51953 15.2223C4.51953 15.135 4.60589 15.0913 4.64907 15.0913H6.33313C8.01718 15.0913 8.8808 16.0953 8.8808 17.4049C8.8808 18.7144 7.93082 19.6311 6.33313 19.6311H5.81496C5.77178 19.6311 5.77178 19.6311 5.77178 19.6748V21.8138C5.77178 21.8574 5.77178 21.8574 5.72859 21.8574C5.64223 21.8574 4.95134 21.4209 4.77862 21.2026C4.60589 21.028 4.51953 20.7661 4.51953 20.5478V15.2223ZM7.62855 17.3176C7.62855 16.7501 7.28311 16.2263 6.33313 16.2263H5.81496C5.77178 16.2263 5.77178 16.2263 5.77178 16.2699V18.3652C5.77178 18.4089 5.77178 18.4089 5.81496 18.4089H6.33313C7.45583 18.4089 7.62855 17.6231 7.62855 17.3176ZM17.6465 17.143C17.3874 16.9684 17.042 16.8811 16.7397 16.8374C16.6965 16.8374 16.4806 16.7937 16.4374 16.7501C16.0488 16.6628 15.7466 16.5755 15.7466 16.3572C15.7466 16.139 15.9625 16.008 16.2647 16.008C16.6534 16.008 17.2147 16.0953 17.8192 16.3136C17.8624 16.3136 17.9056 16.3136 17.9056 16.2699V15.3969C17.9056 15.3532 17.8624 15.2659 17.8192 15.2659C17.6033 15.1786 16.9556 15.004 16.4374 15.004C15.8329 15.004 15.3579 15.135 15.0125 15.3969C14.667 15.6588 14.4943 16.008 14.4943 16.4445C14.4943 17.4485 15.3147 17.6231 16.092 17.7977C16.2215 17.8414 16.1784 17.8414 16.2215 17.8414C16.567 17.9287 16.9556 18.016 16.9556 18.2779C16.9556 18.3652 16.9124 18.4525 16.8693 18.4962C16.7829 18.5835 16.6102 18.6271 16.3511 18.6271C15.8761 18.6271 14.9261 18.4089 14.667 18.3216C14.6238 18.3216 14.6239 18.3652 14.6239 18.3652V19.2383C14.6239 19.2819 14.667 19.3692 14.7102 19.3692C14.7102 19.3692 15.5306 19.6311 16.2647 19.6311C17.6033 19.6311 18.2942 19.1073 18.2942 18.147C18.1647 17.7104 17.992 17.3612 17.6465 17.143Z" fill="#383792"></path>
    <path d="M9.74426 13.9126C9.6579 13.9126 9.57153 13.8689 9.57153 13.738V13.2142C9.57153 13.0832 9.6579 12.9959 9.78744 12.9959H13.6305C13.7601 12.9959 13.8464 13.0832 13.8464 13.2142V13.6943C13.8464 13.8253 13.8033 13.8689 13.6737 13.8689H9.74426M13.1987 12.5157C13.1555 12.5157 13.1124 12.5157 13.1124 12.4721V12.3848C13.2419 11.9919 13.6737 10.7696 13.6737 10.7696C13.7169 10.6823 13.6737 10.595 13.5874 10.5514L13.3714 10.4641H13.3283C13.2851 10.4641 13.2419 10.4641 13.2419 10.5077C13.1555 10.726 13.1124 10.8569 13.026 11.0752C13.026 11.1188 12.9828 11.1188 12.9396 11.1188H12.5078C12.4647 11.1188 12.4647 11.1188 12.4215 11.0752V10.9879C12.551 10.595 12.6374 10.2895 12.8101 9.94023C12.8533 9.89658 12.8965 9.76562 13.0692 9.76562H13.1555C13.2851 9.80928 13.4578 9.85293 13.6305 9.89658C13.7601 9.94023 13.8896 9.98388 14.0623 10.0275C14.4942 10.2021 14.4942 10.5077 14.4078 10.8133C14.3646 10.9879 14.1055 11.73 13.9328 12.1665C13.8896 12.2538 13.8896 12.3411 13.8464 12.3848C13.8464 12.4284 13.8033 12.4721 13.7169 12.4721H13.1987V12.5157ZM11.4283 12.5157C11.3419 12.5157 11.3419 12.4284 11.3419 12.3848C11.3419 12.3411 11.2988 10.0712 11.2988 9.76562C11.2988 9.72197 11.2988 9.67832 11.3419 9.67832C11.3419 9.67832 11.3851 9.63467 11.4283 9.63467H12.0328C12.076 9.63467 12.076 9.63467 12.1192 9.67832C12.1624 9.72197 12.1624 9.76562 12.1624 9.76562C12.1624 10.0712 12.1192 12.3411 12.1192 12.3848C12.1192 12.3848 12.1192 12.5157 12.0328 12.5157H11.4283ZM9.6579 12.5157C9.57153 12.5157 9.57153 12.4721 9.52835 12.4284C9.52835 12.3848 9.48517 12.2975 9.44199 12.2102C9.26927 11.7736 9.05336 11.0752 8.967 10.8569C8.88064 10.5514 8.88064 10.2021 9.31245 10.0712C9.44199 10.0275 9.61472 9.98388 9.74426 9.94023C9.91698 9.89658 10.0897 9.85293 10.2192 9.80928H10.3056C10.4352 9.80928 10.5215 9.89658 10.5647 9.98388C10.7374 10.3331 10.8238 10.6387 10.9533 11.0315V11.1188C10.9533 11.1188 10.9101 11.1625 10.867 11.1625H10.4352C10.392 11.1625 10.3488 11.1625 10.3488 11.1188C10.2624 10.9006 10.2192 10.726 10.1329 10.5514C10.1329 10.5514 10.0897 10.5077 10.0465 10.5077H10.0033L9.78744 10.595C9.70108 10.6387 9.6579 10.726 9.70108 10.8133C9.70108 10.8133 10.1329 12.0355 10.2624 12.4284V12.5157C10.2624 12.5157 10.2192 12.5594 10.1761 12.5594C10.1761 12.5157 9.6579 12.5157 9.6579 12.5157ZM11.6874 9.19814C11.6442 9.19814 11.6442 9.19814 11.601 9.15449C11.4283 9.02353 11.2556 8.84892 11.126 8.67432C11.126 8.67432 11.0829 8.63066 11.126 8.54336C11.2556 8.3251 11.4715 8.19414 11.6442 8.01953H11.7306C11.9033 8.15049 12.076 8.3251 12.2487 8.54336C12.2919 8.58701 12.2919 8.63066 12.2487 8.67432C12.1192 8.84892 11.9465 9.02353 11.7738 9.15449C11.7306 9.19814 11.7306 9.19814 11.6874 9.19814Z" fill="white"></path>
  </g>
  <defs>
    <radialGradient id="paint0_radial_347_2693" cx="0" cy="0" r="1" gradientUnits="userSpaceOnUse" gradientTransform="translate(9.92923 13.1085) scale(21.2204 21.452)">
      <stop stop-color="#FFC429"></stop>
      <stop offset="1" stop-color="#F26F23"></stop>
    </radialGradient>
    <clipPath id="clip0_347_2693">
      <rect width="32.39" height="32.39" fill="white" transform="translate(0.803711 0.555176)"></rect>
    </clipPath>
  </defs>
</svg>
