<?xml version="1.0" encoding="UTF-8"?>
<svg xmlns="http://www.w3.org/2000/svg" width="30" height="37" viewBox="0 0 30 37" fill="none">
  <g clip-path="url(#clip0_347_2681)">
    <path d="M8.76502 32.6846L9.34479 29.0264L8.05333 28.9967H1.88647L6.17212 2.00264C6.18543 1.92115 6.22866 1.84517 6.29185 1.79121C6.35503 1.73725 6.43596 1.70752 6.52021 1.70752H16.9184C20.3704 1.70752 22.7527 2.4211 23.9965 3.82955C24.5796 4.49028 24.9509 5.18074 25.1305 5.94058C25.319 6.73786 25.3223 7.6904 25.1383 8.85218L25.125 8.93698V9.6814L25.7081 10.0096C26.1992 10.2683 26.5894 10.5646 26.8887 10.9037C27.3875 11.4687 27.7101 12.1867 27.8465 13.0379C27.9872 13.9134 27.9407 14.9551 27.7101 16.1345C27.4441 17.4912 27.0139 18.6728 26.4331 19.6397C25.8987 20.5305 25.2181 21.2694 24.41 21.8421C23.6384 22.3861 22.7216 22.799 21.6851 23.0633C20.6808 23.3232 19.5357 23.4543 18.2797 23.4543H17.4704C16.8918 23.4543 16.3298 23.6613 15.8885 24.0324C15.4462 24.4112 15.1536 24.9288 15.0638 25.4948L15.0028 25.8241L13.9785 32.2717L13.932 32.5084C13.9198 32.5833 13.8987 32.6207 13.8677 32.6461C13.84 32.6692 13.8 32.6846 13.7612 32.6846H8.76502Z" fill="#253B80"></path>
    <path d="M26.2601 9.02295C26.229 9.22007 26.1936 9.42159 26.1536 9.62862C24.7824 16.6224 20.091 19.0385 14.0993 19.0385H11.0486C10.3158 19.0385 9.69836 19.5671 9.58418 20.285L8.02223 30.1255L7.57992 32.9148C7.50565 33.3862 7.87147 33.8112 8.35036 33.8112H13.7612C14.4019 33.8112 14.9462 33.3487 15.0471 32.721L15.1003 32.4479L16.1191 26.0257L16.1845 25.6733C16.2842 25.0434 16.8296 24.5809 17.4704 24.5809H18.2796C23.522 24.5809 27.6258 22.4665 28.8252 16.3482C29.3263 13.7923 29.0669 11.6581 27.7411 10.1572C27.3398 9.7046 26.8421 9.32909 26.2601 9.02295Z" fill="#179BD7"></path>
    <path d="M24.8257 8.45476C24.6161 8.39419 24.4 8.33913 24.1783 8.28958C23.9554 8.24112 23.7271 8.19818 23.4921 8.16073C22.6695 8.02859 21.7683 7.96582 20.8027 7.96582H12.6527C12.452 7.96582 12.2614 8.01097 12.0907 8.09246C11.7149 8.27196 11.4355 8.62545 11.3679 9.05822L9.63411 19.9668L9.58423 20.2851C9.69841 19.5671 10.3159 19.0385 11.0486 19.0385H14.0993C20.091 19.0385 24.7824 16.6213 26.1537 9.62865C26.1947 9.42162 26.2291 9.2201 26.2601 9.02298C25.9131 8.84018 25.5373 8.68381 25.1327 8.55056C25.033 8.51753 24.9299 8.48559 24.8257 8.45476Z" fill="#222D65"></path>
    <path d="M11.3678 9.05831C11.4354 8.62553 11.7147 8.27204 12.0905 8.09365C12.2624 8.01216 12.4519 7.96701 12.6526 7.96701H20.8026C21.7682 7.96701 22.6694 8.02978 23.492 8.16192C23.727 8.19936 23.9553 8.24231 24.1782 8.29076C24.3999 8.34032 24.616 8.39538 24.8255 8.45595C24.9298 8.48678 25.0328 8.51872 25.1337 8.55065C25.5383 8.6839 25.9141 8.84137 26.2611 9.02307C26.6691 6.43853 26.2578 4.67879 24.851 3.08534C23.3002 1.3311 20.5011 0.580078 16.9194 0.580078H6.5212C5.78956 0.580078 5.16545 1.10866 5.05238 1.82775L0.721278 29.0993C0.63592 29.6389 1.05495 30.1256 1.60257 30.1256H8.02218L9.63401 19.9669L11.3678 9.05831Z" fill="#253B80"></path>
  </g>
  <defs>
    <clipPath id="clip0_347_2681">
      <rect width="28.44" height="36.34" fill="white" transform="translate(0.710205 0.580078)"></rect>
    </clipPath>
  </defs>
</svg>
