<?xml version="1.0" encoding="UTF-8"?>
<svg xmlns="http://www.w3.org/2000/svg" width="44" height="34" viewBox="0 0 44 34" fill="none">
  <path d="M8.45158 33.2664V31.0642C8.45158 30.22 7.93773 29.6695 7.05685 29.6695C6.6164 29.6695 6.13926 29.8163 5.80893 30.2934C5.552 29.8897 5.18496 29.6695 4.63441 29.6695C4.26737 29.6695 3.90034 29.7796 3.60671 30.1833V29.7429H2.83594V33.2664H3.60671V31.3211C3.60671 30.6972 3.93704 30.4035 4.45089 30.4035C4.96474 30.4035 5.22167 30.7339 5.22167 31.3211V33.2664H5.99245V31.3211C5.99245 30.6972 6.35948 30.4035 6.83662 30.4035C7.35047 30.4035 7.6074 30.7339 7.6074 31.3211V33.2664H8.45158ZM19.8664 29.7429H18.6185V28.6785H17.8477V29.7429H17.1503V30.4402H17.8477V32.0552C17.8477 32.8627 18.178 33.3398 19.0589 33.3398C19.3892 33.3398 19.7563 33.2297 20.0132 33.0829L19.793 32.4222C19.5728 32.569 19.3158 32.6057 19.1323 32.6057C18.7653 32.6057 18.6185 32.3855 18.6185 32.0185V30.4402H19.8664V29.7429ZM26.3996 29.6695C25.9592 29.6695 25.6655 29.8897 25.482 30.1833V29.7429H24.7113V33.2664H25.482V31.2844C25.482 30.6972 25.739 30.3668 26.2161 30.3668C26.3629 30.3668 26.5464 30.4035 26.6933 30.4402L26.9135 29.7062C26.7667 29.6695 26.5464 29.6695 26.3996 29.6695ZM16.5264 30.0365C16.1593 29.7796 15.6455 29.6695 15.0949 29.6695C14.214 29.6695 13.6268 30.1099 13.6268 30.8073C13.6268 31.3945 14.0672 31.7249 14.838 31.835L15.205 31.8717C15.6088 31.9451 15.829 32.0552 15.829 32.2387C15.829 32.4956 15.5354 32.6792 15.0215 32.6792C14.5077 32.6792 14.1039 32.4956 13.847 32.3121L13.48 32.8994C13.8837 33.193 14.4343 33.3398 14.9848 33.3398C16.0125 33.3398 16.5998 32.8627 16.5998 32.202C16.5998 31.5781 16.1226 31.2477 15.3885 31.1376L15.0215 31.1009C14.6912 31.0642 14.4343 30.9908 14.4343 30.7706C14.4343 30.5136 14.6912 30.3668 15.0949 30.3668C15.5354 30.3668 15.9758 30.5504 16.196 30.6605L16.5264 30.0365ZM37.007 29.6695C36.5665 29.6695 36.2729 29.8897 36.0894 30.1833V29.7429H35.3186V33.2664H36.0894V31.2844C36.0894 30.6972 36.3463 30.3668 36.8234 30.3668C36.9702 30.3668 37.1538 30.4035 37.3006 30.4402L37.5208 29.7062C37.374 29.6695 37.1538 29.6695 37.007 29.6695ZM27.1704 31.5046C27.1704 32.569 27.9045 33.3398 29.0423 33.3398C29.5561 33.3398 29.9232 33.2297 30.2902 32.9361L29.9232 32.3121C29.6295 32.5323 29.3359 32.6425 29.0056 32.6425C28.3816 32.6425 27.9412 32.202 27.9412 31.5046C27.9412 30.844 28.3816 30.4035 29.0056 30.3668C29.3359 30.3668 29.6295 30.4769 29.9232 30.6972L30.2902 30.0732C29.9232 29.7796 29.5561 29.6695 29.0423 29.6695C27.9045 29.6695 27.1704 30.4402 27.1704 31.5046ZM34.2909 31.5046V29.7429H33.5201V30.1833C33.2632 29.853 32.8962 29.6695 32.419 29.6695C31.428 29.6695 30.6572 30.4402 30.6572 31.5046C30.6572 32.569 31.428 33.3398 32.419 33.3398C32.9329 33.3398 33.2999 33.1563 33.5201 32.826V33.2664H34.2909V31.5046ZM31.4647 31.5046C31.4647 30.8807 31.8685 30.3668 32.5291 30.3668C33.1531 30.3668 33.5935 30.844 33.5935 31.5046C33.5935 32.1286 33.1531 32.6425 32.5291 32.6425C31.8685 32.6058 31.4647 32.1286 31.4647 31.5046ZM22.2521 29.6695C21.2244 29.6695 20.4904 30.4035 20.4904 31.5046C20.4904 32.6057 21.2244 33.3398 22.2888 33.3398C22.8027 33.3398 23.3165 33.193 23.7203 32.8627L23.3532 32.3121C23.0596 32.5323 22.6926 32.6792 22.3255 32.6792C21.8484 32.6792 21.3712 32.4589 21.2611 31.835H23.8671C23.8671 31.7249 23.8671 31.6515 23.8671 31.5413C23.9038 30.4035 23.2431 29.6695 22.2521 29.6695ZM22.2521 30.3301C22.7293 30.3301 23.0596 30.6238 23.133 31.1743H21.2978C21.3712 30.6972 21.7016 30.3301 22.2521 30.3301ZM41.3747 31.5046V28.3481H40.6039V30.1833C40.347 29.853 39.9799 29.6695 39.5028 29.6695C38.5118 29.6695 37.741 30.4402 37.741 31.5046C37.741 32.569 38.5118 33.3398 39.5028 33.3398C40.0166 33.3398 40.3837 33.1563 40.6039 32.826V33.2664H41.3747V31.5046ZM38.5485 31.5046C38.5485 30.8807 38.9522 30.3668 39.6129 30.3668C40.2369 30.3668 40.6773 30.844 40.6773 31.5046C40.6773 32.1286 40.2369 32.6425 39.6129 32.6425C38.9522 32.6058 38.5485 32.1286 38.5485 31.5046ZM12.7826 31.5046V29.7429H12.0118V30.1833C11.7549 29.853 11.3879 29.6695 10.9107 29.6695C9.91972 29.6695 9.14894 30.4402 9.14894 31.5046C9.14894 32.569 9.91972 33.3398 10.9107 33.3398C11.4246 33.3398 11.7916 33.1563 12.0118 32.826V33.2664H12.7826V31.5046ZM9.91972 31.5046C9.91972 30.8807 10.3235 30.3668 10.9841 30.3668C11.6081 30.3668 12.0485 30.844 12.0485 31.5046C12.0485 32.1286 11.6081 32.6425 10.9841 32.6425C10.3235 32.6058 9.91972 32.1286 9.91972 31.5046Z" fill="black"></path>
  <path d="M27.8312 2.98633H16.2695V23.7605H27.8312V2.98633Z" fill="#FF5F00"></path>
  <path d="M17.0035 13.3734C17.0035 9.15253 18.9855 5.40877 22.0319 2.98634C19.793 1.22456 16.9668 0.160156 13.8837 0.160156C6.57968 0.160156 0.67041 6.06943 0.67041 13.3734C0.67041 20.6775 6.57968 26.5867 13.8837 26.5867C16.9668 26.5867 19.793 25.5223 22.0319 23.7606C18.9855 21.3748 17.0035 17.5944 17.0035 13.3734Z" fill="#EB001B"></path>
  <path d="M43.4301 13.3734C43.4301 20.6775 37.5208 26.5867 30.2168 26.5867C27.1337 26.5867 24.3075 25.5223 22.0686 23.7606C25.1517 21.3381 27.097 17.5944 27.097 13.3734C27.097 9.15253 25.115 5.40877 22.0686 2.98634C24.3075 1.22456 27.1337 0.160156 30.2168 0.160156C37.5208 0.160156 43.4301 6.10613 43.4301 13.3734Z" fill="#F79E1B"></path>
</svg>
