<?xml version="1.0" encoding="UTF-8"?>
<svg xmlns="http://www.w3.org/2000/svg" width="97" height="34" viewBox="0 0 97 34" fill="none">
  <path d="M91.4725 32.9577C94.4445 32.9577 96.8537 30.5485 96.8537 27.5765C96.8537 24.6046 94.4445 22.1953 91.4725 22.1953C88.5006 22.1953 86.0913 24.6046 86.0913 27.5765C86.0913 30.5485 88.5006 32.9577 91.4725 32.9577Z" fill="#FFD100"></path>
  <path d="M15.9587 15.6094V22.6612H21.8218C20.9704 24.0105 19.0428 24.7173 17.7257 24.7173C13.3243 24.7173 11.1076 22.1954 11.1076 17.1354C11.1076 11.5293 14.015 8.67002 19.7978 8.67002C22.0949 8.67002 25.0987 9.24831 28.3114 10.2603V1.82705C27.3797 1.42546 25.9661 1.12026 24.1671 0.815057C22.5447 0.54198 20.9062 0.381348 19.2677 0.381348C13.5331 0.381348 8.9872 1.92343 5.59784 5.00759C2.20847 8.09175 0.473633 12.2361 0.473633 17.4888C0.473633 22.2917 1.79083 26.0827 4.44128 28.8777C7.09173 31.7048 10.6578 33.1184 15.1555 33.1184C19.6854 33.1184 23.8297 30.7732 25.163 27.8015L25.1308 32.5883H31.6686V15.6094H15.9587ZM34.8974 32.5723V0.895374H45.0494V24.3157H56.117V32.5723H34.8974ZM59.3458 31.7852V23.1431C60.8396 23.625 62.6066 24.0266 64.5985 24.38C66.5903 24.7334 68.3091 24.9101 69.7548 24.9101C72.2285 24.9101 73.4976 24.2997 73.4976 23.1913C73.4976 22.4845 73.096 22.1311 71.2969 21.7295L67.7629 20.9424C61.7231 19.577 58.896 16.5411 58.896 11.3687C58.896 7.9793 60.0847 5.28066 62.4299 3.28881C64.7752 1.34515 68.036 0.381348 72.1322 0.381348C74.9593 0.381348 79.2803 0.959627 81.9308 1.61822V9.87477C80.5654 9.52138 78.927 9.16799 76.9351 8.86279C74.9433 8.55758 73.4012 8.42908 72.2607 8.42908C70.0921 8.42908 68.8713 9.03948 68.8713 10.1479C68.8713 10.8064 69.4496 11.2562 70.6383 11.5614L74.7344 12.5252C80.7421 13.9388 83.5211 17.023 83.5211 22.2757C83.5211 25.6329 82.2842 28.2834 79.8586 30.211C77.4331 32.1386 74.0758 33.1184 69.803 33.1184C65.739 33.1024 61.6428 32.5241 59.3458 31.7852Z" fill="#061AB1"></path>
</svg>
