<?xml version="1.0" encoding="UTF-8"?>
<svg xmlns="http://www.w3.org/2000/svg" xmlns:xlink="http://www.w3.org/1999/xlink" width="101px" height="29px" viewBox="0 0 101 29">
  <g id="surface1">
    <path style=" stroke:none;fill-rule:nonzero;fill:rgb(100%,100%,100%);fill-opacity:1;" d="M 66.207031 29.03125 C 44.140625 29.03125 22.085938 29.03125 0.03125 29.03125 C 0.03125 19.367188 0.03125 9.699219 0.03125 0.03125 C 33.699219 0.03125 67.367188 0.03125 101.03125 0.03125 C 101.03125 9.699219 101.03125 19.367188 101.03125 29.03125 C 89.429688 29.03125 77.828125 29.03125 66.207031 29.03125 M 57.480469 13.597656 C 57.46875 13.789062 57.441406 13.984375 57.449219 14.179688 C 57.46875 14.613281 57.5 15.046875 57.542969 15.480469 C 57.609375 16.144531 57.816406 16.773438 58.09375 17.375 C 58.460938 18.179688 58.96875 18.878906 59.640625 19.460938 C 60.109375 19.871094 60.625 20.203125 61.1875 20.472656 C 61.960938 20.839844 62.78125 21.042969 63.628906 21.113281 C 64.050781 21.148438 64.476562 21.144531 64.898438 21.113281 C 65.34375 21.078125 65.789062 21.015625 66.230469 20.917969 C 67.160156 20.71875 68 20.300781 68.757812 19.714844 C 69.019531 19.511719 69.28125 19.289062 69.570312 19.140625 C 70.113281 18.859375 70.691406 18.753906 71.308594 18.828125 C 71.816406 18.886719 72.28125 19.03125 72.695312 19.335938 C 72.980469 19.546875 73.257812 19.773438 73.546875 19.976562 C 74.101562 20.359375 74.707031 20.632812 75.347656 20.828125 C 76.015625 21.035156 76.699219 21.140625 77.394531 21.148438 C 77.84375 21.148438 78.292969 21.113281 78.734375 21.046875 C 79.191406 20.980469 79.648438 20.886719 80.085938 20.742188 C 80.902344 20.476562 81.648438 20.054688 82.292969 19.476562 C 82.878906 18.953125 83.375 18.351562 83.71875 17.640625 C 83.925781 17.214844 84.089844 16.765625 84.230469 16.3125 C 84.394531 15.800781 84.457031 15.261719 84.476562 14.722656 C 84.488281 14.371094 84.476562 14.019531 84.441406 13.667969 C 84.40625 13.289062 84.363281 12.902344 84.269531 12.535156 C 84.078125 11.757812 83.757812 11.035156 83.304688 10.378906 C 82.96875 9.886719 82.570312 9.453125 82.109375 9.078125 C 81.613281 8.675781 81.0625 8.355469 80.46875 8.113281 C 79.671875 7.785156 78.835938 7.613281 77.976562 7.585938 C 77.683594 7.578125 77.390625 7.570312 77.097656 7.589844 C 76.773438 7.605469 76.449219 7.628906 76.132812 7.691406 C 75.601562 7.792969 75.085938 7.949219 74.585938 8.167969 C 74.035156 8.410156 73.535156 8.726562 73.0625 9.09375 C 72.820312 9.285156 72.574219 9.492188 72.296875 9.625 C 71.722656 9.910156 71.101562 9.964844 70.464844 9.875 C 69.90625 9.796875 69.417969 9.566406 68.996094 9.195312 C 68.585938 8.839844 68.136719 8.542969 67.652344 8.304688 C 67.078125 8.027344 66.480469 7.820312 65.847656 7.710938 C 65.273438 7.609375 64.695312 7.53125 64.109375 7.585938 C 63.75 7.617188 63.386719 7.636719 63.027344 7.6875 C 62.367188 7.773438 61.738281 7.976562 61.136719 8.261719 C 60.273438 8.675781 59.535156 9.25 58.925781 9.996094 C 58.460938 10.570312 58.117188 11.207031 57.863281 11.898438 C 57.667969 12.441406 57.558594 13 57.480469 13.597656 M 14.472656 20.714844 C 15.941406 20.246094 17.222656 19.472656 18.261719 18.328125 C 19.292969 17.1875 19.953125 15.851562 20.261719 14.347656 C 20.234375 14.328125 20.230469 14.324219 20.226562 14.324219 C 18.78125 14.324219 17.335938 14.320312 15.894531 14.324219 C 15.851562 14.324219 15.796875 14.371094 15.777344 14.414062 C 15.710938 14.535156 15.671875 14.667969 15.605469 14.789062 C 15.339844 15.261719 15.042969 15.71875 14.609375 16.0625 C 14.367188 16.253906 14.117188 16.449219 13.851562 16.605469 C 13.296875 16.925781 12.699219 17.109375 12.058594 17.167969 C 11.457031 17.222656 10.863281 17.214844 10.277344 17.074219 C 9.640625 16.921875 9.070312 16.652344 8.5625 16.234375 C 8.082031 15.839844 7.71875 15.359375 7.449219 14.808594 C 7.121094 14.128906 6.953125 13.394531 6.921875 12.644531 C 6.902344 12.214844 6.925781 11.777344 6.984375 11.351562 C 7.066406 10.757812 7.261719 10.195312 7.550781 9.664062 C 7.972656 8.886719 8.578125 8.300781 9.347656 7.882812 C 9.816406 7.625 10.328125 7.476562 10.851562 7.394531 C 11.125 7.351562 11.40625 7.332031 11.679688 7.328125 C 11.902344 7.328125 12.125 7.367188 12.347656 7.390625 C 12.855469 7.4375 13.339844 7.582031 13.796875 7.800781 C 14.367188 8.078125 14.859375 8.457031 15.269531 8.949219 C 15.554688 9.296875 15.777344 9.679688 15.953125 10.089844 C 16.007812 10.210938 16.058594 10.234375 16.167969 10.234375 C 17.546875 10.234375 18.925781 10.234375 20.304688 10.234375 C 20.363281 10.234375 20.417969 10.234375 20.480469 10.234375 C 20.464844 10.175781 20.453125 10.140625 20.445312 10.105469 C 20.308594 9.445312 20.085938 8.8125 19.796875 8.207031 C 19.484375 7.558594 19.109375 6.945312 18.617188 6.421875 C 18.242188 6.019531 17.859375 5.621094 17.4375 5.277344 C 16.898438 4.828125 16.285156 4.480469 15.640625 4.199219 C 15.378906 4.089844 15.121094 3.96875 14.847656 3.894531 C 14.324219 3.757812 13.796875 3.636719 13.265625 3.535156 C 12.914062 3.464844 12.554688 3.417969 12.195312 3.40625 C 11.535156 3.382812 10.871094 3.378906 10.222656 3.5 C 9.675781 3.605469 9.125 3.714844 8.589844 3.855469 C 8.003906 4.011719 7.457031 4.269531 6.921875 4.554688 C 6.234375 4.921875 5.609375 5.375 5.054688 5.917969 C 4.765625 6.199219 4.511719 6.511719 4.25 6.820312 C 3.882812 7.257812 3.585938 7.75 3.335938 8.265625 C 3.027344 8.902344 2.769531 9.5625 2.648438 10.265625 C 2.558594 10.808594 2.472656 11.351562 2.445312 11.898438 C 2.417969 12.382812 2.464844 12.871094 2.503906 13.355469 C 2.527344 13.683594 2.566406 14.015625 2.640625 14.335938 C 2.839844 15.214844 3.136719 16.058594 3.589844 16.847656 C 3.921875 17.429688 4.3125 17.976562 4.78125 18.457031 C 5.101562 18.785156 5.453125 19.082031 5.8125 19.371094 C 6.375 19.816406 7 20.160156 7.660156 20.429688 C 8.367188 20.71875 9.097656 20.933594 9.859375 21.023438 C 10.289062 21.070312 10.714844 21.136719 11.144531 21.144531 C 11.621094 21.15625 12.097656 21.125 12.574219 21.082031 C 12.914062 21.054688 13.253906 20.988281 13.589844 20.925781 C 13.878906 20.867188 14.164062 20.792969 14.472656 20.714844 M 22.199219 11.554688 C 22.1875 11.667969 22.171875 11.777344 22.167969 11.890625 C 22.152344 12.199219 22.144531 12.507812 22.132812 12.8125 C 22.125 13.148438 22.105469 13.484375 22.101562 13.820312 C 22.09375 14.566406 22.09375 15.308594 22.226562 16.046875 C 22.339844 16.679688 22.507812 17.292969 22.78125 17.875 C 23.09375 18.535156 23.503906 19.125 24.054688 19.613281 C 24.550781 20.046875 25.097656 20.382812 25.714844 20.601562 C 26.121094 20.746094 26.53125 20.839844 26.957031 20.898438 C 27.453125 20.964844 27.949219 20.964844 28.4375 20.882812 C 28.871094 20.808594 29.285156 20.65625 29.667969 20.417969 C 29.957031 20.234375 30.222656 20.03125 30.441406 19.765625 C 30.558594 19.625 30.683594 19.488281 30.800781 19.355469 C 30.800781 19.425781 30.800781 19.488281 30.800781 19.550781 C 30.800781 20.050781 30.8125 20.554688 30.796875 21.054688 C 30.785156 21.351562 30.757812 21.652344 30.695312 21.945312 C 30.609375 22.34375 30.425781 22.710938 30.101562 22.976562 C 29.652344 23.34375 29.113281 23.460938 28.550781 23.472656 C 28.289062 23.476562 28.023438 23.472656 27.761719 23.4375 C 27.441406 23.394531 27.125 23.316406 26.84375 23.136719 C 26.507812 22.925781 26.273438 22.628906 26.113281 22.273438 C 24.808594 22.273438 23.507812 22.273438 22.15625 22.273438 C 22.304688 22.722656 22.421875 23.164062 22.597656 23.578125 C 22.921875 24.355469 23.421875 25.007812 24.070312 25.542969 C 24.480469 25.878906 24.925781 26.148438 25.410156 26.347656 C 26.398438 26.753906 27.4375 26.894531 28.496094 26.90625 C 28.652344 26.90625 28.808594 26.890625 28.960938 26.875 C 29.292969 26.84375 29.632812 26.832031 29.960938 26.769531 C 30.695312 26.628906 31.402344 26.410156 32.058594 26.027344 C 32.695312 25.65625 33.230469 25.179688 33.65625 24.578125 C 34.09375 23.960938 34.371094 23.277344 34.542969 22.542969 C 34.675781 21.992188 34.75 21.433594 34.753906 20.878906 C 34.765625 16.734375 34.757812 12.59375 34.757812 8.453125 C 34.757812 8.394531 34.757812 8.339844 34.757812 8.28125 C 33.441406 8.28125 32.140625 8.28125 30.832031 8.28125 C 30.832031 8.351562 30.832031 8.410156 30.832031 8.46875 C 30.832031 10.46875 30.828125 12.46875 30.835938 14.46875 C 30.835938 14.902344 30.777344 15.324219 30.632812 15.726562 C 30.382812 16.417969 29.941406 16.925781 29.21875 17.144531 C 28.753906 17.28125 28.292969 17.292969 27.816406 17.199219 C 27.171875 17.070312 26.695312 16.722656 26.386719 16.144531 C 26.066406 15.539062 25.980469 14.890625 26.027344 14.210938 C 26.050781 13.867188 26.050781 13.519531 26.0625 13.171875 C 26.070312 12.871094 26.082031 12.566406 26.09375 12.265625 C 26.105469 11.929688 26.113281 11.59375 26.125 11.257812 C 26.136719 10.949219 26.152344 10.644531 26.15625 10.335938 C 26.171875 9.804688 26.179688 9.273438 26.191406 8.738281 C 26.195312 8.585938 26.210938 8.433594 26.222656 8.28125 C 24.90625 8.28125 23.605469 8.28125 22.3125 8.28125 C 22.296875 8.519531 22.277344 8.746094 22.265625 8.96875 C 22.25 9.285156 22.238281 9.597656 22.230469 9.910156 C 22.21875 10.449219 22.210938 10.984375 22.199219 11.554688 M 94.792969 20.828125 C 96.058594 20.828125 97.328125 20.828125 98.597656 20.828125 C 98.597656 19.492188 98.609375 18.1875 98.59375 16.878906 C 98.578125 15.554688 98.675781 14.226562 98.53125 12.90625 C 98.492188 12.570312 98.4375 12.230469 98.351562 11.902344 C 98.207031 11.339844 98 10.800781 97.707031 10.292969 C 97.398438 9.765625 97.015625 9.300781 96.550781 8.914062 C 96.117188 8.554688 95.632812 8.285156 95.109375 8.070312 C 94.421875 7.785156 93.699219 7.648438 92.960938 7.589844 C 92.636719 7.5625 92.308594 7.574219 91.984375 7.589844 C 91.621094 7.605469 91.253906 7.640625 90.890625 7.683594 C 90.171875 7.777344 89.5 8.003906 88.867188 8.351562 C 88.332031 8.640625 87.855469 9.007812 87.453125 9.472656 C 87.101562 9.878906 86.820312 10.320312 86.59375 10.804688 C 86.136719 11.785156 85.957031 12.835938 85.949219 13.902344 C 85.925781 16.152344 85.941406 18.402344 85.941406 20.652344 C 85.941406 20.707031 85.941406 20.757812 85.941406 20.820312 C 87.253906 20.820312 88.554688 20.820312 89.867188 20.820312 C 89.867188 20.753906 89.867188 20.695312 89.867188 20.636719 C 89.867188 18.390625 89.859375 16.144531 89.875 13.902344 C 89.878906 13.550781 89.941406 13.1875 90.039062 12.847656 C 90.222656 12.207031 90.597656 11.703125 91.234375 11.445312 C 91.761719 11.226562 92.308594 11.199219 92.871094 11.308594 C 93.675781 11.464844 94.191406 11.945312 94.476562 12.699219 C 94.640625 13.144531 94.695312 13.613281 94.699219 14.082031 C 94.710938 14.941406 94.703125 15.804688 94.703125 16.664062 C 94.703125 18 94.703125 19.332031 94.707031 20.667969 C 94.707031 20.722656 94.742188 20.773438 94.792969 20.828125 M 36.605469 15.78125 C 36.609375 15.820312 36.601562 15.859375 36.613281 15.894531 C 36.789062 16.617188 37.027344 17.3125 37.40625 17.957031 C 37.769531 18.566406 38.214844 19.101562 38.746094 19.554688 C 39.253906 19.992188 39.828125 20.324219 40.445312 20.585938 C 41.261719 20.9375 42.117188 21.097656 42.996094 21.148438 C 43.316406 21.167969 43.640625 21.140625 43.960938 21.117188 C 44.269531 21.097656 44.578125 21.078125 44.878906 21.015625 C 45.660156 20.859375 46.402344 20.585938 47.09375 20.175781 C 47.875 19.703125 48.523438 19.09375 49.039062 18.335938 C 49.457031 17.722656 49.746094 17.050781 49.9375 16.335938 C 49.988281 16.140625 50.019531 15.941406 50.0625 15.730469 C 48.71875 15.730469 47.410156 15.730469 46.101562 15.730469 C 46.066406 15.800781 46.027344 15.871094 45.992188 15.941406 C 45.726562 16.46875 45.332031 16.867188 44.808594 17.132812 C 44.140625 17.464844 43.4375 17.542969 42.707031 17.394531 C 41.835938 17.21875 41.203125 16.730469 40.792969 15.9375 C 40.609375 15.582031 40.511719 15.203125 40.464844 14.800781 C 40.40625 14.308594 40.4375 13.828125 40.570312 13.355469 C 40.804688 12.53125 41.277344 11.894531 42.058594 11.53125 C 42.671875 11.246094 43.3125 11.175781 43.980469 11.308594 C 44.910156 11.492188 45.609375 11.980469 46.019531 12.851562 C 46.066406 12.949219 46.117188 12.984375 46.226562 12.984375 C 47.453125 12.976562 48.679688 12.980469 49.910156 12.980469 C 49.953125 12.980469 49.992188 12.976562 50.070312 12.972656 C 50.015625 12.761719 49.964844 12.5625 49.917969 12.363281 C 49.65625 11.246094 49.089844 10.300781 48.304688 9.484375 C 48.082031 9.253906 47.816406 9.058594 47.558594 8.859375 C 46.933594 8.378906 46.230469 8.050781 45.472656 7.851562 C 45.050781 7.742188 44.613281 7.683594 44.179688 7.621094 C 43.890625 7.578125 43.597656 7.558594 43.304688 7.558594 C 43.042969 7.554688 42.78125 7.589844 42.523438 7.621094 C 42.207031 7.660156 41.890625 7.691406 41.582031 7.765625 C 40.949219 7.914062 40.328125 8.117188 39.773438 8.46875 C 39.371094 8.722656 38.964844 8.980469 38.609375 9.292969 C 37.9375 9.886719 37.425781 10.609375 37.0625 11.441406 C 36.730469 12.191406 36.539062 12.976562 36.488281 13.789062 C 36.445312 14.445312 36.460938 15.105469 36.605469 15.78125 M 51.796875 4.136719 C 51.796875 9.695312 51.796875 15.257812 51.796875 20.816406 C 53.117188 20.816406 54.417969 20.816406 55.714844 20.816406 C 55.714844 14.636719 55.714844 8.46875 55.714844 2.296875 C 54.40625 2.296875 53.105469 2.296875 51.796875 2.296875 C 51.796875 2.90625 51.796875 3.503906 51.796875 4.136719 Z M 51.796875 4.136719 "></path>
    <path style=" stroke:none;fill-rule:nonzero;fill:rgb(89.411765%,0%,16.862745%);fill-opacity:1;" d="M 57.484375 13.582031 C 57.558594 13 57.667969 12.441406 57.863281 11.898438 C 58.117188 11.207031 58.460938 10.570312 58.925781 9.996094 C 59.535156 9.25 60.273438 8.675781 61.136719 8.261719 C 61.738281 7.976562 62.367188 7.773438 63.027344 7.6875 C 63.386719 7.636719 63.75 7.617188 64.109375 7.585938 C 64.695312 7.53125 65.273438 7.609375 65.847656 7.710938 C 66.480469 7.820312 67.078125 8.027344 67.652344 8.304688 C 68.136719 8.542969 68.585938 8.839844 68.996094 9.195312 C 69.417969 9.566406 69.90625 9.796875 70.464844 9.875 C 71.101562 9.964844 71.722656 9.910156 72.296875 9.625 C 72.574219 9.492188 72.820312 9.285156 73.0625 9.09375 C 73.535156 8.726562 74.035156 8.410156 74.585938 8.167969 C 75.085938 7.949219 75.601562 7.792969 76.132812 7.691406 C 76.449219 7.628906 76.773438 7.605469 77.097656 7.589844 C 77.390625 7.570312 77.683594 7.578125 77.976562 7.585938 C 78.835938 7.613281 79.671875 7.785156 80.46875 8.113281 C 81.0625 8.355469 81.613281 8.675781 82.109375 9.078125 C 82.570312 9.453125 82.96875 9.886719 83.304688 10.378906 C 83.757812 11.035156 84.078125 11.757812 84.269531 12.535156 C 84.363281 12.902344 84.40625 13.289062 84.441406 13.667969 C 84.476562 14.019531 84.488281 14.371094 84.476562 14.722656 C 84.457031 15.261719 84.394531 15.800781 84.230469 16.3125 C 84.089844 16.765625 83.925781 17.214844 83.71875 17.640625 C 83.375 18.351562 82.878906 18.953125 82.292969 19.476562 C 81.648438 20.054688 80.902344 20.476562 80.085938 20.742188 C 79.648438 20.886719 79.191406 20.980469 78.734375 21.046875 C 78.292969 21.113281 77.84375 21.148438 77.394531 21.148438 C 76.699219 21.140625 76.015625 21.035156 75.347656 20.828125 C 74.707031 20.632812 74.101562 20.359375 73.546875 19.976562 C 73.257812 19.773438 72.980469 19.546875 72.695312 19.335938 C 72.28125 19.03125 71.816406 18.886719 71.308594 18.828125 C 70.691406 18.753906 70.113281 18.859375 69.570312 19.140625 C 69.28125 19.289062 69.019531 19.511719 68.757812 19.714844 C 68 20.300781 67.160156 20.71875 66.230469 20.917969 C 65.789062 21.015625 65.34375 21.078125 64.898438 21.113281 C 64.476562 21.144531 64.050781 21.148438 63.628906 21.113281 C 62.78125 21.042969 61.960938 20.839844 61.1875 20.472656 C 60.625 20.203125 60.109375 19.871094 59.640625 19.460938 C 58.96875 18.878906 58.460938 18.179688 58.09375 17.375 C 57.816406 16.773438 57.609375 16.144531 57.542969 15.480469 C 57.5 15.046875 57.46875 14.613281 57.449219 14.179688 C 57.441406 13.984375 57.46875 13.789062 57.484375 13.582031 M 67.863281 15.773438 C 67.976562 15.726562 68.085938 15.683594 68.199219 15.636719 C 68.964844 15.324219 69.769531 15.171875 70.589844 15.144531 C 71.058594 15.128906 71.535156 15.160156 72.003906 15.210938 C 72.363281 15.246094 72.722656 15.320312 73.074219 15.410156 C 74.070312 15.664062 74.9375 16.175781 75.722656 16.832031 C 76.160156 17.199219 76.667969 17.398438 77.21875 17.449219 C 77.566406 17.480469 77.925781 17.4375 78.273438 17.390625 C 78.929688 17.296875 79.445312 16.933594 79.859375 16.433594 C 80.269531 15.9375 80.464844 15.339844 80.515625 14.707031 C 80.574219 13.96875 80.464844 13.25 80.070312 12.597656 C 79.738281 12.046875 79.277344 11.660156 78.679688 11.445312 C 78.210938 11.273438 77.726562 11.207031 77.226562 11.277344 C 76.902344 11.320312 76.589844 11.390625 76.289062 11.53125 C 75.976562 11.675781 75.722656 11.898438 75.457031 12.109375 C 74.796875 12.628906 74.066406 13.023438 73.265625 13.269531 C 72.597656 13.476562 71.914062 13.585938 71.21875 13.597656 C 70.8125 13.601562 70.402344 13.578125 70 13.53125 C 69.578125 13.476562 69.152344 13.402344 68.746094 13.289062 C 67.800781 13.019531 66.960938 12.542969 66.21875 11.894531 C 65.726562 11.46875 65.136719 11.285156 64.503906 11.253906 C 64.238281 11.238281 63.96875 11.273438 63.707031 11.316406 C 63.234375 11.398438 62.808594 11.605469 62.441406 11.921875 C 61.832031 12.449219 61.519531 13.144531 61.445312 13.929688 C 61.375 14.699219 61.46875 15.453125 61.886719 16.140625 C 62.136719 16.546875 62.457031 16.867188 62.867188 17.097656 C 63.492188 17.453125 64.167969 17.519531 64.871094 17.429688 C 65.425781 17.355469 65.902344 17.109375 66.328125 16.761719 C 66.796875 16.375 67.292969 16.039062 67.863281 15.773438 Z M 67.863281 15.773438 "></path>
    <path style=" stroke:none;fill-rule:nonzero;fill:rgb(89.411765%,0%,16.862745%);fill-opacity:1;" d="M 14.460938 20.71875 C 14.164062 20.792969 13.878906 20.867188 13.589844 20.925781 C 13.253906 20.988281 12.914062 21.054688 12.574219 21.082031 C 12.097656 21.125 11.621094 21.15625 11.144531 21.144531 C 10.714844 21.136719 10.289062 21.070312 9.859375 21.023438 C 9.097656 20.933594 8.367188 20.71875 7.660156 20.429688 C 7 20.160156 6.375 19.816406 5.8125 19.371094 C 5.453125 19.082031 5.101562 18.785156 4.78125 18.457031 C 4.3125 17.976562 3.921875 17.429688 3.589844 16.847656 C 3.136719 16.058594 2.839844 15.214844 2.640625 14.335938 C 2.566406 14.015625 2.527344 13.683594 2.503906 13.355469 C 2.464844 12.871094 2.417969 12.382812 2.445312 11.898438 C 2.472656 11.351562 2.558594 10.808594 2.648438 10.265625 C 2.769531 9.5625 3.027344 8.902344 3.335938 8.265625 C 3.585938 7.75 3.882812 7.257812 4.25 6.820312 C 4.511719 6.511719 4.765625 6.199219 5.054688 5.917969 C 5.609375 5.375 6.234375 4.921875 6.921875 4.554688 C 7.457031 4.269531 8.003906 4.011719 8.589844 3.855469 C 9.125 3.714844 9.675781 3.605469 10.222656 3.5 C 10.871094 3.378906 11.535156 3.382812 12.195312 3.40625 C 12.554688 3.417969 12.914062 3.464844 13.265625 3.535156 C 13.796875 3.636719 14.324219 3.757812 14.847656 3.894531 C 15.121094 3.96875 15.378906 4.089844 15.640625 4.199219 C 16.285156 4.480469 16.898438 4.828125 17.4375 5.277344 C 17.859375 5.621094 18.242188 6.019531 18.617188 6.421875 C 19.109375 6.945312 19.484375 7.558594 19.796875 8.207031 C 20.085938 8.8125 20.308594 9.445312 20.445312 10.105469 C 20.453125 10.140625 20.464844 10.175781 20.480469 10.234375 C 20.417969 10.234375 20.363281 10.234375 20.304688 10.234375 C 18.925781 10.234375 17.546875 10.234375 16.167969 10.234375 C 16.058594 10.234375 16.007812 10.210938 15.953125 10.089844 C 15.777344 9.679688 15.554688 9.296875 15.269531 8.949219 C 14.859375 8.457031 14.367188 8.078125 13.796875 7.800781 C 13.339844 7.582031 12.855469 7.4375 12.347656 7.390625 C 12.125 7.367188 11.902344 7.328125 11.679688 7.328125 C 11.40625 7.332031 11.125 7.351562 10.851562 7.394531 C 10.328125 7.476562 9.816406 7.625 9.347656 7.882812 C 8.578125 8.300781 7.972656 8.886719 7.550781 9.664062 C 7.261719 10.195312 7.066406 10.757812 6.984375 11.351562 C 6.925781 11.777344 6.902344 12.214844 6.921875 12.644531 C 6.953125 13.394531 7.121094 14.128906 7.449219 14.808594 C 7.71875 15.359375 8.082031 15.839844 8.5625 16.234375 C 9.070312 16.652344 9.640625 16.921875 10.277344 17.074219 C 10.863281 17.214844 11.457031 17.222656 12.058594 17.167969 C 12.699219 17.109375 13.296875 16.925781 13.851562 16.605469 C 14.117188 16.449219 14.367188 16.253906 14.609375 16.0625 C 15.042969 15.71875 15.339844 15.261719 15.605469 14.789062 C 15.671875 14.667969 15.710938 14.535156 15.777344 14.414062 C 15.796875 14.371094 15.851562 14.324219 15.894531 14.324219 C 17.335938 14.320312 18.78125 14.324219 20.226562 14.324219 C 20.230469 14.324219 20.234375 14.328125 20.261719 14.347656 C 19.953125 15.851562 19.292969 17.1875 18.261719 18.328125 C 17.222656 19.472656 15.941406 20.246094 14.460938 20.71875 Z M 14.460938 20.71875 "></path>
    <path style=" stroke:none;fill-rule:nonzero;fill:rgb(89.411765%,0%,16.862745%);fill-opacity:1;" d="M 22.199219 11.539062 C 22.210938 10.984375 22.21875 10.449219 22.230469 9.910156 C 22.238281 9.597656 22.25 9.285156 22.265625 8.96875 C 22.277344 8.746094 22.296875 8.519531 22.3125 8.28125 C 23.605469 8.28125 24.90625 8.28125 26.222656 8.28125 C 26.210938 8.433594 26.195312 8.585938 26.191406 8.738281 C 26.179688 9.273438 26.171875 9.804688 26.15625 10.335938 C 26.152344 10.644531 26.136719 10.949219 26.125 11.257812 C 26.113281 11.59375 26.105469 11.929688 26.09375 12.265625 C 26.082031 12.566406 26.070312 12.871094 26.0625 13.171875 C 26.050781 13.519531 26.050781 13.867188 26.027344 14.210938 C 25.980469 14.890625 26.066406 15.539062 26.386719 16.144531 C 26.695312 16.722656 27.171875 17.070312 27.816406 17.199219 C 28.292969 17.292969 28.753906 17.28125 29.21875 17.144531 C 29.941406 16.925781 30.382812 16.417969 30.632812 15.726562 C 30.777344 15.324219 30.835938 14.902344 30.835938 14.46875 C 30.828125 12.46875 30.832031 10.46875 30.832031 8.46875 C 30.832031 8.410156 30.832031 8.351562 30.832031 8.28125 C 32.140625 8.28125 33.441406 8.28125 34.757812 8.28125 C 34.757812 8.339844 34.757812 8.394531 34.757812 8.453125 C 34.757812 12.59375 34.765625 16.734375 34.753906 20.878906 C 34.75 21.433594 34.675781 21.992188 34.542969 22.542969 C 34.371094 23.277344 34.09375 23.960938 33.65625 24.578125 C 33.230469 25.179688 32.695312 25.65625 32.058594 26.027344 C 31.402344 26.410156 30.695312 26.628906 29.960938 26.769531 C 29.632812 26.832031 29.292969 26.84375 28.960938 26.875 C 28.808594 26.890625 28.652344 26.90625 28.496094 26.90625 C 27.4375 26.894531 26.398438 26.753906 25.410156 26.347656 C 24.925781 26.148438 24.480469 25.878906 24.070312 25.542969 C 23.421875 25.007812 22.921875 24.355469 22.597656 23.578125 C 22.421875 23.164062 22.304688 22.722656 22.15625 22.273438 C 23.507812 22.273438 24.808594 22.273438 26.113281 22.273438 C 26.273438 22.628906 26.507812 22.925781 26.84375 23.136719 C 27.125 23.316406 27.441406 23.394531 27.761719 23.4375 C 28.023438 23.472656 28.289062 23.476562 28.550781 23.472656 C 29.113281 23.460938 29.652344 23.34375 30.101562 22.976562 C 30.425781 22.710938 30.609375 22.34375 30.695312 21.945312 C 30.757812 21.652344 30.785156 21.351562 30.796875 21.054688 C 30.8125 20.554688 30.800781 20.050781 30.800781 19.550781 C 30.800781 19.488281 30.800781 19.425781 30.800781 19.355469 C 30.683594 19.488281 30.558594 19.625 30.441406 19.765625 C 30.222656 20.03125 29.957031 20.234375 29.667969 20.417969 C 29.285156 20.65625 28.871094 20.808594 28.4375 20.882812 C 27.949219 20.964844 27.453125 20.964844 26.957031 20.898438 C 26.53125 20.839844 26.121094 20.746094 25.714844 20.601562 C 25.097656 20.382812 24.550781 20.046875 24.054688 19.613281 C 23.503906 19.125 23.09375 18.535156 22.78125 17.875 C 22.507812 17.292969 22.339844 16.679688 22.226562 16.046875 C 22.09375 15.308594 22.09375 14.566406 22.101562 13.820312 C 22.105469 13.484375 22.125 13.148438 22.132812 12.8125 C 22.144531 12.507812 22.152344 12.199219 22.167969 11.890625 C 22.171875 11.777344 22.1875 11.667969 22.199219 11.539062 Z M 22.199219 11.539062 "></path>
    <path style=" stroke:none;fill-rule:nonzero;fill:rgb(89.411765%,0%,16.862745%);fill-opacity:1;" d="M 94.777344 20.828125 C 94.742188 20.773438 94.707031 20.722656 94.707031 20.667969 C 94.703125 19.332031 94.703125 18 94.703125 16.664062 C 94.703125 15.804688 94.710938 14.941406 94.699219 14.082031 C 94.695312 13.613281 94.640625 13.144531 94.476562 12.699219 C 94.191406 11.945312 93.675781 11.464844 92.871094 11.308594 C 92.308594 11.199219 91.761719 11.226562 91.234375 11.445312 C 90.597656 11.703125 90.222656 12.207031 90.039062 12.847656 C 89.941406 13.1875 89.878906 13.550781 89.875 13.902344 C 89.859375 16.144531 89.867188 18.390625 89.867188 20.636719 C 89.867188 20.695312 89.867188 20.753906 89.867188 20.820312 C 88.554688 20.820312 87.253906 20.820312 85.941406 20.820312 C 85.941406 20.757812 85.941406 20.707031 85.941406 20.652344 C 85.941406 18.402344 85.925781 16.152344 85.949219 13.902344 C 85.957031 12.835938 86.136719 11.785156 86.59375 10.804688 C 86.820312 10.320312 87.101562 9.878906 87.453125 9.472656 C 87.855469 9.007812 88.332031 8.640625 88.867188 8.351562 C 89.5 8.003906 90.171875 7.777344 90.890625 7.683594 C 91.253906 7.640625 91.621094 7.605469 91.984375 7.589844 C 92.308594 7.574219 92.636719 7.5625 92.960938 7.589844 C 93.699219 7.648438 94.421875 7.785156 95.109375 8.070312 C 95.632812 8.285156 96.117188 8.554688 96.550781 8.914062 C 97.015625 9.300781 97.398438 9.765625 97.707031 10.292969 C 98 10.800781 98.207031 11.339844 98.351562 11.902344 C 98.4375 12.230469 98.492188 12.570312 98.53125 12.90625 C 98.675781 14.226562 98.578125 15.554688 98.59375 16.878906 C 98.609375 18.1875 98.597656 19.492188 98.597656 20.828125 C 97.328125 20.828125 96.058594 20.828125 94.777344 20.828125 Z M 94.777344 20.828125 "></path>
    <path style=" stroke:none;fill-rule:nonzero;fill:rgb(89.411765%,0%,16.862745%);fill-opacity:1;" d="M 36.597656 15.769531 C 36.460938 15.105469 36.445312 14.445312 36.488281 13.789062 C 36.539062 12.976562 36.730469 12.191406 37.0625 11.441406 C 37.425781 10.609375 37.9375 9.886719 38.609375 9.292969 C 38.964844 8.980469 39.371094 8.722656 39.773438 8.46875 C 40.328125 8.117188 40.949219 7.914062 41.582031 7.765625 C 41.890625 7.691406 42.207031 7.660156 42.523438 7.621094 C 42.78125 7.589844 43.042969 7.554688 43.304688 7.558594 C 43.597656 7.558594 43.890625 7.578125 44.179688 7.621094 C 44.613281 7.683594 45.050781 7.742188 45.472656 7.851562 C 46.230469 8.050781 46.933594 8.378906 47.558594 8.859375 C 47.816406 9.058594 48.082031 9.253906 48.304688 9.484375 C 49.089844 10.300781 49.65625 11.246094 49.917969 12.363281 C 49.964844 12.5625 50.015625 12.761719 50.070312 12.972656 C 49.992188 12.976562 49.953125 12.980469 49.910156 12.980469 C 48.679688 12.980469 47.453125 12.976562 46.226562 12.984375 C 46.117188 12.984375 46.066406 12.949219 46.019531 12.851562 C 45.609375 11.980469 44.910156 11.492188 43.980469 11.308594 C 43.3125 11.175781 42.671875 11.246094 42.058594 11.53125 C 41.277344 11.894531 40.804688 12.53125 40.570312 13.355469 C 40.4375 13.828125 40.40625 14.308594 40.464844 14.800781 C 40.511719 15.203125 40.609375 15.582031 40.792969 15.9375 C 41.203125 16.730469 41.835938 17.21875 42.707031 17.394531 C 43.4375 17.542969 44.140625 17.464844 44.808594 17.132812 C 45.332031 16.867188 45.726562 16.46875 45.992188 15.941406 C 46.027344 15.871094 46.066406 15.800781 46.101562 15.730469 C 47.410156 15.730469 48.71875 15.730469 50.0625 15.730469 C 50.019531 15.941406 49.988281 16.140625 49.9375 16.335938 C 49.746094 17.050781 49.457031 17.722656 49.039062 18.335938 C 48.523438 19.09375 47.875 19.703125 47.09375 20.175781 C 46.402344 20.585938 45.660156 20.859375 44.878906 21.015625 C 44.578125 21.078125 44.269531 21.097656 43.960938 21.117188 C 43.640625 21.140625 43.316406 21.167969 42.996094 21.148438 C 42.117188 21.097656 41.261719 20.9375 40.445312 20.585938 C 39.828125 20.324219 39.253906 19.992188 38.746094 19.554688 C 38.214844 19.101562 37.769531 18.566406 37.40625 17.957031 C 37.027344 17.3125 36.789062 16.617188 36.613281 15.894531 C 36.601562 15.859375 36.609375 15.820312 36.597656 15.769531 Z M 36.597656 15.769531 "></path>
    <path style=" stroke:none;fill-rule:nonzero;fill:rgb(89.411765%,0%,16.862745%);fill-opacity:1;" d="M 51.796875 4.121094 C 51.796875 3.503906 51.796875 2.90625 51.796875 2.296875 C 53.105469 2.296875 54.40625 2.296875 55.714844 2.296875 C 55.714844 8.46875 55.714844 14.636719 55.714844 20.816406 C 54.417969 20.816406 53.117188 20.816406 51.796875 20.816406 C 51.796875 15.257812 51.796875 9.695312 51.796875 4.121094 Z M 51.796875 4.121094 "></path>
    <path style=" stroke:none;fill-rule:nonzero;fill:rgb(100%,100%,100%);fill-opacity:1;" d="M 67.855469 15.78125 C 67.292969 16.039062 66.796875 16.375 66.328125 16.761719 C 65.902344 17.109375 65.425781 17.355469 64.871094 17.429688 C 64.167969 17.519531 63.492188 17.453125 62.867188 17.097656 C 62.457031 16.867188 62.136719 16.546875 61.886719 16.140625 C 61.46875 15.453125 61.375 14.699219 61.445312 13.929688 C 61.519531 13.144531 61.832031 12.449219 62.441406 11.921875 C 62.808594 11.605469 63.234375 11.398438 63.707031 11.316406 C 63.96875 11.273438 64.238281 11.238281 64.503906 11.253906 C 65.136719 11.285156 65.726562 11.46875 66.21875 11.894531 C 66.960938 12.542969 67.800781 13.019531 68.746094 13.289062 C 69.152344 13.402344 69.578125 13.476562 70 13.53125 C 70.402344 13.578125 70.8125 13.601562 71.21875 13.597656 C 71.914062 13.585938 72.597656 13.476562 73.265625 13.269531 C 74.066406 13.023438 74.796875 12.628906 75.457031 12.109375 C 75.722656 11.898438 75.976562 11.675781 76.289062 11.53125 C 76.589844 11.390625 76.902344 11.320312 77.226562 11.277344 C 77.726562 11.207031 78.210938 11.273438 78.679688 11.445312 C 79.277344 11.660156 79.738281 12.046875 80.070312 12.597656 C 80.464844 13.25 80.574219 13.96875 80.515625 14.707031 C 80.464844 15.339844 80.269531 15.9375 79.859375 16.433594 C 79.445312 16.933594 78.929688 17.296875 78.273438 17.390625 C 77.925781 17.4375 77.566406 17.480469 77.21875 17.449219 C 76.667969 17.398438 76.160156 17.199219 75.722656 16.832031 C 74.9375 16.175781 74.070312 15.664062 73.074219 15.410156 C 72.722656 15.320312 72.363281 15.246094 72.003906 15.210938 C 71.535156 15.160156 71.058594 15.128906 70.589844 15.144531 C 69.769531 15.171875 68.964844 15.324219 68.199219 15.636719 C 68.085938 15.683594 67.976562 15.726562 67.855469 15.78125 Z M 67.855469 15.78125 "></path>
  </g>
</svg>
