<?xml version="1.0" encoding="UTF-8"?>
<svg xmlns="http://www.w3.org/2000/svg" width="50" height="33" viewBox="0 0 50 33" fill="none">
  <path d="M2.62248 0.950195H46.8625C48.2587 0.950195 49.3905 2.08204 49.3905 3.47819V30.0222C49.3905 31.4184 48.2587 32.5502 46.8625 32.5502H2.62248C1.22633 32.5502 0.0944824 31.4184 0.0944824 30.0222V3.47819C0.0944824 2.08204 1.22633 0.950195 2.62248 0.950195Z" fill="#0E4595"></path>
  <path d="M18.6246 22.9897L20.733 10.6177H24.1053L21.9954 22.9897H18.6246ZM34.1787 10.8844C33.5107 10.6337 32.4637 10.3647 31.1564 10.3647C27.8242 10.3647 25.4769 12.0427 25.457 14.4477C25.4381 16.2255 27.1327 17.2172 28.4117 17.809C29.7245 18.4154 30.1657 18.8021 30.1595 19.3437C30.1512 20.1729 29.1112 20.5518 28.142 20.5518C26.7922 20.5518 26.0752 20.3643 24.9676 19.9024L24.5331 19.7058L24.0598 22.4754C24.8474 22.8208 26.304 23.12 27.8163 23.1354C31.3611 23.1354 33.6623 21.4767 33.6885 18.9085C33.7011 17.5011 32.8027 16.4301 30.8571 15.547C29.6784 14.9747 28.9566 14.5928 28.9642 14.0133C28.9642 13.499 29.5752 12.9491 30.8954 12.9491C31.9982 12.932 32.7971 13.1725 33.4195 13.4231L33.7217 13.5659L34.1787 10.8844ZM42.8567 10.6175H40.2509C39.4436 10.6175 38.8395 10.8379 38.485 11.6435L33.4768 22.9816H37.0179C37.0179 22.9816 37.5968 21.457 37.7278 21.1223C38.1149 21.1223 41.5549 21.1276 42.0467 21.1276C42.1476 21.5608 42.4569 22.9816 42.4569 22.9816H45.5862L42.8567 10.6171V10.6175ZM38.7223 18.6066C39.0011 17.8938 40.0659 15.1481 40.0659 15.1481C40.046 15.1811 40.3427 14.4318 40.513 13.9673L40.7408 15.034C40.7408 15.034 41.3867 17.9873 41.5216 18.6066H38.7223ZM15.7617 10.6175L12.4602 19.0547L12.1083 17.3401C11.4937 15.3636 9.57876 13.2223 7.43799 12.1502L10.4568 22.9701L14.0248 22.966L19.3339 10.6174H15.7617" fill="white"></path>
  <path d="M9.37975 10.617H3.94196L3.89893 10.8744C8.12941 11.8985 10.9287 14.3733 12.0909 17.3467L10.9084 11.6612C10.7043 10.8778 10.1123 10.6441 9.37988 10.6167" fill="#F2AE14"></path>
</svg>
