<?xml version="1.0" encoding="UTF-8"?>
<svg xmlns="http://www.w3.org/2000/svg" width="45" height="40" viewBox="0 0 45 40" fill="none">
  <path d="M0 2.9281V36.5719C0 38.1824 1.31764 39.5 2.92809 39.5H23.0295C38.2263 39.5 44.8145 30.9939 44.8145 19.7061C44.8145 8.47684 38.2263 0 23.0295 0H2.92809C1.31764 0 0 1.31764 0 2.9281Z" fill="white"></path>
  <path d="M13.4546 8.25728V33.1168H24.2739C34.0977 33.1168 38.358 27.5681 38.358 19.7208C38.358 12.2102 34.0977 6.3833 24.2739 6.3833H15.3286C14.2891 6.3833 13.4546 7.23245 13.4546 8.25728Z" fill="#CC0066"></path>
  <path d="M23.0295 36.8208H5.54876C3.99687 36.8208 2.73779 35.5617 2.73779 34.0098V5.50482C2.73779 3.95293 3.99687 2.69385 5.54876 2.69385H23.0295C39.6171 2.69385 42.0914 13.3668 42.0914 19.7207C42.0914 30.745 35.3128 36.8208 23.0295 36.8208ZM5.54876 3.63084C4.50929 3.63084 3.67478 4.46534 3.67478 5.50482V34.0098C3.67478 35.0493 4.50929 35.8838 5.54876 35.8838H23.0295C34.7126 35.8838 41.1544 30.1447 41.1544 19.7207C41.1544 5.72443 29.7934 3.63084 23.0295 3.63084H5.54876Z" fill="black"></path>
  <path d="M17.2611 16.3682C17.6417 16.3682 17.9931 16.4267 18.3298 16.5438C18.6666 16.661 18.9447 16.8513 19.1936 17.0855C19.4279 17.3344 19.6182 17.6419 19.7646 17.9932C19.8964 18.3593 19.9696 18.7838 19.9696 19.2816C19.9696 19.7208 19.911 20.1161 19.8085 20.4821C19.6914 20.8481 19.5303 21.1702 19.3107 21.4338C19.0911 21.6973 18.813 21.9023 18.4762 22.0633C18.1395 22.2097 17.7442 22.2975 17.2904 22.2975H14.7283V16.3535H17.2611V16.3682ZM17.1732 21.2142C17.3636 21.2142 17.5392 21.1849 17.7296 21.1263C17.9053 21.0677 18.0663 20.9653 18.1981 20.8189C18.3298 20.6725 18.447 20.4968 18.5348 20.2625C18.6226 20.0283 18.6666 19.7647 18.6666 19.428C18.6666 19.1352 18.6373 18.857 18.5787 18.6228C18.5202 18.3885 18.4177 18.1689 18.2859 18.0079C18.1541 17.8468 17.9785 17.7004 17.7589 17.6126C17.5392 17.5248 17.2757 17.4808 16.9536 17.4808H16.0166V21.2288H17.1732V21.2142Z" fill="white"></path>
  <path d="M25.2547 16.3682V17.4662H22.1216V18.7399H25.0058V19.7501H22.1216V21.1995H25.3279V22.2975H20.8186V16.3535H25.2547V16.3682Z" fill="white"></path>
  <path d="M29.7349 16.3682L31.9602 22.3122H30.5986L30.1448 20.9946H27.9194L27.4509 22.3122H26.1333L28.3733 16.3682H29.7349ZM29.8081 20.0136L29.0614 17.8322H29.0468L28.2708 20.0136H29.8081Z" fill="white"></path>
  <path d="M34.083 16.3682V21.2142H36.9818V22.3122H32.78V16.3682H34.083Z" fill="white"></path>
  <path d="M8.56467 22.0781C10.0767 22.0781 11.3024 20.8523 11.3024 19.3403C11.3024 17.8283 10.0767 16.6025 8.56467 16.6025C7.05265 16.6025 5.8269 17.8283 5.8269 19.3403C5.8269 20.8523 7.05265 22.0781 8.56467 22.0781Z" fill="black"></path>
  <path d="M10.6291 33.1169C8.33054 33.1169 6.48584 31.2576 6.48584 28.9737V25.7381C6.48584 24.5962 7.40819 23.6592 8.56479 23.6592C9.70674 23.6592 10.6437 24.5815 10.6437 25.7381V33.1169H10.6291Z" fill="black"></path>
</svg>
