<?xml version="1.0" encoding="UTF-8"?>
<svg xmlns="http://www.w3.org/2000/svg" width="34" height="34" viewBox="0 0 34 34" fill="none">
  <path d="M8.59362 18.1772C7.73179 18.285 6.22306 18.608 5.36105 19.3622C2.77503 21.6244 4.28359 25.6101 9.56354 25.6101C12.5805 25.6101 15.5976 23.671 17.9681 20.6546C14.5201 19.0389 11.7185 17.8537 8.59362 18.1769V18.1772Z" fill="#2BA6DF"></path>
  <path d="M27.9074 20.9512C32.7562 22.5671 33.8337 22.6749 33.8337 22.6749V5.43867C33.8337 2.53 31.4631 0.160156 28.4462 0.160156H5.81785C2.90847 0.160156 0.430176 2.53018 0.430176 5.43885V28.0618C0.430176 30.9703 2.80074 33.3402 5.81785 33.3402H28.4462C31.3554 33.3402 33.8337 30.9701 33.8337 28.0615V27.8462C33.8337 27.8462 25.2136 24.2913 20.7957 22.1368C17.8865 25.6916 14.1151 27.9539 10.1282 27.9539C3.44765 27.9539 1.18481 22.1368 4.41738 18.3664C5.06376 17.5044 6.24913 16.7505 8.08087 16.3196C10.8825 15.6732 15.4082 16.7505 19.6105 18.1508C20.3646 16.7505 21.0112 15.2423 21.4422 13.6264H8.40423V12.3336H15.0848V9.74817H6.89568V8.45543H15.0848V5.1162C15.0848 5.1162 15.0848 4.57756 15.6235 4.57756H18.8562V8.56351H26.9377V9.74852H18.8562V12.1185H25.4291C24.7827 14.7039 23.8128 17.0737 22.6274 19.1207C24.7825 19.8746 26.6143 20.5212 27.9074 20.9517V20.9512Z" fill="#2BA6DF"></path>
</svg>
