<svg height="108" viewBox="0 0 93 108" width="93" xmlns="http://www.w3.org/2000/svg" xmlns:xlink="http://www.w3.org/1999/xlink"><mask id="a" fill="#fff"><path d="m.33998331.6506129h26.09265259v30.8022974h-26.09265259z" fill="#fff" fill-rule="evenodd"/></mask><g fill="none" fill-rule="evenodd"><g fill="#92f792" opacity=".5" transform="translate(0 27)"><path d="m26.1493426 16.2590516c.2851852.3716855.3564815.6793549.2074074 1.1758065-.5314815 1.848629-1.3092593 3.5202338-2.7222222 4.8795967-.8555556.8165323-1.5944445 1.7571775-2.3851852 2.6390323-.512037.5683064-.9333333 1.1954032-1.1861111 1.9204839-.2851852.8165322-.6416667 1.6193467-.8037037 2.4626613-.1814815.9530564-.6611111 1.4370967-1.5944445 1.5154838-.1037037.0065323-.2074074.0522581-.3111111.0587904-.5574074.0385403-1.1083333.0907983-1.6592592.1495887-2.125926.2090322-4.2388889.477508-6.37777781.3664596-.81018519-.046379-.84907408-.052258-1.02407408-.9210483-.2462963-1.2221855-.53148148-2.4104033-1.1537037-3.5143549-.33055556-.6075-.51203704-1.3129839-.6675926-1.998871-.27222222-1.1692741-.83611111-2.1099193-1.89907407-2.6912903-.58981481-.3200806-.84907407-.7773387-.77777778-1.4566935.05185185-.5362984.05185185-1.0778226.07777778-1.62.15555556-2.5351694-.28518518-4.9586371-1.37407407-7.2514597-.11666667-.2416936-.21388889-.5023306-.36296297-.7244274-1.17962963-1.77024196-1.52314814-3.78936293-1.75-5.84637099-.04537037-.37233871-.08425926-.77799194.02592593-1.12420161.32407407-1.0908871.68703704-2.16805645 1.24444444-3.16749194.26574074-.48404032.44722223-.53629839 1.07592593-.38540322.9462963.22209677 1.84722222.58071774 2.70277778 1.03862903.95277778.50298387 1.91203703.99290322 2.87129629 1.48282258 1.52962963.78321774 3.05277783 1.58733871 4.49814813 2.53451613.8555556.56112097 1.7888889.99878226 2.7027778 1.45604032 4.2712963 2.1491129 7.7388889 5.2460565 10.6425926 9.0217016" mask="url(#a)" transform="translate(56.388889 .002613)"/><path d="m75.2269259 65.5731581c.35.2612903.3564815.4768548.012963.7642742-1.5296296 1.2737903-3.0138889 2.6063709-4.6212963 3.7691129-1.912037 1.3913709-3.8953704 2.6782258-5.95 3.8546854-.9657407.5545888-1.8083333 1.3391129-2.7157407 2.0184678-.8166667.6009677-1.6787038 1.1104839-2.9944445 1.4560403.3305556-.6270968.4925926-.966121.6805556-1.2868548.6416666-1.0641049.8166666-2.2209678.674074-3.4353145-.1296296-1.182992-.2981481-2.3587984-.3759259-3.5476694-.0518518-.8028145.0064815-1.6193468.0583333-2.43.0453704-.7505565.1555556-1.5024194.2268519-2.253629.0777778-.8687904.2916667-1.7042662.6351852-2.5083871.4990741-1.162742 1.4129629-1.8812904 2.5537037-2.3248307.7388889-.2880726 1.4518518-.3004838 2.0675926.358621.5444444.5885564 1.2379629.8165323 2.0416666.7381452.9268519-.0907984 1.8083334.2096854 2.7027778.3658064.3694445.0594436.7388889.1829032 1.1083334.1829032 1.1796296-.0124113 1.8472222.8165323 2.0935185 1.7055726.3175926 1.1366129.9203703 1.9132984 1.8018518 2.5730565"/><path d="m74.5595278 47.433404c.3046296-.0653225.6351852-.1437096.9722222.1437097-.3175926.9341129-.6092593 1.9074194-.8685185 2.8872581-.3240741 1.215-1.3935185 1.7049193-2.4564815 2.1229838-.2722222.1110484-.5185185-.0130645-.6935185-.254758-.0972222-.1306452-.1944445-.2612903-.2657408-.405-.2527777-.5291129-.4796296-1.0843549-.7518518-1.6004032-.2462963-.4637904-.5509259-.9014517-.8814815-1.43775 1.6592593-.6591049 3.2990741-1.0771694 4.9453704-1.4560404"/><path d="m38.4575463 24.5117758c.5898148.5421774.8814815 1.2084677.7777778 1.9596774.0972222.581371-.0907408 1.0059678-.375926 1.4175-.4277777.6205645-.8361111 1.2541936-1.2379629 1.8878226-.3370371.5291129-.7907408.8622581-1.4064815.9798387-.7259259.1430565-1.0953704.005879-1.4518518-.6734758-.5703704-1.0908871-1.1083334-2.2079032-1.8277778-3.21975-.2074074-.2946048-.1620371-.5879032-.012963-.9079839.4925926-1.0458145 1.3805556-1.5481451 2.3592593-2.0641935 1.3027777-.6858871 2.2425926-.2416936 3.1759259.6205645"/><path d="m36.6491481 80.3166605c-2.8259259.4376613-15.0564814-3.6319355-18.2259259-5.7287903.012963-.2939517.1620371-.5160484.3888889-.6793549 1.0046296-.7054838 1.6074074-1.7245161 2.1583333-2.7892742.2981482-.5748387.6027778-1.1496774.8944445-1.7245161.2203704-.431129.5638889-.6140323 1.05-.5944355 2.6833333.1175807 5.3601852.2351613 7.875 1.3717742.8814815.3984678 1.8083333.6865403 2.7092592 1.0392823.3824075.1495887.5898149.4500725.6027778.8746693.0064815.2684758.0388889.5421774.0324074.81-.0259259 1.4958871.3175926 2.8879113 1.0694445 4.1871774.5962963 1.0190323.9462963 2.1425807 1.4453703 3.2334678"/><path d="m27.6076759 46.7667871c1.1666667 1.4370968 1.5944445 3.1361371 1.762963 5.1023468-.2722222.0457258-.4796296.1103951-.687037.1045161-1.8796297-.02025-3.7527778-.0522581-5.625926-.0849194-.3111111-.0071854-.4925926-.2416935-.3888889-.5421774.5314815-1.6004032 1.1925926-3.1289516 2.3074074-4.4092742.2787037-.3200806.6157408-.6081532.9787037-.83025.6222223-.3854032 1.062963-.6532258 1.5037038.372992.0388888.0973306.0842592.2018467.149074.2867661"/><path d="m27.6336667 3.92177177c.0842592.63428226.3175926 1.26137904.1166666 1.92701613-.0648148.20315323-.1101852.43766129-.0712963.64081452.2787037 1.48870161-.2074074 2.88725806-.4601851 4.31063708-.3175926 1.8290323-.9074075 3.5600807-1.7175926 5.2199274-.6805556 1.4109678-1.3481482 2.8284678-1.9962963 4.2583791-.8166667 1.8225-1.6657408 3.6384677-2.2425926 5.5589516-.2657408.8883871-.4861111 1.7708951-.4537037 2.7108871.0129629.4833871.0324074.9863709-.0648148 1.4573468-.2722223 1.3325806.1685185 2.4554758.8879629 3.5202338.1166667.176371.2138889.3854032.3759259.5225807 1.2638889 1.0582258 1.1666667 2.2601613.5055556 3.6188709-.6481482 1.3260484-1.5037037 2.4953226-2.45 3.6064597-.4407407.5160484-1.0435185.7766855-1.6916667.8812016-1.0564815.1698387-2.1194444.3658065-3.2083333.352742-1.1212963-.0195968-2.2037037-.1691855-3.2407407-.4376613-1.7370371-.4507258-3.37037041-1.2215323-4.91296301-2.2536291-.6287037-.4174113-1.21851852-.9073306-1.93796296-1.1496774-1.54907407-.5219274-3.05277778-.6466935-4.47222222.3984678-.31759259.2351613-.66111111.0130645-.58981482-.3854033.23981482-1.3253951.45370371-2.6716935.79074074-3.9716129.34351852-1.3064516.81666667-2.5795887 1.25092593-3.8599113.29814815-.8687903.60277778-1.7317016.77777778-2.6462177.20092592-1.0647581.59629629-2.0707258 1.12129629-3.0309677.57037037-1.0386291 1.07592593-2.1229839 1.62037037-3.1812097.19444445-.378871.39537037-.7708065.65462963-1.1170161 1.30925926-1.7767742 2.56018519-3.5862097 4.12222227-5.1859597 3.5583333-3.6587178 7.4407407-6.89218551 11.6537037-9.73371777 1.5296296-1.0379758 3.1953703-1.79637097 4.9194444-2.42346774.2722222-.10451613.4925926-.05225806.6157407.1241129.0453704.07185484.0777778.1567742.0972223.26782258"/></g><path d="m42.9695432 7.9162636c.0923166-1.42700506.3856348-2.80475776.8072796-4.15952603.0360101-.11492217.2134414-.2094867.3450417-.25808236.0556519-.01970095.1839786.08931094.245523.16614462.5349128.66851871.8171006 1.46049667 1.0698256 2.2629818.1099943.35002011.1885617.70923399.284152 1.06385098.1119585.41109304.2199886.85239419.7267481.9187207.5159257.06698321 1.1824388-.33491605 1.3736194-.83334994.2448683-.63962399.4969386-1.2713676.8891206-1.836128.3581363-.51682143.6966307-1.0592541 1.2799933-1.35805175.1296362-.06632651.3044486-.11295208.4412867-.08471406.2586176.05450594.2514156.30405124.2389758.50171738-.180705 2.7896537-1.0338156 5.35800013-2.7406916 7.57041616-.9035246 1.1715495-1.6996739 2.3844709-2.361604 3.7018074-.206894.4110931-.3869442.8629014-.8334687 1.1754897-.7208556-1.0152553-1.0325061-2.197312-1.2734461-3.3576976-.3731949-1.7940993-.6121707-3.61840676-.4923554-5.473579m.2167149 10.1860449c.2821878.5312688.6540733.939735 1.2891595 1.0428366.3404586.0551626.6219917.0584461.7306765-.3519902.2042752-.7703069.618718-1.4493328 1.0292325-2.1106278 1.2439832-2.0055561 2.5069536-3.998635 3.6003494-6.091532.8000777-1.53273344 1.5661094-3.08319775 2.3262487-4.63563215.3247451-.66392182.5093784-1.38497638.5624114-2.1198216.1001734-1.3764393-1.0894675-2.2590416-2.3727344-1.77768187-.9441178.3552737-1.7828244.87340853-2.4480281 1.65422262-.2651649.31061822-.4419414.72762154-.9526293.85108079-.1355287-.19635274-.2998654-.39664568-.423609-.61992304-.43343-.7795007-.8308499-1.57935903-1.2813028-2.34835255-.6043139-1.02970269-1.7658015-1.0618809-2.3629134-.0728935-.1604084.26661945-.2749858.56935729-.3627194.86946834-.3070674 1.05728401-.6422882 2.10997113-.8792997 3.18432928-.5951478 2.69508917-.7254387 5.41053598-.110649 8.12204258.34897 1.5393005.9133456 3.0076775 1.6558071 4.4044745m-1.4358185 36.3948676c-.4157523.598252-.8105533 1.2116081-1.2020807 1.8269342-.3253998.5122246-.7706149.8353201-1.3677268.9489288-.7097252.1346232-1.0652425.0019701-1.4102842-.6514445-.5597925-1.0605675-1.0816107-2.1408359-1.781515-3.1206296-.2023109-.2836936-.1577894-.5693573-.0091662-.8806322.4805704-1.0060615 1.3428472-1.4985851 2.2948218-1.9963623 1.2642798-.6612951 2.180899-.2305011 3.0850784.6002221.5735418.5273286.8622769 1.1689227.7575204 1.8985143.0968997.5601635-.0883883.9732266-.3666477 1.3744692m2.501061-2.1414926c.0222608-.9745401-.5093784-1.5635983-1.3192769-1.9517069-.3725403-.1786219-.7791264-.2882905-1.1686896-.4327641-.3011749-.1116387-.5041405-.3014244-.6828813-.5923417-.62592-1.0178821-.9185834-1.1137601-2.0479893-.7532328-.7457352.2383815-1.4665908.5726408-2.2254205.7479792-.7771622.1792786-1.3251696.6028489-1.7252084 1.2477265-.3312924.5338956-.6233011 1.0914323-.9238212 1.6437154-.1892164.3473933-.1669557.7059505-.0157135 1.0612242.5336033 1.2536368 1.0600047 2.510557 1.6119404 3.7556567.125053.2810668.2906992.5936551.5283655.7663667.9834015.7131742 2.0322758 1.2976355 3.3129238 1.2562636 1.2394002-.0190443 2.2339321-.5010607 2.8369366-1.6246712.5205088-.9699432 1.0194115-1.9477667 1.6721754-2.8408762.2893898-.3953323.3614098-.8589612.2677837-1.3495147-.0595802-.3079914-.1283267-.6232065-.1211247-.9338247m46.1746942 19.8211199c-.3882537 1.029046-.8373971 2.0383911-1.3153486 3.0300053-.6370503 1.3219333-1.3225506 2.6215389-1.9910279 3.9283682-.1433854.2797534-.2638554.5857748-.4648569.8189026-.9978055 1.1623557-1.6656281 2.5381383-2.5056442 3.7989988-1.1608328 1.7428768-2.4846928 3.3767418-3.7574841 5.0434417-.2474872.3237522-.5113426.6934732-.9958413.6882196-.5748513-.0052535-1.1562497.0045969-1.6800322-.2948574-.2435588-.1385633-.3502795-.3736613-.4275374-.6324003-.3103411-1.0402099-1.0482195-1.8052632-1.7062212-2.6169421-.3784328-.4649423-.9067983-.7735904-1.4895063-.7926347-1.0573857-.0328349-2.0597744-.3670942-3.1014466-.465599-.4150976-.0380885-.8367425-.1037583-1.2479117-.0715801-.4511076.0354617-.8138269-.0426853-1.1352984-.3782581-.9801278-1.0257625-2.2070882-.8083954-3.3698851-.5411193-.6422882.1471004-1.2315435.5621336-1.820144.8996765-.4570001.2620226-.8662051.6186096-1.107145 1.0947158-.7129989 1.4040206-1.4122484 2.8146082-1.4639719 4.4451897-.0294628.9443319-.2068941 1.890634-.1577895 2.8270855.0779127 1.4644369.2108225 2.9360974.4720589 4.3775498.1892164 1.0428367.0766032 1.9563038-.394801 2.8848751-.8269215 1.627298-1.9124605 2.997827-3.5584468 3.857445-.1846333.096534-.3738497.229187-.5709228.250858-1.7166969.189786-3.3306015.885229-5.0741423.971914-1.1974975.059102-2.3982687.227217-3.5774339.452465-1.6819963.321125-3.3410771-.045969-5.0099789-.053193-.3299829-.001313-.5990761-.174682-.8098986-.426854-.1669556-.201606-.3450416-.397959-.4825345-.619923-.8583485-1.383006-1.4921252-2.881591-2.144889-4.364416-.3358755-.7637395-.3797423-1.615477-.1126133-2.4514537.6553828-.0551627 1.1418457.3152151 1.6826511.4800463 2.6516485.8083954 5.2607397.7368153 7.8351303-.306678.2396305-.0971913.4877724-.2016063.6913928-.3572438.9598313-.730905.8622768-2.0456147-.2114772-2.580167-.4642021-.2318144-.9834015-.3526469-1.4809948-.5141946-.1983825-.0630431-.4118239-.0820873-.6062781-.1536674-.0792221-.0295514-.1460044-.1365932-.1846333-.2232774-.0563066-.126086.0045831-.2068599.1374929-.2245907.3103411-.0400586.6200274-.0899677.931678-.1201758 1.6846152-.160891 3.2605455-.7302483 4.8253455-1.3258735.6743699-.2561123.8740619-.6901898.7143083-1.3698724-.284152-1.2155482-.9899488-1.9175585-2.2954765-1.9654975-1.9340666-.0702667-3.8674784-.1799353-5.8008903-.2692462-.2612365-.0118206-.5237824-.0032835-.7594845-.1687714.0451762-.3421398.3542079-.311275.565685-.3592139.9192382-.2048899 1.848952-.361184 2.7675354-.5693573 1.3245148-.3007678 2.6568863-.5838047 3.9617593-.959436 1.6021195-.4616588 1.9235909-1.4270051 1.0331608-2.8500699-.267129-.4268538-.6822266-.6501312-1.1333342-.7952615-.2946276-.0939078-.6160991-.1096686-.9277496-.1484138-1.9798976-.2462618-3.9715802-.2140836-5.9599893-.2114568-.4098597 0-.8203742.1372499-1.2289245.2199939-.8753713.1779652-1.7540164.304708-2.650339.1989796-.2049299-.0242979-.411824-.0400586-.5637209-.3171853.8917396-.5509697 1.8856168-.8615879 2.8886601-1.1150734 1.3173128-.3342593 2.6451012-.6317436 3.9787822-.8917961.9526293-.1845321 1.5949175-.7460091 2.1003675-1.516316.6147897-.9357948.1532064-1.9464533-.943463-2.0850166-.1041018-.0137906-.209513-.0275813-.31296-.021671-2.6614695.1484138-5.3399618-.1471004-7.9896462.3119316-.2049298.0354617-.4170617.0505658-.6252652.0459689-1.3611796-.0341483-2.7184308-.0321782-4.075682.1267427-.6553828.0768337-.8033513-.0709234-1.0475649-.6947866-.0189871-.0492524-.0510688-.0952212-.0589255-.1451303-.3083769-1.9063947-1.2328529-3.5376329-2.1874463-5.1780648-.9722712-1.6712968-2.1750065-2.0961805-3.9061074-1.2286823-2.1599478 1.0809252-3.3587548 2.9072027-4.0239585 5.1511403-.1630273.550313-.267129 1.1196703-.3921821 1.6542226-.3574815.2646493-.7359143.1733683-1.0907769.1438169-4.2262694-.3454233-8.4558125-.6796826-12.5910747-1.6916544-2.14096066-.5233885-4.1437737-1.4368556-6.15051511-2.3293084-.44914342-.1996362-.64032401-.522075-.64097874-.9791369 0-.2593957.01309456-.528642.08184101-.7762172.19903732-.7151443.30510326-1.4434225.29986543-2.1789244-.00851146-1.0434934.47074946-1.8019797 1.27410075-2.3956348.29462761-.2180238.58336267-.4491816.90025104-.6310869.73329539-.4202869 1.47379279-.5102545 2.20708818.0295514.25272502.1858455.53425807.3309758.79614928.5050008 3.80266036 2.5217209 7.95298136 3.6525551 12.51709046 3.184986.6337767-.0650131 1.237436-.2232773 1.8358574-.3973024.7725791-.2252474 1.4148672-.6809959 1.8744863-1.3567383.6494902-.952869 1.2898142-1.912305 1.9255552-2.8743678.6868097-1.037583.9414989-2.1946852.9834015-3.4273076.0229154-.6711455-.0687465-1.2963221-.6036593-1.7087285-1.547777-1.1938772-1.7828244-2.7692961-1.7265178-4.6238116.0694012-2.2938466.8812639-4.2928358 1.8502614-6.2754075.3227809-.6599816.7162725-1.2917252.8950132-2.0075262.387599-1.5517777 1.1660706-2.9229634 1.9517443-4.2842987.6868097-1.1886236 1.1104187-2.4882292 1.6846152-3.7228217.1283267-.2751565.1440402-.6067891.1872522-.9167506.0432121-.3119316-.0222607-.6606383.0929714-.9364516.686155-1.6279547.341768-3.2926844.2579628-4.9554441-.0333911-.659325-.199692-1.2056978-.6200274-1.7225193-.5119973-.6291168-.4393225-.9666596.2265359-1.3849763.9375705-.5864315 1.9504348-1.0205089 3.0045469-1.3416343 4.3755474-1.3344107 8.8342453-2.2078192 13.4199604-2.3128909 2.3589851-.0538492 4.7048756.1897858 7.048802.4248837.1558252.0157608.310341.0512225.4635474.082744 2.0597744.4275105 1.9537084.654728 1.2741008 2.247221-1.0547669 2.4678716-.7444258 4.9357432-.1990374 7.420689.1577895.7184278.5414601 1.3567384.9159645 1.9943923 1.2210678 2.079763 1.8378216 4.3328943 1.8234176 6.7502001-.0026189.4695392-.0366648.9489289-.1361834 1.4066475-.1610631.7446957-.0497594 1.4558997.1067206 2.1802378.0838052.3854818.2618913.6777125.5728871.9003331.2553439.1825621.50545.3749747.7706149.5430894.6553827.4163466 1.0593499 1.009345 1.2249961 1.7592943.2049299.9298846.5755059 1.786219.9873299 2.6425533.3784328.7873811.6625847 1.6318949.8897754 2.4770654.1721934.6422508-.0779127.8990198-.7116894.868155-.4144429-.0190443-.8459086-.0466256-1.2354718-.1746817-.8937038-.2922307-1.8070494-.570014-2.6378992-.9981812-1.1470835-.591685-2.3877932-.757173-3.6127893-1.0086884-.3522437-.0728935-.7313312-.0400585-1.0966694-.0183875-.871443.0525358-1.3343358.541776-1.3232054 1.4145278.0117851.8924528.2808783 1.7238326.7411521 2.5302579-1.5759303.437361-3.1256716.6553848-4.6930905.7663668-1.2583872.0893109-2.4886212.3224387-3.6933208.7020103-.8105533.2541421-1.3369546.7906645-1.6027742 1.5964331-.2304643.6993836-.0497593 1.2385327.5604472 1.6266413.358791.2278743.7568656.3355728 1.1686895.4360476 1.6008101.3900787 3.2297734.2488886 4.8489158.2955142.508069.0144473 1.0311967-.1582643 1.6171782.1280561-.3817064.3887653-.8393613.4544351-1.280648.550313-.9709616.2121135-1.9491253.4137199-2.8447933.8648715-.4177164.2094867-.8537653.4288239-1.1942239.7394421-.8720977.7952615-.5702681 2.3010703.5336034 2.7331777.4373583.1713982.9054888.237068 1.3873687.2062032.6789529-.0433421 1.3598701-.0551627 2.0401325-.0702667.1859427-.0039402.4039672-.0886543.5421148.145787-.1682651.4682257-.6743699.4353908-1.0069717.6553847-.5466979.3631541-.7568656.841887-.7162725 1.466407.0445215.6849361.3286735 1.1886236.999115 1.4624667.4484887.1838755.9035247.2396948 1.376893.2639927 1.6361654.084714 3.2343565-.193726 4.8318929-.4866134.2036204-.0374317.4052766-.1234592.6102065 0-.1132679.3322893-.4157523.4018993-.6900833.5378358-.419026.2068599-.8518012.4222569-1.2040449.7230247-.5781248.493837-.6612753 1.1741763-.4504529 1.8755299.1342193.4478681.5028312.6757424.9473915.7046371.4157523.0269246.8373971-.0059103 1.2538042-.041372 1.7199705-.1464437 3.439941-.2987977 5.1592568-.459032 2.0381684-.1891291 4.0246132-.6507879 5.9953446-1.1853402.34897-.0952212.6128254-.0558193.7876378.2843503.3123053.6054757.6442524 1.2004442.9329875 1.8170838.3875989.8261263.9022152 1.5386437 1.6741395 2.038391.9015605.5844614 1.8273459.659325 2.8290798.2121135 1.7644921-.7880377 2.8677088-2.0541518 3.1066845-4.0183359.1237436-1.0172254.657347-1.8729031 1.1346437-2.7469683.1610631-.2955142.4249185-.4472115.7503183-.5122246 1.6905078-.3408263 3.3816703-.6777125 5.0695591-1.0336428.6121707-.1287129 1.2197584-.2889472 1.820144-.4649423 1.0521479-.3066781 2.0997127-.6100726 3.216024-.4393311.1865975.5345523-.1171963.9561525-.2730216 1.3679022m-13.28836 19.5367697c-1.4868874 1.231309-2.9331816 2.5217209-4.4953627 3.6492716-1.8587728 1.342291-3.7876016 2.5893608-5.7851768 3.7293887-.9441178.5384925-1.7625279 1.2982926-2.6431371 1.9517066-.7915662.585775-1.6309275 1.076329-2.912885 1.410588.3208168-.605476.476642-.936452.664549-1.24707.6226463-1.030359.7902567-2.144776.6560375-3.3235491-.1309456-1.1433115-.2933182-2.2853096-.3673025-3.4332179-.050414-.7795007.0072021-1.5681952.0569614-2.3503227.0458309-.7302483.1525516-1.4558997.2199886-2.1848347.0779126-.841887.284152-1.648969.6160991-2.4238728.4851534-1.1308342 1.3762383-1.8236508 2.4833834-2.2524746.7208555-.2797534 1.4129031-.2922307 2.0106698.3473933.5290202.5667305 1.206009.7893511 1.988409.7112041.9009058-.089311 1.7566353.2062032 2.6293877.354617.3594457.0610729.7195461.1805919 1.0783371.1773085 1.1457741-.0098505 1.7939548.7919779 2.0348947 1.6535659.3077222 1.0999694.8923943 1.851232 1.7546711 2.4895426.3391492.2508587.3463512.4636289.0104757.7407555m-55.2649382 7.9828226c.0157135-.2843503.1617179-.4984339.3823612-.6534146.9761995-.6849362 1.5621811-1.6706401 2.0957844-2.7003428.2887351-.5575367.5859816-1.1111332.8727525-1.6699834.2154055-.4183167.5480073-.5936551 1.0181021-.5732974 2.6110553.1129521 5.2181824.2219639 7.6642463 1.3258735.8557295.3854818 1.7579447.6652352 2.6339708 1.0060616.373195.145787.5702681.4353908.582708.8451705.0085114.2620225.0405931.5233884.03601.785411-.0274986 1.448676.305758 2.7942509 1.0403629 4.0524839.5748512.983734.9192381 2.071226 1.4004632 3.13245-2.7439652.421601-14.6403734-3.519245-17.7267614-5.5504123m-1.5228974-1.2700542c-.2134413.2101434-.4478339.2318145-.6920475.0341483-.6507996-.5247018-1.2943973-1.0592541-1.9576368-1.5675384-1.5327183-1.174833-3.0772217-2.3332485-4.60994-3.5080815-.2461778-.1884724-.4635475-.4189734-.6750246-.6481611-.0589256-.0643564-.0877336-.2068599-.0582708-.2863204.0242249-.0676399.1525516-.1319963.2363568-.1346231.1538611-.0045969.3181978.0111639.462238.0623863 2.2935123.8208727 4.7186249.8523942 7.092014 1.1892804.9775089.1385633 1.959601.2442917 3.0543062.3795715-.5905646 1.8965442-1.6132498 3.2591929-2.8519953 4.479338m11.5029168-20.6170381c-1.8234176-.0203576-3.6474899-.0492524-5.4715622-.0820873-.3037938-.006567-.4759872-.2383814-.3784328-.528642.5178899-1.544554 1.1621423-3.0267217 2.2476814-4.2665678.2710574-.3099615.5997308-.5903716.9500103-.8044552.604314-.3684077 1.0325061-.6278034 1.4593888.3631541.0412479.0958779.0838052.195696.1486233.2751565 1.1359531 1.3902299 1.5536696 3.0378856 1.7140779 4.9416535-.2664743.0426854-.4681305.104415-.6697867.1017882m-27.88879512-12.8680001c.23177372-1.287785.44128669-2.5847639.77257907-3.8469377.33260184-1.2648006.79091146-2.497423 1.21648468-3.7366124.28873506-.8425437.58532685-1.6765503.75293723-2.5591526.19641841-1.0336429.58205322-2.0048995 1.09339581-2.9328139.55586409-1.0086884 1.04298175-2.0548085 1.57265672-3.0786009.19249004-.3710345.38759899-.7473225.63574091-1.0822386 1.2767197-1.7218625 2.4958233-3.4713063 4.0134828-5.0237407 3.4608924-3.5389463 7.2373636-6.6674563 11.3359611-9.422305 1.4881968-1.0014646 3.1040656-1.7343397 4.7795146-2.3457257.3725403-.1359365.640324.0072237.693357.3815416.0883883.6153262.3142694 1.2234286.1158869 1.8630526-.0615445.1956961-.1073754.424227-.0700559.6212365.2717121 1.440139-.2029657 2.7962206-.4445604 4.1766001-.3090316 1.766518-.8819186 3.4424117-1.6695564 5.0526355-.6678226 1.3633054-1.3160034 2.7364612-1.9412687 4.1201242-.7974587 1.7645479-1.622416 3.5185886-2.1848274 5.3822979-.259927.8609313-.4720589 1.7152956-.4432509 2.6221957.0157135.4708526.0307723.9561525-.0621991 1.4132144-.2632007 1.2864717.1649914 2.3733071.8622768 3.4016964.117851.174025.2127866.3795715.3679571.5082843 1.2328529 1.022479 1.1359532 2.1894316.4930102 3.5021712-.6298483 1.2877851-1.4613529 2.4186193-2.3838647 3.4949475-.4288469.500404-1.0167926.7492926-1.6433674.8497674-1.0318513.1661446-2.0650122.3519902-3.1217432.3408263-2.9063377-.0577894-5.527214-1.0021213-7.9333395-2.6011813-.6095518-.4051827-1.17981992-.8786621-1.88561673-1.1163868-1.50129137-.5036875-2.96591797-.6218932-4.3447752.3874519-.31165054.2278742-.64556184.0105071-.57681539-.3723479m55.23613012-33.3011627c.3181978-1.0526871.6724057-2.0974938 1.2105921-3.0641535.2618912-.4701959.4373583-.5207616 1.0475649-.3756313.9212023.2193371 1.7959189.5647604 2.6306972 1.0067182 2.4021971 1.272681 4.8816522 2.399575 7.1686172 3.8922499.8295404.5404626 1.7369934.9646896 2.6261141 1.4086175 4.1535946 2.0764795 7.5260987 5.0782467 10.3545238 8.7334286.2749857.3552737.341768.654728.2023109 1.1354311-.5205088 1.7914725-1.2780291 3.4076066-2.6523032 4.7223163-.8295404.7932913-1.5484318 1.7028183-2.3197014 2.5571825-.4962839.5503131-.9061436 1.1557888-1.1529761 1.8584558-.2776047.7900078-.6206822 1.5701652-.7797811 2.3851276-.1793955.9187207-.6422882 1.39023-1.5497412 1.4644369-.103447.0078804-.2042752.0518791-.3077222.0591028-2.6045081.1819054-5.1919933.6383106-7.8167979.4951504-.7863284-.0426854-.8223384-.0492523-.9932224-.8885126-.2402852-1.1800865-.5198541-2.3325918-1.119585-3.4049798-.3267093-.583148-.4975933-1.2700542-.6527638-1.9300359-.2651649-1.1328043-.8118628-2.0443013-1.8437141-2.6064349-.5761607-.313245-.8256121-.7552028-.7621035-1.4092742.0504141-.5207616.0549972-1.0467768.0798769-1.5701652.1518969-2.4521109-.2756405-4.79718-1.3382641-7.0181331-.113268-.2364113-.2042752-.4879267-.3496248-.7033237-1.1529761-1.7100419-1.4875421-3.6683158-1.7081854-5.6587679-.0399384-.3592138-.0759485-.7532327.0261891-1.0888055m27.3532276 14.4184644c.9133456 1.1715495 1.5281352 2.4954529 1.9779333 3.9047271.1099943.3454233.0248797.631087-.2193339.8569911-.6593111.6094159-1.1726179 1.3383508-1.711459 2.0462714-.582708.7663668-1.3258243 1.3147097-2.1808991 1.7494439-1.3572512.6901897-2.742001 1.2976355-4.2256147 1.6575061-.252725.0610729-.5100331.1050717-.6095518.1254293-.4445603.0275813-.6265747-.2009496-.5493168-.500404.3227809-1.2359059.8439444-2.3503226 1.7769319-3.2690433 1.1176207-1.1025962 2.205124-2.2393407 3.2526888-3.4095768.7994229-.8931094 1.572002-1.8216806 1.8829978-3.0372289.0779127-.3033945.4268827-.3533036.6056235-.1241159m-10.0749549 27.3560744c.2946276-.0669832.6180632-.1385633.9414989.1359366-.3090317.9069001-.58991 1.8472918-.842635 2.7962206-.31296 1.1768031-1.3539776 1.6502825-2.3871384 2.0548085-.2697479.1057284-.5080689-.0131339-.6776435-.2449484-.0923167-.1254293-.1885617-.2521721-.2553439-.3913921-.2494514-.515508-.4674759-1.0480902-.7365691-1.5530911-.2396304-.4498382-.5316391-.8707817-.8537653-1.3895732 1.6125951-.6409374 3.2068579-1.04218 4.8115963-1.4079609m16.1076189-4.4254887c-.1918353-.2909173-.4288468-.4432713-.7856736-.3651242-.5591378.1221459-1.0992884.3047079-1.6983645.2265609-.9559029-.1254294-1.8784147.0991614-2.7629523.4472114-.7869831.3079914-1.6034289.4629722-2.4270768.6232065-2.5161198.4885834-5.0322396.9646896-7.5627635 1.3849764-2.7858677.4629722-5.5154289 1.2280255-8.1323768 2.3417856-.4786062.2035764-.982092.3624974-1.4875421.4866133-2.546892.6205797-5.1337225 1.0034348-7.7408495 1.2569202-.199692.019701-.4242637.0650132-.5401506-.2508586.3077222-.2331279.6481808-.4544352.9441178-.7256515.3699214-.3395129.4844988-.7525761.3856348-1.2799047-.1263625-.674429-.5231277-1.0132852-1.1359531-1.1347744-1.0390534-.2055465-2.0853088-.1622044-3.1237074.0137907-.6665131.1136088-1.3271337.2094867-2.0833446.0446555.3221262-.4255404.7404974-.4944937 1.1228586-.6120427 1.1156565-.3421397 2.1023317-.9266011 3.0464495-1.5964332.3306376-.2357546.5087237-.5266719.3954557-.939735-.1388023-.5095978-.5100331-.8313799-.996496-.8458272-.2605818-.0078804-.5303297-.0045969-.7817453.0531925-1.5006367.3434532-3.0222246.2213073-4.5372652.2134269-.7182367-.0032835-1.4384375-.0610729-2.1272114-.3598705.1892164-.3237522.4733684-.3211254.7162725-.3887653 1.0586952-.2948575 2.1239377-.5634471 3.1780498-.8734086.4491434-.1319963.910072-.2836936 1.304873-.5253585 1.0704803-.6553847 1.0992883-2.3332485-.0621992-2.8323391-.4386678-.1884723-.8524559-.3959889-1.3376094-.3821983-.8373971.0249545-1.6767584.0229844-2.5102272.0958779-1.4665908.1273995-2.9240154.0466256-4.3820947-.1004748-.1394571-.0137906-.3234357-.0275813-.3162337-.2396948.0065473-.1753384.1309457-.27844.2874256-.3224388.4033125-.1136088.8033513-.2758132 1.2145205-.313245 2.0807257-.1858456 4.1405001-.62649 6.2493791-.4780762.7869831.0551626 1.5739662-.0439988 2.3131541-.3408264.6822266-.2738431.8982869-.8123356.7057968-1.5195995-.1165416-.4261971-.3404586-.7315617-.6946664-1.0040914-.4989028-.3835117-1.0560763-.7414122-1.3782025-1.4158412.8190647-.1497272 1.4751022-.0183876 2.1069148.265306.4772967.2147403.9473914.4452414 1.4207598.6672053 1.6715206.7834409 3.4006574 1.4013939 5.2627039 1.4361989 3.1341831.0584461 6.2762229.2121135 9.3848715-.3920488.1538611-.0295514.3136148-.0591028.4674759-.0485957 2.5724264.1773085 4.951708-.6987268 7.3669997-1.3665888.5021764-.13922.9997697-.326379 1.4665908-.5575367 2.0761426-1.0277326 4.0822293-2.1349257 5.2253844-4.3223872.259927-.4971205.6638942-.9817637 1.1215491-1.2982922.7332954-.506971.7830547-1.1282074.6959759-1.9162452-.1721935-1.5596581-.7771622-2.9262469-1.6361653-4.2094351-1.5523602-2.3214279-3.5191632-4.2948058-5.3321051-6.3962399-2.1252472-2.4639314-4.8908184-4.0853191-7.6570443-5.6745286-2.4486828-1.4066474-4.9490892-2.7298942-7.4691373-4.0038886-1.7265178-.8720951-3.3711947-1.9096781-5.1985406-2.5860772-1.078337-.3986158-2.1298303-.8766921-3.1819782-1.3436044-1.2040448-.5332389-2.4329693-.9712566-3.7496274-1.1104766-1.7684204-.187159-3.5348766-.4340775-5.3091896-.5332389-4.6466048-.2561123-9.176668.541776-13.661555 1.6634164-1.9399592.4852999-3.7856375 1.2063545-5.5272141 2.1946852-.4550359.2587391-.9284043.4866133-1.4050463.7006969-2.7243233 1.2273688-5.4224575 2.510557-7.814179 4.3309243-1.7507428 1.3324405-3.4661302 2.7121633-5.1625305 4.1135571-2.958716 2.4448872-5.6660164 5.1294692-7.86001 8.310515-1.34612083 1.9517068-2.36029455 4.0794088-3.42488232 6.1821563-.21147715.4156899-.3502795.8806322-.45176234 1.3390075-.28415196 1.2864716-.72281974 2.5217208-1.18571246 3.7497464-.70448736 1.8676495-1.23940016 3.785208-1.74092183 5.7159006-.28022359 1.0769849-.44521506 2.15594-.26974794 3.2697.03928368.2547989.1145774.6021922-.01047565.7670234-.51330678.6757424-.18987113 1.4322587-.25403448 2.1362391-.1518969 1.6732669-.00261891 3.3504739.17612184 5.021114.05565188.5240451.29462761.8996764.74246159 1.1222971.93757053.465599 1.85680868.9994946 2.84086491 1.3330972 2.32232032.7867244 4.58113198 1.7816221 7.05600398 2.0850166 2.3877931.2928874 4.7552897.7578297 7.145047 1.0297027 1.817525.2062032 3.6540371.2403515 5.4702526.5023741.3581363.0518791.7365691.0492523 1.09536.0006567 1.0475649-.1418468 2.0892372-.0715801 3.1354926-.0098505 2.2987501.1365932 4.5988096.2272176 6.9034523.1136088 1.0449459-.0512225 2.0931655-.0328349 3.1394209-.0518792.5748512-.0111638 1.1510119-.0177308 1.7252083-.056476 1.3042183-.0886543 2.607127-.1970094 3.9113453-.2922307.132255-.0091937.1898711.0682966.170884.1602344-.1067207.237068-.3188526.2817235-.5205088.3152151-1.6630092.2731864-3.1891802 1.0106584-4.8115963 1.4230649-.34897.0886542-.683536.2672761-.9997697.4498382-1.0305419.5923417-1.2472569 1.3271869-.6920475 2.3693669.3332566.62649.8177553 1.0612242 1.5497412 1.2162049 1.2996352.2738431 2.6333162.409123 3.8884298.0236412 2.1861369-.6724589 4.3290617-.221964 6.5269837-.1004749-.1669556.4340775-.5159257.4669124-.7948398.5325822-.7634129.180592-1.535992.3250656-2.3111899.4478682-1.8620466.2942007-3.7136174.6304302-5.5291782 1.1544753-.404622.1168923-.8079344.2127702-1.1595234.4550918-.767996.5306121-.7404974 1.5248531.0667823 2.0351075.2186791.1379067.4648569.2456052.7116893.3244089.447834.1444736.90287.269903 1.3605249.3789149 1.8456783.4413011 3.7267119.5233884 5.6136381.5555666.9853657.0177308 1.9766239-.0512225 2.9436572.3703777-.288735.0952213-.5715776.2318145-.8681693.27844-1.603429.2534855-3.2107863.4708526-4.8404044.4255404-.7850189-.021671-1.569383-.0571327-2.354402-.0689533-.5820532-.0091937-1.1503571.0558194-1.6479504.4104364-.2638554.1884723-.4720589.4071528-.5460432.7368153-.1911806.8523942.1473138 1.5905229.9506651 1.9326626.4308111.1832188.8897754.3145584 1.3474303.4130631 1.1758915.2547989 2.3589851.4754495 3.5355314.722368.0687464.0144474.1551705.1431602.1577894.2213073.0026189.0768337-.081841.2140836-.1460043.2252474-2.1376871.3861385-4.2576964.5378358-6.2984837-.4623155-1.035125-.5069709-2.0957844-.9673163-3.2101315-1.266114-1.2714818-.3401696-2.4886212-.8129923-3.6632033-1.3961402-.6174085-.3053647-1.2551136-.5030308-1.9281741-.6409374-2.6248046-.5365224-5.2862741-.7341885-7.9523266-.8248129-1.415522-.0472822-2.8212231-.1293695-4.2243052-.3079914-.8819187-.1129521-1.7651468-.2160537-2.6490296-.3139017-1.0947053-.1214892-2.1645309-.3375429-3.225845-.6494745-.9500104-.2777833-1.9321024-.465599-2.9115756-.6186096-.7267481-.1136088-.9323327.1562941-.8812639.8871992.0340459.4846432.1846333.9141238.426228 1.3311271.6128254 1.0585974 1.4220692 1.9411997 2.3655323 2.7082231.4471793.3631541.9257854.6961001 1.326479 1.105223 1.5497412 1.5800157 3.346315 2.8553235 5.096403 4.1864509.5394959.409779 1.1398815.748636 1.7409218 1.065164 3.7208194 1.955647 7.6753767 3.336683 11.6351718 4.701302.3450417.118862.7057968.195696 1.0632783.2745 1.2269603.269903 2.4598132.517478 3.6834999.801828 1.1765463.273187 2.3648776.432764 3.5689225.514195 2.0355494.138563 4.0737178-.187816 6.1118861.07158.500867.064357 1.0390534-.097848 1.5510507-.202263 2.4067803-.48924 4.8207625-.949585 7.1470112-1.769145.2920087-.103101.6272294-.209486.9192381-.165488.9356064.142504 1.7396124-.262679 2.578319-.527985.3980747-.127399.7686507-.361841 1.1726179-.441301 1.9929921-.390735 3.7188552-1.353455 5.3982326-2.43635.7909115-.510911 1.5975364-1.001465 2.4244579-1.451303 1.7036023-.9272579 3.3332204-1.9661543 4.8770691-3.141644 1.333681-1.015912 2.6653978-2.0344508 4.0128281-3.0313186.459619-.3395129.9807826-.5943118 1.4476036-.924631 1.7723488-1.2562635 3.2120957-2.8402194 4.4829228-4.5936035 1.2596968-1.7389367 2.6706357-3.3721449 3.5748151-5.3520898.1715387-.3756314.4439056-.7125175.7090704-1.035613.8072797-.9797936 1.4495679-2.0508683 1.9131153-3.2362084.1898712-.48727.4222996-.9633762.6822266-1.4171546 1.2852312-2.2472211 2.0329306-4.7124659 2.9024094-7.1284583.2533797-.7046371.1126132-1.3363807-.2867709-1.9425131" fill="#3e0f49"/></g></svg>