<svg width="130" height="23" xmlns="http://www.w3.org/2000/svg"><g fill="none" fill-rule="evenodd"><path d="M116.632 2.556c-4.97 0-9.016 3.97-9.016 8.848 0 .08.004.16.013.238h-.005v4.543h5.05v-4.51c.012-.09.018-.18.018-.271 0-2.133 1.766-3.868 3.94-3.868 1.56 0 2.975.904 3.606 2.304.084.182.187.348.305.499l4.291-2.605c-1.464-3.149-4.67-5.178-8.202-5.178" fill="#1A3065"/><path d="M125.238 10.43s-.789 3.956-.143 5.206c.647 1.25 2.183 1.747 3.4 1.057 1.219-.69 1.657-2.307 1.01-3.556-.646-1.25-4.267-2.707-4.267-2.707" fill="#39A2D9"/><path d="M94.85 15.363c-.055-.01-.103-.022-.148-.03.05.008.099.02.148.03" fill="#1A3065"/><path d="M95.132 15.408a5.833 5.833 0 0 1-.43-.075c.14.034.285.06.43.075" fill="#1A3065"/><path d="M95.132 2.556c-4.985 0-9.04 4.011-9.04 8.945 0 4.875 4.008 8.889 8.937 8.943h1.841v-4.872a47.247 47.247 0 0 1-2.053-.143 3.835 3.835 0 0 1-.352-.042 1.686 1.686 0 0 1-.148-.024c-.028-.005-.055-.012-.083-.016a.094.094 0 0 0-.027-.008c-1.741-.41-3.06-1.98-3.06-3.839 0-2.175 1.787-4.004 3.985-3.944.886.023 1.608.258 2.248.694.887.602 1.475 1.54 1.475 2.657 0 1.51-1.075 2.766-2.507 3.076v.088c.42.005.987-.013 1.757-.013H103.795l.002-.001a8.83 8.83 0 0 0 .375-2.557c0-4.933-4.054-8.944-9.04-8.944" fill="#1A3065"/><path d="M94.967 15.376c-.089-.015-.178-.025-.265-.043.078.017.164.03.265.043M6.824 11.475c0-2.157 1.763-3.907 3.937-3.907 2.175 0 3.937 1.75 3.937 3.907s-1.762 3.908-3.937 3.908c-2.174 0-3.937-1.75-3.937-3.908m12.977-.001c0-.116-.004-.233-.008-.348V0h-5.108v3.392a9.044 9.044 0 0 0-3.923-.887c-4.993 0-9.04 4.016-9.04 8.969 0 4.954 4.047 8.97 9.04 8.97 4.992 0 9.04-4.016 9.04-8.97M27.48 11.536c0-2.151 1.761-3.896 3.936-3.896s3.939 1.745 3.939 3.896-1.764 3.897-3.939 3.897-3.937-1.745-3.937-3.897m12.985-.037c0-4.94-4.048-8.943-9.04-8.943-4.993 0-9.04 4.003-9.04 8.943 0 4.94 4.047 8.945 9.04 8.945 4.993 0 9.04-4.005 9.04-8.945M49.021 11.56a3.918 3.918 0 0 1 3.926-3.912 3.919 3.919 0 0 1 3.927 3.911c0 2.16-1.758 3.91-3.927 3.91a3.918 3.918 0 0 1-3.926-3.91zm.003 8.113a9.051 9.051 0 0 0 3.923.89c4.992 0 9.04-4.031 9.04-9.004 0-4.972-4.048-9.003-9.04-9.003-4.993 0-9.04 4.03-9.04 9.003 0 .11.004.219.008.328V23h5.11v-3.327zM70.542 11.56a3.92 3.92 0 0 1 3.928-3.912 3.919 3.919 0 0 1 3.927 3.911c0 2.16-1.758 3.91-3.927 3.91a3.92 3.92 0 0 1-3.928-3.91zm.007 8.113a9.044 9.044 0 0 0 3.921.89c4.993 0 9.04-4.031 9.04-9.004 0-4.972-4.047-9.003-9.04-9.003-4.992 0-9.04 4.03-9.04 9.003 0 .11.005.219.01.328V23h5.109v-3.327zM1.051 3.786h.168c.19 0 .354-.069.354-.245 0-.123-.093-.248-.354-.248-.076 0-.128.005-.168.01v.483zm0 .787H.82V3.151c.122-.017.237-.034.41-.034.222 0 .367.044.454.108.087.062.135.159.135.294 0 .187-.13.3-.285.345v.012c.127.023.215.135.244.345.034.222.07.307.092.352h-.243c-.036-.045-.07-.176-.1-.363-.034-.18-.126-.249-.312-.249h-.163v.612zm.244-1.818c-.576 0-1.044.48-1.044 1.076 0 .605.468 1.082 1.05 1.082.58.005 1.043-.477 1.043-1.077S1.88 2.756 1.3 2.756h-.006zm.006-.2c.713 0 1.282.568 1.282 1.276 0 .719-.57 1.28-1.288 1.28A1.281 1.281 0 0 1 0 3.831c0-.708.58-1.275 1.295-1.275h.006z" fill="#1A3065"/></g></svg>