<?xml version="1.0" encoding="UTF-8"?>
<svg xmlns="http://www.w3.org/2000/svg" width="96" height="70" viewBox="0 0 96 70" fill="none">
  <path d="M8.39831 67.1866L8.31432 67.3545C8.13236 67.7185 7.53048 68.5723 6.18675 68.5723C4.78703 68.5723 3.68125 67.4805 3.68125 66.0948C3.68125 64.5551 4.95499 63.6453 6.18675 63.6453C6.52268 63.6453 7.69845 63.7433 8.31432 64.919L8.39831 65.087H10.022L9.84002 64.6531C9.11216 62.8614 7.46049 62.2316 6.15875 62.2316C3.96119 62.2316 2.18355 63.9812 2.18355 66.1228C2.18355 68.2923 3.9332 70 6.15875 70C7.79643 70 9.02818 69.2162 9.82602 67.6625L10.064 67.2006H8.39831V67.1866Z" fill="#1A3065"></path>
  <path d="M13.5773 62.2175C13.0034 62.2595 12.4295 62.3715 11.9676 62.7634V62.3855H10.4699V69.818H11.9816V65.5069C11.9816 65.059 12.1216 64.6391 12.3875 64.3031C12.6395 63.9952 13.0874 63.7992 13.6333 63.7572L13.9272 63.7432V62.1896L13.5773 62.2175Z" fill="#1A3065"></path>
  <path d="M20.17 62.3995V63.0854C19.3301 62.3295 18.2663 62.2176 17.7904 62.2176C15.2989 62.2176 13.8152 64.1912 13.8152 66.0808C13.8152 68.2644 15.5649 69.972 17.7904 69.972C18.2663 69.972 19.3021 69.86 20.17 69.1042V69.818H21.6677V62.3855H20.17V62.3995ZM17.7904 63.6313C19.1482 63.6313 20.2259 64.7231 20.2259 66.1088C20.2259 67.4945 19.1622 68.5723 17.7904 68.5723C16.3627 68.5723 15.3129 67.5505 15.3129 66.1228C15.3129 64.4851 16.5587 63.6313 17.7904 63.6313Z" fill="#1A3065"></path>
  <path d="M28.5263 59.978V63.0854C27.6165 62.3015 26.5247 62.2175 26.1608 62.2175C23.6693 62.2175 22.1856 64.1912 22.1856 66.0808C22.1856 68.2643 23.9352 69.972 26.1608 69.972C26.5247 69.972 27.6305 69.888 28.5263 69.1042V69.818H30.038V59.978H28.5263ZM26.1608 63.6313C27.4905 63.6313 28.5683 64.737 28.5683 66.1088C28.5683 67.4945 27.5185 68.5723 26.1608 68.5723C24.7331 68.5723 23.6973 67.5505 23.6973 66.1228C23.6973 64.4851 24.929 63.6313 26.1608 63.6313Z" fill="#1A3065"></path>
  <path d="M32.5015 59.978H31.0038V69.832H32.5015V59.978Z" fill="#1A3065"></path>
  <path d="M44.4971 62.3855V59.978H42.9994V62.3855H41.5717V63.7992H42.9994V69.832H44.4971V63.7992H46.1348V62.3855H44.4971Z" fill="#1A3065"></path>
  <path d="M49.6621 62.2176C47.8004 62.2176 45.7988 63.7153 45.7988 66.1508C45.7988 68.2224 47.5765 69.986 49.6621 69.986C51.8036 69.986 53.5533 68.2504 53.5533 66.1088C53.5533 63.9952 51.7756 62.2176 49.6621 62.2176ZM49.676 68.5723C48.3603 68.5723 47.2965 67.4805 47.2965 66.1368C47.2965 64.4151 48.6822 63.6313 49.676 63.6313C50.6419 63.6313 52.0556 64.4011 52.0556 66.0668C52.0556 67.6345 50.8518 68.5723 49.676 68.5723Z" fill="#1A3065"></path>
  <path d="M60.7059 67.1866L60.6219 67.3545C60.4819 67.6345 59.894 68.5723 58.4943 68.5723C57.0946 68.5723 55.9888 67.4805 55.9888 66.0948C55.9888 64.5551 57.2625 63.6453 58.4943 63.6453C59.4041 63.6453 60.202 64.1212 60.6219 64.919L60.7059 65.087H62.3155L62.1476 64.6531C61.4337 62.8614 59.7261 62.2316 58.4803 62.2316C56.2827 62.2316 54.5051 63.9812 54.5051 66.1228C54.5051 68.2923 56.2547 70 58.4803 70C60.132 70 61.3637 69.2162 62.1336 67.6625L62.3575 67.2006H60.7059V67.1866Z" fill="#1A3065"></path>
  <path d="M65.8848 62.2175C65.3109 62.2595 64.737 62.3715 64.2751 62.7634V62.3855H62.7774V69.818H64.2751V65.5069C64.2751 65.059 64.4151 64.6391 64.6811 64.3031C64.947 63.9952 65.3809 63.7992 65.9268 63.7572L66.2207 63.7432V62.1896L65.8848 62.2175Z" fill="#1A3065"></path>
  <path d="M72.4635 62.3995V63.0854C71.6237 62.3295 70.5739 62.2176 70.112 62.2176C67.6344 62.2176 66.1367 64.1912 66.1367 66.0808C66.1367 68.3063 67.8444 69.972 70.112 69.972C70.5739 69.972 71.6097 69.86 72.4635 69.1042V69.818H73.9612V62.3855H72.4635V62.3995ZM70.112 63.6313C71.4417 63.6313 72.5195 64.7371 72.5195 66.1088C72.5195 67.4945 71.4557 68.5723 70.112 68.5723C68.6842 68.5723 67.6345 67.5505 67.6345 66.1228C67.6345 64.4851 68.8802 63.6313 70.112 63.6313Z" fill="#1A3065"></path>
  <path d="M80.8198 59.978V63.0854C79.91 62.3015 78.8322 62.2175 78.4683 62.2175C75.9768 62.2175 74.4931 64.1912 74.4931 66.0808C74.4931 68.2643 76.2427 69.972 78.4683 69.972C78.8322 69.972 79.938 69.888 80.8198 69.1042V69.818H82.3175V59.978H80.8198ZM78.4683 63.6313C79.798 63.6313 80.8758 64.737 80.8758 66.1088C80.8758 67.4945 79.812 68.5723 78.4683 68.5723C77.0266 68.5723 75.9908 67.5505 75.9908 66.1228C75.9908 64.4851 77.2365 63.6313 78.4683 63.6313Z" fill="#1A3065"></path>
  <path d="M84.823 59.978H83.3113V69.832H84.823V59.978Z" fill="#1A3065"></path>
  <path d="M38.8142 67.7185C38.4503 68.1664 37.8484 68.5583 36.9946 68.5723C35.9168 68.5723 34.937 67.7464 34.7271 66.7386H40.8858V66.4167C40.8858 66.3887 40.8858 66.3467 40.8858 66.3047C40.8858 66.2627 40.8858 66.2207 40.8858 66.1648C40.8858 65.4229 40.6899 64.723 40.2979 64.0932C39.78 63.1974 38.6323 62.2175 36.9946 62.2036C34.867 62.2455 33.1314 63.9952 33.1314 66.0948C33.1314 68.2363 34.867 69.972 36.9946 69.972C38.5063 69.972 39.864 69.0762 40.4939 67.7044H38.8142V67.7185ZM37.0086 63.6313C37.8764 63.6313 38.8982 64.1632 39.2622 65.3249H34.7551C35.091 64.1772 36.1128 63.6313 37.0086 63.6313Z" fill="#1A3065"></path>
  <path d="M91.2198 67.5925C90.8698 68.0964 90.2399 68.5583 89.2741 68.5723C88.2104 68.5723 87.2305 67.7465 87.0066 66.7387H93.1654V66.4167C93.1654 66.3887 93.1654 66.3467 93.1654 66.3187C93.1654 66.2768 93.1654 66.2208 93.1654 66.1788C93.1654 65.4369 92.9694 64.7511 92.5775 64.1072C92.0596 63.2114 90.9118 62.2316 89.2741 62.2176C87.1466 62.2596 85.4249 64.0092 85.4249 66.1088C85.4249 68.2504 87.1606 69.986 89.3021 69.986C90.8698 69.986 92.2556 69.0202 92.8574 67.5925H91.2198ZM89.3021 63.6313C90.17 63.6313 91.1918 64.1632 91.5557 65.3249H87.0486C87.3845 64.1772 88.4063 63.6313 89.3021 63.6313Z" fill="#1A3065"></path>
  <path d="M30.4019 30.3039C29.6601 30.6958 29.1002 30.8498 28.3163 30.8498C26.2587 30.8498 25.2229 29.4641 25.2229 28.0644C25.2229 26.6087 26.3847 25.2369 28.4143 25.2369C29.1562 25.2369 29.814 25.4049 30.3319 25.7128V26.9306C29.744 26.5947 29.1562 26.3707 28.4983 26.3707C27.3645 26.3707 26.5807 27.0566 26.5807 28.0364C26.5807 29.0162 27.3645 29.716 28.4703 29.716C29.1562 29.716 29.6321 29.4921 30.3879 29.1142V30.3039H30.4019Z" fill="#1A3065"></path>
  <path d="M35.6509 30.7799H31.7317V25.3069H35.5949V26.3147H33.0614V27.4625H35.4689V28.4563H33.0614V29.7721H35.6509V30.7799Z" fill="#1A3065"></path>
  <path d="M39.3041 25.3069C40.3959 25.3069 41.0398 26.0628 41.0398 26.8746C41.0398 27.4765 40.7319 27.9244 40.13 28.2184C40.6759 28.4983 40.8438 29.1702 41.5857 30.7799H40.13C39.5701 29.6041 39.3461 28.5543 38.6323 28.5543H38.2544V30.7799H36.9386V25.3069H39.3041ZM38.2544 27.5465H38.9542C39.3181 27.5465 39.6821 27.3785 39.6821 26.9166C39.6821 26.5107 39.4301 26.3007 38.9262 26.3007H38.2544V27.5465Z" fill="#1A3065"></path>
  <path d="M46.8766 26.3147H44.945V30.7799H43.6293V26.3147H41.6977V25.3069H46.8766V26.3147Z" fill="#1A3065"></path>
  <path d="M49.3121 25.3069H47.9964V30.7799H49.3121V25.3069Z" fill="#1A3065"></path>
  <path d="M54.4631 26.3147H52.1256V27.5325H54.4631V28.5263H52.1256V30.7799H50.8098V25.3069H54.4631V26.3147Z" fill="#1A3065"></path>
  <path d="M57.1366 25.3069H55.8208V30.7799H57.1366V25.3069Z" fill="#1A3065"></path>
  <path d="M62.5675 30.7799H58.6483V25.3069H62.5115V26.3147H59.978V27.4625H62.3995V28.4563H59.978V29.7721H62.5675V30.7799Z" fill="#1A3065"></path>
  <path d="M66.1788 25.3069C68.1104 25.3069 69.1182 26.5527 69.1182 28.0504C69.1182 29.6181 68.1524 30.7799 66.0388 30.7799H63.8412V25.3069H66.1788ZM65.157 29.7721H66.0248C67.3545 29.7721 67.7465 28.8342 67.7465 28.0364C67.7465 27.0986 67.2565 26.3007 65.9968 26.3007H65.157V29.7721Z" fill="#1A3065"></path>
  <path d="M27.8964 0C12.5135 0 0 12.5275 0 27.9104C0 43.2793 12.5135 55.7928 27.8964 55.7928C33.7053 55.7928 39.0942 54.0152 43.5593 50.9778C39.6541 46.9746 36.7566 42.0056 35.245 36.5187C33.2713 38.2124 30.6959 39.2481 27.8824 39.2481C21.6397 39.2481 16.5447 34.1532 16.5447 27.9104C16.5447 21.6537 21.6397 16.5727 27.8824 16.5727C32.1376 16.5727 35.8328 18.9242 37.7784 22.3955H55.205C52.6435 9.64407 41.3897 0 27.8964 0Z" fill="#1A3065"></path>
  <path d="M67.1446 0C61.3497 0 55.9608 1.77764 51.4957 4.81504C55.4009 8.83223 58.2983 13.8012 59.796 19.2741C61.7837 17.5805 64.3451 16.5587 67.1446 16.5587C73.4013 16.5587 78.4823 21.6537 78.4823 27.8964C78.4823 34.1392 73.4013 39.2342 67.1446 39.2342C62.8754 39.2342 59.1522 36.8546 57.2206 33.3553H39.808C42.3555 46.1208 53.6233 55.7928 67.1306 55.7928C82.5275 55.7928 95.041 43.2793 95.041 27.9104C95.041 12.5275 82.5275 0 67.1446 0Z" fill="#1A3065"></path>
  <path d="M86.0828 0.223953H90.016V0.825833H88.3783V4.94101H87.6925V0.825833H86.0828V0.223953Z" fill="#1A3065"></path>
  <path d="M94.3971 0.223953H95.027V4.94101H94.3551V1.27374L92.8994 3.09338H92.7874L91.3177 1.27374V4.94101H90.6459V0.223953H91.2757L92.8434 2.15557L94.3971 0.223953Z" fill="#1A3065"></path>
</svg>
